<svg width="100%" viewBox="0 0 200 200" version="1.1" xmlns="http://www.w3.org/2000/svg" xmlns:xlink="http://www.w3.org/1999/xlink"><path d="M151.22969,64.54494c-15.7578,0 -28.52706,-12.76925 -28.52706,-28.52706c0,-15.7578 12.76925,-28.52706 28.52706,-28.52706c15.7578,0 28.52706,12.76925 28.52706,28.52706c0,15.7578 -12.76925,28.52706 -28.52706,28.52706zM151.22969,15.64141c-11.13914,0 -20.37647,9.23733 -20.37647,20.37647c0,11.13914 9.23733,20.37647 20.37647,20.37647c11.13914,0 20.37647,-9.23733 20.37647,-20.37647c0,-11.13914 -9.23733,-20.37647 -20.37647,-20.37647zM102.05447,94.9738c-0.54337,0 -1.08675,0 -1.63012,-0.27169c-2.17349,-0.81506 -2.98855,-3.26024 -2.17349,-5.43373l10.86745,-24.45176l-38.03608,-16.84455l-23.09333,29.07043c-1.35843,1.63012 -4.07529,2.17349 -5.70541,0.54337c-1.63012,-1.35843 -2.17349,-4.07529 -0.54337,-5.70541l24.99514,-31.51561c1.08675,-1.35843 3.26024,-1.9018 4.89035,-1.08675l44.55655,19.56141c2.17349,0.81506 2.98855,3.26024 2.17349,5.43373l-12.49757,28.25537c-0.54337,1.35843 -2.17349,2.44518 -3.80361,2.44518zM151.22969,115.07859c-1.63012,0 -2.98855,-0.81506 -3.53192,-2.17349l-15.48612,-31.51561l-19.01804,19.28973c-1.63012,1.63012 -4.07529,1.63012 -5.70541,0c-1.63012,-1.63012 -1.63012,-4.07529 0,-5.70541l22.82165,-23.36502c0.81506,-0.81506 2.17349,-1.35843 3.53192,-1.08675c1.35843,0.27169 2.44518,1.08675 2.98855,2.17349l16.30118,33.41741l41.568,-12.49757c2.17349,-0.54337 4.34698,0.54337 5.16204,2.71686c0.54337,2.17349 -0.54337,4.34698 -2.71686,5.16204l-45.09992,13.58431zM62.65996,181.37004c-1.63012,0 -3.26024,-1.08675 -3.80361,-2.71686c-0.81506,-2.17349 0.27169,-4.34698 2.44518,-5.16204l74.71372,-25.53851l-44.55655,-35.5909c-1.63012,-1.35843 -2.17349,-4.07529 -0.54337,-5.70541c1.35843,-1.63012 4.07529,-2.17349 5.70541,-0.54337l50.26196,40.20957c1.08675,0.81506 1.63012,2.44518 1.35843,3.80361c-0.27169,1.35843 -1.35843,2.71686 -2.71686,3.26024l-81.50588,27.98369zM3.97573,192.50917c-1.08675,0 -2.17349,-0.54337 -2.98855,-1.35843c-1.35843,-1.63012 -1.35843,-4.34698 0.27169,-5.70541l75.2571,-66.29145c1.63012,-1.35843 4.34698,-1.35843 5.70541,0.27169c1.35843,1.63012 1.35843,4.34698 -0.27169,5.70541l-75.2571,66.29145c-0.81506,0.81506 -1.9018,1.08675 -2.71686,1.08675z" fill-rule="evenodd"></path></svg>