<svg width="100%" viewBox="0 0 200 200" version="1.1" xmlns="http://www.w3.org/2000/svg" xmlns:xlink="http://www.w3.org/1999/xlink"><path d="M149.58821,32.08345c-2.40439,-0.57731 -1.13135,-2.74908 0.33835,-3.94599c7.41194,-6.0078 6.72679,-19.35353 0.63652,-24.10521c-2.11679,-1.65156 -1.17788,-2.9817 1.74672,-3.59495c1.74461,-0.34469 9.60909,-0.12265 14.57224,4.87645c6.72679,6.78388 5.3015,21.06219 -7.21951,25.51147c-3.95656,1.4401 -8.28319,1.57332 -10.07432,1.25823zM153.16201,2.89245c4.4958,4.61846 4.62903,9.56891 4.61211,12.52946c-0.02961,3.17836 -0.66401,9.13541 -5.05619,13.49164c3.84025,1.28995 15.98485,-3.11281 15.98485,-13.35842c0,-9.82479 -10.76582,-13.26114 -15.54076,-12.66269zM0.22643,108.178c5.65835,1.22926 36.9542,1.91082 53.462,0.50816c-16.15698,14.5088 -26.74475,29.62198 -27.9167,34.43477c-0.62594,1.11655 -0.30451,1.9878 0.80569,2.68141c20.20574,13.74117 38.35602,32.44338 49.73933,51.36763c1.37454,2.38324 2.60951,3.00284 5.22748,2.11045l0.28548,-0.10214c48.49209,-17.3357 69.66656,-24.9054 110.91905,-20.23048c1.11021,0.23261 2.29442,-0.79723 2.24156,-2.07661c-0.81838,-18.19468 -46.32412,-99.67743 -72.86967,-99.356c-24.02231,-0.02242 -46.6777,12.84286 -63.98802,27.31867c-0.16072,-4.96146 -0.44429,-15.76534 -0.26624,-20.64538c3.74911,0.21823 7.62278,0.47305 10.46363,0.65978c2.03453,0.13386 3.53934,0.23283 4.08936,0.25863c13.14695,0.59634 15.17915,-2.1612 12.92068,-3.1699c-4.96949,-2.35364 -12.9672,-4.63749 -21.32652,-11.01324c11.47001,0.27279 20.358,-1.23709 17.20924,-3.07686c-4.72419,-2.74274 -16.36337,-9.71483 -22.41769,-16.03137c16.40355,1.00447 17.73157,-1.87995 16.09058,-2.89499c-2.62009,-1.73615 -7.57054,-3.70914 -13.9463,-10.64317c7.79893,0.06555 12.12556,-0.77609 9.9707,-2.93094c-6.70776,-5.00121 -15.60632,-13.01795 -20.52083,-18.68106c-2.27751,-2.61374 -2.62854,-2.28174 -4.40276,-0.27279c-9.00218,10.16948 -9.41666,10.99632 -20.27976,20.41509c-1.6135,1.61138 -0.82472,2.99861 8.25359,2.44668c-2.84636,3.30313 -5.7773,6.14102 -13.72849,12.88261c-1.6706,1.23286 0.16283,3.11281 14.91482,1.39569c-4.62268,4.37315 -8.74631,7.40349 -19.26683,14.30579c-4.29068,2.57991 8.59405,3.40675 20.36434,2.34518c-5.4178,4.2209 -12.7515,8.37835 -20.66251,13.25268c-2.89076,1.55429 -3.34542,5.93167 26.47787,0.60903c0.21993,7.27449 0.43774,15.37793 0.65766,22.44519c-1.11866,0.21781 -32.49413,-0.02961 -37.97538,-0.922c-4.55501,-0.74014 -5.19999,2.42765 -4.52541,2.60951zM59.21536,70.80954c-1.96665,-1.97511 -0.19244,-2.55242 1.56486,-2.72159c0.30684,-0.01036 1.28594,-0.01375 2.61205,-0.0184h0.00042c4.62226,-0.01628 13.46267,-0.04737 12.78238,-0.43837c-7.47327,-3.89946 -18.92636,-12.97777 -21.17426,-16.04194c-0.07993,-0.11017 -0.1605,-0.21464 -0.23727,-0.31424c-0.55214,-0.71624 -0.90191,-1.16984 0.65597,-1.54667c0.48764,-0.118 3.75905,-0.11715 7.15522,-0.11631c4.21667,0.00085 8.62556,0.0019 8.13601,-0.22416c-5.94436,-2.47629 -14.5955,-11.06188 -15.69936,-12.55272c-0.39122,-0.52021 -0.23896,-0.72956 0.25588,-0.84587c0.57139,-0.12963 2.26926,-0.16791 4.12024,-0.20956c3.12972,-0.07063 6.69634,-0.15099 5.99215,-0.69975c-4.67767,-2.67507 -15.59575,-14.20006 -16.73344,-15.44349c-0.58788,-0.63652 -0.80992,-0.65344 -1.33013,-0.13322c-2.03009,2.03855 -6.18332,7.81796 -16.85609,16.84129c-0.99622,0.84228 3.56915,0.57667 6.49777,0.40602c0.89451,-0.05202 1.63613,-0.09516 2.02015,-0.09516c0.56673,0.13322 0.48426,0.332 0.2157,0.70207c-0.87125,1.21382 -7.28506,8.52215 -13.28863,13.53816c-1.76787,1.35403 4.90542,0.75896 9.43379,0.35505c1.60335,-0.14295 2.93792,-0.26201 3.53341,-0.26201c0.94738,-0.00634 1.47182,0.37218 0.91143,1.23497c-0.85221,1.3259 -9.89458,10.21812 -18.42518,15.11994c-1.94508,1.33267 10.31053,0.60247 15.92881,0.26772c0.97846,-0.05837 1.75561,-0.10468 2.22147,-0.12603c1.97299,-0.09305 2.42765,0.95795 1.3259,2.0597c-5.68214,5.90841 -16.30628,11.45944 -19.42966,13.56777c-0.24742,0.17129 -0.15226,0.50964 0.27279,0.44408c1.44855,-0.21189 2.80935,-0.41236 4.0938,-0.60141c21.02645,-3.09673 21.56865,-3.17667 50.62559,-0.87675c0.75536,0.06027 0.60099,0.00423 -0.21147,-0.29035c-2.29654,-0.83255 -9.85038,-3.57148 -16.97029,-10.97877zM136.66055,29.88461c-1.54611,0.68953 -3.50917,1.67031 -5.88916,2.94236c-0.17115,-0.09826 -0.36894,-0.21182 -0.59338,-0.34067c-2.85961,-1.64212 -4.51984,-2.54953 -4.9807,-2.72222l-0.00846,-0.00317c-0.20442,-0.07571 -0.38318,-0.10975 -0.53628,-0.10214c-0.68727,0.03398 -1.02033,0.40411 -0.99919,1.11042c0.00127,0.85983 0.33715,2.92185 1.00764,6.18607c-2.12229,1.61167 -3.67249,2.82119 -4.6506,3.62857c-0.27688,0.23163 -0.41427,0.51817 -0.41215,0.85962c0.00296,0.4517 0.21358,0.77475 0.63187,0.96916c0.11814,0.05484 0.26962,0.09481 0.45444,0.1199l2.99565,0.58175l3.28156,0.63694c1.06016,2.50152 1.95474,4.31204 2.68374,5.43155c0.12166,0.19328 0.27632,0.34497 0.46396,0.45508c0.60959,0.35752 1.104,0.25334 1.48323,-0.31255c0.70644,-0.95767 1.68321,-2.80033 2.93031,-5.52798c3.02892,-0.37176 5.20027,-0.65999 6.51405,-0.86469l0.01396,-0.00211l0.01375,-0.00254c0.48497,-0.0891 0.78842,-0.37134 0.91037,-0.84672c0.11687,-0.45578 -0.0012,-0.83995 -0.35421,-1.1525l-0.01227,-0.011l-2.48348,-2.06371l-2.22358,-1.83258c0.81514,-2.79335 1.28389,-4.77417 1.40626,-5.94245c0.07063,-0.51852 -0.12103,-0.90388 -0.57498,-1.15609c-0.33229,-0.18468 -0.68149,-0.20104 -1.04761,-0.04906l-0.01248,0.00529zM136.25157,30.84721c-0.00113,0.01128 -0.00233,0.02256 -0.00359,0.03383c0.00141,-0.01649 0.00317,-0.0332 0.00529,-0.05012zM131.24528,34.92093l-0.50583,0.27237l-0.49843,-0.28548c-0.23769,-0.13604 -0.60219,-0.34512 -1.0935,-0.62721c-1.37736,-0.79089 -2.45486,-1.40097 -3.2325,-1.83025c0.17791,1.11274 0.47933,2.68719 0.90424,4.72334l0.13386,0.64096l-0.52211,0.39523c-1.38328,1.04719 -2.53782,1.93324 -3.46363,2.65815l1.10725,0.21506l4.36808,0.84777l0.21337,0.51154c0.77721,1.86275 1.45638,3.33985 2.03749,4.43131c0.58506,-1.04141 1.31321,-2.52753 2.18446,-4.45837l0.2398,-0.531l0.57815,-0.07063c2.02642,-0.24685 3.68976,-0.45825 4.99,-0.63419l-0.87675,-0.72872l-3.2805,-2.70361l0.19561,-0.65724c0.56843,-1.91068 0.98079,-3.44305 1.23709,-4.5971c-1.33366,0.64385 -2.90571,1.45321 -4.71615,2.42807zM175.46298,49.0347c0.21626,-0.0289 0.40588,-0.05428 0.56885,-0.07613c1.11838,-2.4464 2.08225,-4.41361 2.89161,-5.90164c0.20893,-0.36922 0.51013,-0.57815 0.9036,-0.62679c0.49498,-0.06118 0.8735,0.12667 1.13558,0.56356c0.03524,0.0578 0.0879,0.14013 0.15797,0.24699c0.45705,0.69657 1.24562,2.50963 2.36569,5.43916c3.17667,0.59803 5.19252,0.91594 6.04755,0.95372l0.0239,0.00106l0.0239,0.00233c0.47538,0.04314 0.80182,0.28175 0.97931,0.71582c0.18059,0.4414 0.11095,0.84425 -0.20893,1.20854l-0.0148,0.01692l-0.01565,0.01628c-0.92679,0.96725 -2.45451,2.25587 -4.58314,3.86584c0.98812,3.24335 1.49226,5.4675 1.51242,6.67244c0.03087,0.67106 -0.29627,1.05191 -0.98142,1.14256c-0.17806,0.02354 -0.36563,0.00966 -0.56272,-0.04166l-0.04356,-0.01142l-0.04251,-0.01501c-1.27783,-0.45409 -3.28177,-1.5318 -6.01182,-3.23313l-2.96816,1.47456l-2.75458,1.37158c-0.00465,0.00226 -0.0136,0.00677 -0.02686,0.01353c-0.18609,0.09488 -0.35308,0.15078 -0.50097,0.16769c-0.45888,0.05273 -0.8064,-0.11595 -1.04254,-0.50604c-0.14859,-0.24516 -0.19187,-0.51619 -0.12984,-0.81309c0.28661,-1.24414 0.78419,-3.15235 1.49275,-5.72464c-2.52196,-2.1877 -4.04404,-3.62463 -4.56622,-4.31077l-0.01057,-0.01375l-0.00233,-0.00338l-0.00211,-0.00296c-0.40771,-0.53473 -0.36274,-1.01751 0.13492,-1.44834c0.11391,-0.09868 0.26863,-0.17954 0.46417,-0.24255c0.01523,-0.00493 0.02693,-0.00874 0.0351,-0.01142c0.4844,-0.14803 2.39487,-0.44465 5.73141,-0.88986zM177.67874,50.33544l-0.23663,0.52148l-0.56758,0.07655c-0.24728,0.03327 -0.62651,0.08402 -1.1377,0.15226c-1.63831,0.21866 -2.90592,0.39559 -3.80282,0.53078c0.81782,0.77637 2.01501,1.84393 3.59157,3.20268l0.49674,0.42801l-0.1751,0.63208c-0.46495,1.67708 -0.8446,3.08376 -1.13897,4.22005l1.01166,-0.50372l4.00752,-1.99097l0.49166,0.3098c1.9885,1.25372 3.57782,2.17495 4.76796,2.76367c-0.24643,-1.24667 -0.72625,-3.01334 -1.43946,-5.30002l-0.21802,-0.69954l0.58725,-0.43795c1.43587,-1.07073 2.60641,-1.99562 3.51163,-2.77467c-1.2096,-0.18257 -2.84184,-0.46953 -4.89675,-0.86089l-0.56906,-0.10827l-0.20512,-0.54178c-0.7548,-1.99372 -1.35008,-3.47385 -1.78584,-4.4404c-0.6736,1.32844 -1.43791,2.93538 -2.29294,4.82083zM129.89718,48.13745c0.02509,-0.03708 0.05075,-0.0719 0.07697,-0.10447c-0.02016,0.02791 -0.04004,0.05505 -0.05963,0.08142zM185.18224,62.19899c-0.00127,-0.02777 -0.00176,-0.05505 -0.00148,-0.08184c0.00056,0.02086 0.00099,0.04152 0.00127,0.06196zM77.19011,190.41146c0.21993,-41.79448 10.12296,-78.54546 40.76463,-108.60771c-27.31106,-0.89028 -72.40232,33.20466 -86.50933,61.26643c16.44162,10.56916 38.8572,34.62784 45.7447,47.34128zM190.70176,175.01238c-8.63211,-26.18605 -38.18473,-82.28209 -66.35223,-92.0223c-0.86913,-0.3595 -2.01952,-0.0571 -2.637,0.41659c-20.61599,21.6987 -43.16268,55.93322 -39.6354,110.80063c3.75778,-1.51622 15.17281,-5.24229 19.57345,-6.5555c-1.24343,-34.42906 7.96599,-60.13931 20.22477,-73.33701c1.40203,-1.64733 4.61211,-1.68963 6.39055,-0.3595c24.80094,16.5833 35.1121,53.70435 35.76554,59.42666c5.66522,-0.49483 17.63218,-0.0867 26.67031,1.63042zM45.51225,83.90362c-0.00254,-0.28675 4.02423,-0.16072 8.97617,0.0977c-0.09072,1.09244 -0.14464,3.62815 -0.14951,4.01746c-0.1364,3.9517 0.14232,10.63831 0.31107,14.68813c0.06661,1.59975 0.1161,2.7882 0.1161,3.23376c-2.22253,0.27702 -6.67181,0.332 -8.82243,0.46311c-0.16283,-0.32355 -0.42082,-21.17426 -0.43139,-22.50017zM200,112.41581c0,2.42765 -31.71593,1.56063 -33.61491,-0.20301c-0.61326,-0.86702 0.24953,-1.39569 2.86539,-1.12289c2.24156,0.13534 22.95905,1.23497 29.14237,0.13534c1.15884,-0.20935 1.60715,0.34681 1.60715,1.19056zM160.15525,173.50673c-4.88702,-29.08104 -29.2185,-57.81528 -34.97676,-56.57185c-7.16241,1.54794 -21.33075,30.37734 -19.98159,69.51156c10.13353,-3.05571 20.03657,-6.05432 29.73448,-8.98738c-0.80083,-10.31497 -4.65039,-29.72877 -7.26074,-42.892c-1.46991,-7.41364 -2.54692,-12.84455 -2.46466,-13.55085c0.22627,-1.84188 1.83131,-1.56909 2.19926,-0.37218c0.12477,0.42505 8.4714,35.60694 10.5903,55.91418c9.71271,-2.16543 13.42186,-2.23098 22.1597,-3.05148z" fill-rule="evenodd"></path></svg>