<svg width="100%" viewBox="0 0 200 200" version="1.1" xmlns="http://www.w3.org/2000/svg" xmlns:xlink="http://www.w3.org/1999/xlink"><path d="M136.27283,28c1.05263,1.05263 1.68421,2.52632 1.26316,4l-2.31579,9.26316c-0.84211,3.57895 2.94737,6.31579 6.10526,4.42105l8.21053,-5.05263c1.26316,-0.84211 2.94737,-0.84211 4.21053,0l8.21053,5.05263c3.15789,1.89474 6.94737,-0.84211 6.10526,-4.42105l-2.31579,-9.26316c-0.42105,-1.47368 0.21053,-2.94737 1.26316,-4l7.36842,-6.31579c2.73684,-2.31579 1.26316,-6.73684 -2.31579,-7.15789l-9.68421,-0.84211c-1.26316,0 -2.52632,-0.84211 -3.15789,-2.31579l-3.78947,-8.84211c-1.47368,-3.36842 -6.10526,-3.36842 -7.57895,0l-3.57895,8.84211c-0.63158,1.47368 -1.89474,2.31579 -3.36842,2.52632l-9.68421,0.84211c-3.57895,0.21053 -5.05263,4.84211 -2.31579,7.15789zM72.0562,34.66653c0.28253,0.00239 0.56484,0.01179 0.84695,0.02821c0.28211,0.01628 0.56358,0.03951 0.84442,0.06968c0.28098,0.03004 0.56098,0.06702 0.84,0.11095c0.27916,0.04393 0.55698,0.09467 0.83347,0.15221c0.27663,0.05754 0.55172,0.12182 0.82526,0.19284c0.2734,0.07102 0.54491,0.1487 0.81453,0.23305c0.26961,0.08435 0.53705,0.1753 0.80232,0.27284c0.26512,0.09754 0.52772,0.20147 0.78779,0.31179c0.26007,0.11046 0.51726,0.22716 0.77158,0.35011c0.25432,0.12309 0.50547,0.25228 0.75347,0.38758c0.248,0.1353 0.49249,0.27663 0.73347,0.424c0.24112,0.14737 0.47846,0.30056 0.712,0.45958c0.23354,0.15902 0.46302,0.32365 0.68842,0.49389c0.2254,0.17025 0.44653,0.34596 0.66337,0.52716c0.21684,0.18119 0.42912,0.36751 0.63684,0.55895c0.20758,0.19158 0.41039,0.38814 0.60842,0.58968c0.19804,0.20154 0.39102,0.40779 0.57895,0.61874c0.18793,0.21095 0.37053,0.42639 0.54779,0.64632c0.1774,0.22007 0.34926,0.44428 0.51558,0.67263c0.16632,0.22835 0.32688,0.46063 0.48168,0.69684c0.15495,0.23635 0.304,0.47628 0.44716,0.71979c0.14316,0.24365 0.28021,0.49067 0.41116,0.74105c0.13095,0.25025 0.25572,0.50358 0.37432,0.76c0.1186,0.25642 0.23081,0.51565 0.33663,0.77768c0.10582,0.26189 0.20519,0.52625 0.29811,0.79305c0.09277,0.26695 0.17902,0.53593 0.25874,0.80695c0.07958,0.27102 0.15249,0.54386 0.21874,0.81853c0.06625,0.27467 0.12575,0.55081 0.17853,0.82842c0.05263,0.27747 0.09846,0.55614 0.13747,0.836c0.03902,0.27986 0.07116,0.56049 0.09642,0.84189c0.02526,0.2814 0.04358,0.56323 0.05495,0.84547c0.01137,0.28225 0.01586,0.56463 0.01347,0.84716c-0.00253,0.28253 -0.01193,0.56484 -0.02821,0.84695c-0.01628,0.28196 -0.03951,0.56344 -0.06968,0.84442c-0.03018,0.28084 -0.06723,0.56084 -0.11116,0.84c-0.04379,0.27902 -0.09446,0.55684 -0.152,0.83347c-0.05754,0.27663 -0.12182,0.55165 -0.19284,0.82505c-0.07116,0.27354 -0.14891,0.54512 -0.23326,0.81474c-0.08435,0.26961 -0.1753,0.53698 -0.27284,0.80211c-0.0974,0.26526 -0.20133,0.52786 -0.31179,0.78779c-0.11032,0.26007 -0.22702,0.51733 -0.35011,0.77179c-0.12295,0.25432 -0.25214,0.50547 -0.38758,0.75347c-0.1353,0.248 -0.27663,0.49249 -0.424,0.73347c-0.14737,0.24112 -0.30056,0.47846 -0.45958,0.712c-0.15902,0.2334 -0.32365,0.46288 -0.49389,0.68842c-0.17025,0.2254 -0.34596,0.44653 -0.52716,0.66337c-0.18105,0.21684 -0.36737,0.42905 -0.55895,0.63663c-0.19158,0.20772 -0.38814,0.4106 -0.58968,0.60863c-0.2014,0.19804 -0.40765,0.39102 -0.61874,0.57895c-0.21095,0.18779 -0.42639,0.37039 -0.64632,0.54779c-0.21993,0.17726 -0.44407,0.34905 -0.67242,0.51537c-0.22849,0.16632 -0.46084,0.32695 -0.69705,0.48189c-0.23621,0.15495 -0.47614,0.30393 -0.71979,0.44695c-0.24365,0.14316 -0.4906,0.28028 -0.74084,0.41137c-0.25039,0.13095 -0.50379,0.25572 -0.76021,0.37432c-0.25642,0.1186 -0.51558,0.23081 -0.77747,0.33663c-0.26204,0.10582 -0.52646,0.20512 -0.79326,0.29789c-0.26681,0.09291 -0.53572,0.17916 -0.80674,0.25874c-0.27116,0.07972 -0.54407,0.1527 -0.81874,0.21895c-0.27453,0.06625 -0.5506,0.12568 -0.82821,0.17832c-0.27761,0.05277 -0.55635,0.09867 -0.83621,0.13768c-0.27972,0.03902 -0.56028,0.07116 -0.84168,0.09642c-0.2814,0.02526 -0.56323,0.04358 -0.84547,0.05495c-0.28239,0.01137 -0.56484,0.01579 -0.84737,0.01326c-0.28253,-0.00239 -0.56477,-0.01172 -0.84674,-0.028c-0.28211,-0.01642 -0.56358,-0.03972 -0.84442,-0.06989c-0.28098,-0.03004 -0.56098,-0.06702 -0.84,-0.11095c-0.27916,-0.04393 -0.55705,-0.09467 -0.83368,-0.15221c-0.27663,-0.05754 -0.55165,-0.12182 -0.82505,-0.19284c-0.2734,-0.07102 -0.54491,-0.1487 -0.81453,-0.23305c-0.26961,-0.08435 -0.53705,-0.1753 -0.80232,-0.27284c-0.26512,-0.09754 -0.52772,-0.20147 -0.78779,-0.31179c-0.26007,-0.11046 -0.51726,-0.22716 -0.77158,-0.35011c-0.25432,-0.12309 -0.50547,-0.25228 -0.75347,-0.38758c-0.248,-0.1353 -0.49256,-0.27663 -0.73368,-0.424c-0.24098,-0.14737 -0.47825,-0.30056 -0.71179,-0.45958c-0.23354,-0.15902 -0.46302,-0.32365 -0.68842,-0.49389c-0.22554,-0.17025 -0.44674,-0.34596 -0.66358,-0.52716c-0.2167,-0.18119 -0.42891,-0.36751 -0.63663,-0.55895c-0.20772,-0.19158 -0.4106,-0.38814 -0.60863,-0.58968c-0.19804,-0.20154 -0.39095,-0.40779 -0.57874,-0.61874c-0.18793,-0.21095 -0.3706,-0.42639 -0.548,-0.64632c-0.17726,-0.22007 -0.34905,-0.44428 -0.51537,-0.67263c-0.16632,-0.22835 -0.32695,-0.46063 -0.48189,-0.69684c-0.15481,-0.23635 -0.30379,-0.47628 -0.44695,-0.71979c-0.14316,-0.24365 -0.28021,-0.4906 -0.41116,-0.74084c-0.13109,-0.25039 -0.25586,-0.50379 -0.37432,-0.76021c-0.1186,-0.25642 -0.23081,-0.51565 -0.33663,-0.77768c-0.10582,-0.26189 -0.20519,-0.52625 -0.29811,-0.79305c-0.09277,-0.26681 -0.17902,-0.53579 -0.25874,-0.80695c-0.07958,-0.27102 -0.15256,-0.54386 -0.21895,-0.81853c-0.06625,-0.27467 -0.12568,-0.55081 -0.17832,-0.82842c-0.05277,-0.27747 -0.09867,-0.55614 -0.13768,-0.836c-0.03888,-0.27986 -0.07095,-0.56049 -0.09621,-0.84189c-0.02526,-0.28126 -0.04358,-0.56309 -0.05495,-0.84547c-0.01151,-0.28225 -0.016,-0.56463 -0.01347,-0.84716c0.00491,-0.56533 0.03754,-1.12912 0.09789,-1.69137c0.06035,-0.56211 0.14807,-1.11993 0.26316,-1.67347c0.11509,-0.55354 0.25705,-1.10014 0.42589,-1.63979c0.16884,-0.53951 0.36372,-1.06947 0.58463,-1.58989c0.22091,-0.52056 0.46681,-1.02898 0.73768,-1.52526c0.27088,-0.49628 0.56547,-0.97804 0.88379,-1.44526c0.31818,-0.46737 0.65846,-0.91804 1.02084,-1.352c0.36253,-0.43382 0.7454,-0.84891 1.14863,-1.24526c0.40337,-0.39635 0.82512,-0.77193 1.26526,-1.12674c0.44014,-0.35481 0.89663,-0.68723 1.36947,-0.99726c0.47284,-0.31004 0.95972,-0.59614 1.46063,-0.85832c0.50091,-0.26204 1.01347,-0.49902 1.53768,-0.71095c0.52421,-0.21179 1.05754,-0.39733 1.6,-0.55663c0.54246,-0.15944 1.09144,-0.29186 1.64695,-0.39726c0.55551,-0.10554 1.11481,-0.18358 1.67789,-0.23411c0.56309,-0.05053 1.1273,-0.07326 1.69263,-0.06821zM29.11494,116.21053c2.52632,0 5.05263,-1.26316 6.52632,-3.57895l4.63158,-6.73684c3.78947,-5.47368 9.05263,-9.89474 15.15789,-12.63158v27.57895l-3.36842,23.15789l-12.21053,29.26316l19.15789,-1.26316l1.68421,-1.68421l8.42105,-20.21053c0.21053,-0.63158 0.42105,-1.47368 0.63158,-2.10526l2.94737,-18.94737l18.73684,7.78947l-1.89474,19.36842l18.31579,-1.68421l2.31579,-22.52632c0.42105,-4 -1.89474,-7.78947 -5.47368,-9.26316l-15.36842,-6.31579v-28.42105l0.84211,-0.21053c10.73684,-2.73684 20.63158,-9.05263 27.78947,-17.68421l6.94737,-8.63158c2.73684,-3.36842 2.31579,-8.42105 -1.26316,-11.15789c-3.36842,-2.73684 -8.42105,-2.31579 -11.15789,1.26316l-7.36842,8.42105c-4.84211,6.10526 -11.78947,10.52632 -19.36842,12.42105l-2.10526,0.42105c-2.94737,0.84211 -5.89474,1.05263 -9.05263,1.05263h-4.21053c-5.05263,0 -10.52632,0.84211 -15.57895,2.31579c-11.36842,3.57895 -21.26316,10.73684 -28,20.63158l-4.63158,6.73684c-2.52632,3.57895 -1.47368,8.63158 2.10526,10.94737c1.68421,1.26316 3.15789,1.68421 4.84211,1.68421zM178.16757,159.36842l-23.36842,-32.42105c-1.26316,-1.89474 -3.78947,-2.52632 -5.68421,-1.68421l-16.21053,6.73684c-0.84211,0.42105 -1.68421,1.05263 -2.31579,1.89474l-15.78947,26.10526c-0.84211,1.26316 -2.10526,2.10526 -3.78947,2.31579l-32,2.73684c-1.05263,0 -2.10526,0.63158 -2.94737,1.47368l-12.21053,12.21053c-0.84211,0.84211 -1.89474,1.26316 -3.15789,1.47368l-28.42105,1.89474c-1.68421,0 -3.15789,0.84211 -3.78947,2.31579l-4.63158,8.42105c-1.89474,3.15789 0.42105,7.15789 4.21053,7.15789h146.31579c2.73684,0 4.84211,-2.10526 4.84211,-4.84211v-33.05263c-0.21053,-1.05263 -0.42105,-1.89474 -1.05263,-2.73684z" fill-rule="evenodd"></path></svg>