<svg width="100%" viewBox="0 0 200 200" version="1.1" xmlns="http://www.w3.org/2000/svg" xmlns:xlink="http://www.w3.org/1999/xlink"><path d="M57.8125,40.62469c11.21828,0 20.3125,-9.09422 20.3125,-20.3125c0,-11.18045 -9.03297,-20.25114 -20.19906,-20.31219l-0.22688,0c-11.16609,0.06105 -20.19906,9.13173 -20.19906,20.31219c0.01266,11.21297 9.09953,20.29984 20.3125,20.3125zM40.20891,200h-0.26625c-0.39531,-0.01719 -0.78984,-0.10937 -1.16156,-0.27812c-1.01672,-0.4625 -1.70875,-1.43438 -1.81516,-2.54531l-6.69656,-69.15062c-3.03031,-0.47516 -5.265,-3.08391 -5.26937,-6.15125v-60.9375c0.01172,-9.40766 5.00094,-18.10672 13.115,-22.86734c1.49547,1.66734 3.19437,3.14031 5.05703,4.38422c-7.25641,3.28797 -11.91906,10.51641 -11.92203,18.48313v60.9375h40.625v-10.94469l-28.67734,-5.47375c-1.39484,-0.26578 -2.43484,-1.43906 -2.53141,-2.85578l-3.15859,-46.13719c-0.11359,-1.71906 1.18547,-3.20562 2.90422,-3.32344c1.71875,-0.11781 3.20844,1.17781 3.33047,2.89609l2.99375,43.73328l50.07172,9.55734c0.71469,0.13844 1.45484,-0.025 2.04469,-0.45156c0.85172,-0.61625 1.28094,-1.66156 1.10828,-2.69844c-0.17281,-1.03688 -0.91766,-1.88656 -1.92297,-2.19359l-39.32953,-11.33719c-1.39094,-0.40109 -2.32453,-1.70437 -2.25688,-3.15031l1.57781,-33.39313c0.08453,-1.72172 1.54703,-3.04984 3.26891,-2.96859c1.72187,0.08125 3.05281,1.54109 2.975,3.26313l-1.46187,30.92734l9.06375,2.61266v-28.99969c0.00078,-5.76953 -2.46094,-11.265 -6.76625,-15.10562c2.15469,-0.61906 4.22187,-1.51016 6.15125,-2.65203c4.41516,4.86062 6.8625,11.19109 6.865,17.75766v30.80125l21.64313,6.23875c3.30875,0.97016 5.77484,3.74203 6.35312,7.14141c0.57828,3.39922 -0.83219,6.83078 -3.63406,8.84062c-1.50156,1.08328 -3.30594,1.66672 -5.1575,1.66781c-0.56844,-0.00031 -1.13547,-0.05453 -1.69375,-0.16172l-17.51094,-3.34234v9.75172c-0.00437,3.06734 -2.23891,5.67594 -5.26937,6.15125l-6.69656,69.15062c-0.15453,1.6 -1.49875,2.82188 -3.10672,2.82344c-0.10062,0 -0.20141,-0.00469 -0.30359,-0.01406c-0.825,-0.08125 -1.58453,-0.48437 -2.11125,-1.125c-0.52688,-0.63906 -0.77797,-1.4625 -0.69797,-2.2875l6.62797,-68.44875h-30.01l6.62797,68.44875c0.10906,1.11094 -0.38375,2.19687 -1.2925,2.84687c-0.50187,0.35938 -1.08828,0.55469 -1.68406,0.57969zM137.08313,200h-0.26484c-0.39547,-0.01719 -0.79031,-0.10937 -1.16219,-0.27812c-1.01672,-0.4625 -1.70875,-1.43438 -1.81516,-2.54531l-6.69656,-69.15062c-3.03031,-0.47531 -5.265,-3.08391 -5.26937,-6.15125v-10.05l-11.28703,2.15438c1.15859,-2.05797 1.8075,-4.36344 1.8925,-6.72359l9.39453,-1.79313v-7.66984l-10.53984,3.03828c-0.85016,-2.05687 -2.135,-3.90531 -3.76656,-5.41891l14.30641,-4.12391v-30.35078c0.0025,-6.56656 2.44984,-12.89703 6.865,-17.75766c1.92937,1.14188 3.99656,2.03297 6.15125,2.65203c-4.30531,3.84062 -6.76703,9.33609 -6.76625,15.10562v60.9375h9.375v-64.0625c0,-1.72594 1.39906,-3.125 3.125,-3.125c1.72594,0 3.125,1.39906 3.125,3.125v67.1875c0,2.58891 2.09859,4.6875 4.6875,4.6875c2.58891,0 4.6875,-2.09859 4.6875,-4.6875v-67.1875c0,-1.72594 1.39906,-3.125 3.125,-3.125c1.72656,0 3.125,1.39906 3.125,3.125v64.0625h9.375v-60.9375c-0.00312,-7.96672 -4.66563,-15.19516 -11.92187,-18.48312c1.8625,-1.24391 3.56094,-2.71688 5.05625,-4.38422c8.11406,4.76063 13.10313,13.45969 13.11563,22.86734v60.9375c-0.00469,3.06734 -2.23906,5.67609 -5.26875,6.15125l-6.69687,69.15062c-0.15469,1.6 -1.49844,2.82188 -3.10625,2.82344c-0.10156,0 -0.20156,-0.00469 -0.30469,-0.01406c-0.825,-0.08125 -1.58438,-0.48437 -2.11094,-1.125c-0.52656,-0.63906 -0.77813,-1.4625 -0.69844,-2.2875l6.62812,-68.44875h-4.52812c-1.37969,4.63484 -5.64062,7.81234 -10.47656,7.81234c-4.83594,0 -9.09719,-3.1775 -10.47688,-7.81234h-4.52812l6.62797,68.44875c0.10906,1.11094 -0.38375,2.19687 -1.2925,2.84687c-0.50203,0.35938 -1.08875,0.55469 -1.68484,0.57969zM142.07406,0h0.22688c11.16609,0.06105 20.19906,9.13173 20.19906,20.31219c0,11.21828 -9.09422,20.3125 -20.3125,20.3125c-11.21297,-0.01266 -20.29984,-9.09953 -20.3125,-20.3125c0,-11.18045 9.03297,-20.25114 20.19906,-20.31219zM57.8125,6.24969c7.76656,0 14.0625,6.296 14.0625,14.0625c0,7.76656 -6.29594,14.0625 -14.0625,14.0625c-7.76656,0 -14.0625,-6.29594 -14.0625,-14.0625c0,-7.7665 6.29594,-14.0625 14.0625,-14.0625zM142.1875,6.24969c7.76656,0 14.0625,6.296 14.0625,14.0625c0,7.76656 -6.29594,14.0625 -14.0625,14.0625c-7.76656,0 -14.0625,-6.29594 -14.0625,-14.0625c0,-7.7665 6.29594,-14.0625 14.0625,-14.0625z" fill-rule="evenodd"></path></svg>