<svg width="100%" viewBox="0 0 200 200" version="1.1" xmlns="http://www.w3.org/2000/svg" xmlns:xlink="http://www.w3.org/1999/xlink"><path d="M98.66542,0.5001c0.3334,-0.3334 0.8335,-0.5001 1.16689,-0.5001c0.6668,0 1.16689,0.1667 1.50029,0.5001c30.67263,23.33787 49.17623,22.83777 86.35012,25.50496c1.00297,0.1667 1.83369,1.00019 2.00317,2.00039c6.83466,46.34234 4.4981,83.18284 -9.50463,111.52168c-14.16942,28.50832 -40.00778,48.34551 -79.51546,60.34785c-0.5001,0.1667 -0.8335,0.1667 -1.33359,0c-39.50768,-12.00511 -65.34604,-31.83952 -79.51546,-60.34785c-14.00272,-28.33884 -16.33651,-65.17934 -9.50185,-111.52168c0.1667,-1.00019 1.00019,-1.83369 2.00039,-2.00039c37.17389,-2.66719 55.67749,-2.16709 86.35012,-25.50496zM185.51564,30.33923c-35.17351,-2.50049 -55.51079,-2.83388 -85.51663,-25.33826c-30.00583,22.50438 -50.34312,22.83777 -85.51663,25.33826c-6.33457,45.00875 -4.00078,80.34896 9.33515,107.35421c13.33593,27.00803 37.84069,45.84225 76.18148,57.68066c38.34079,-11.83841 62.84555,-30.67263 76.18148,-57.68066c13.33315,-27.00525 15.66694,-62.34546 9.33515,-107.35421zM97.99862,44.00856c0.3334,-0.6668 1.16689,-1.16689 2.00039,-1.16689c0.8335,0 1.66699,0.5001 2.00039,1.16689l15.50301,31.33943l34.50671,5.00097c1.83369,0.3334 2.50049,2.50049 1.16689,3.83408l-25.00486,24.33807l6.00117,34.34001c0.1667,1.83369 -1.66421,3.16728 -3.33398,2.33379l-30.83933,-16.16703l-30.83933,16.16703c-1.66699,0.8335 -3.50068,-0.5001 -3.33398,-2.33379l6.00117,-34.34001l-25.00486,-24.33807c-1.33359,-1.33359 -0.6668,-3.50068 1.16689,-3.83408l34.50671,-5.00097zM114.00174,78.34857l-14.00272,-28.33884l-14.00272,28.33884c-0.3334,0.6668 -0.8335,1.16689 -1.66699,1.16689l-31.17273,4.50088l22.50438,22.17098c0.6668,0.50288 0.8335,1.16689 0.6668,1.83369l-5.33437,31.17273l28.00545,-14.66674c0.6668,-0.3334 1.33359,-0.3334 2.00039,0l28.00545,14.66674l-5.33437,-31.17273c-0.1667,-0.6668 0,-1.33081 0.6668,-1.83369l22.50438,-22.17098l-31.17273,-4.50088c-0.8335,0 -1.33359,-0.5001 -1.66699,-1.16689z" fill-rule="evenodd"></path></svg>