<svg width="100%" viewBox="0 0 200 200" version="1.1" xmlns="http://www.w3.org/2000/svg" xmlns:xlink="http://www.w3.org/1999/xlink"><path d="M192.35706,0.97613c-1.23208,-1.23129 -3.20375,-1.307 -4.52667,-0.17375l-22.70041,19.45758l-25.12999,5.58454v-11.50208c0,-4.06012 -2.235,-7.79066 -5.81458,-9.70646c-3.57958,-1.91579 -7.92333,-1.70583 -11.30166,0.54629l-8.06625,5.37762c-0.92708,0.61817 -1.48417,1.65892 -1.48417,2.77342v14.34246c-0.00125,1.55021 0.26917,3.08867 0.79875,4.54558l-18.77416,8.04612l-26.04791,10.85291c-8.04666,3.33708 -17.10916,3.23083 -25.07541,-0.29375c-11.16704,-4.93917 -24.01483,-4.29042 -34.62745,1.74917l-7.92766,4.53c-0.902,0.51542 -1.51208,1.42208 -1.64996,2.45167c-0.13787,1.03 0.21225,2.065 0.94683,2.79958l17.60275,17.6025c2.89967,2.88167 4.29462,6.9475 3.77462,11.00208c-0.70792,5.66458 1.05062,11.36083 4.82879,15.64041c3.77817,4.27958 9.21208,6.73125 14.92083,6.73125c14.62041,0.03208 27.20041,10.34541 30.09916,24.67541l1.19542,5.97833c0.24125,1.20542 1.12625,2.18042 2.30292,2.53667c1.17625,0.35625 2.45333,0.03583 3.32292,-0.83333l20.97625,-20.97625v1.56125l-16.57625,69.61915c-0.23625,0.9925 -0.005,2.03792 0.62708,2.83833c0.63208,0.80042 1.59583,1.26708 2.61583,1.26708h10c1.37208,0 2.60417,-0.84083 3.10417,-2.11875l26.50208,-67.72707l20.53833,67.4829c0.42708,1.40375 1.72167,2.36292 3.18875,2.36292h10c0.97375,0 1.89917,-0.42583 2.5325,-1.16583c0.63333,-0.74 0.91125,-1.72 0.76083,-2.68208l-16.54166,-105.86664l12.64083,-37.92124l18.765,-9.38291c0.51875,-0.25917 0.96083,-0.64958 1.2825,-1.13208l20,-30.0002c0.88167,-1.32208 0.70708,-3.08254 -0.41625,-4.20612zM186.81539,18.76775l-4.47708,-4.47692l7.4875,-6.41775l2.55167,2.55167zM126.58165,10.72913c1.33292,-0.88821 3.04583,-0.97096 4.45792,-0.21529c1.41208,0.75567 2.29375,2.22708 2.29375,3.82858h-12.17125zM174.38414,37.41454l-19.20833,9.60416c-0.79042,0.395 -1.39208,1.08833 -1.67125,1.92708l-12.57375,37.72083h-28.41666l-5.97583,-20.91541c-0.3475,-1.2175 -1.35458,-2.1325 -2.59958,-2.3625c-1.245,-0.23 -2.5125,0.265 -3.27208,1.27792l-10,13.33333c-0.56625,0.755 -0.78583,1.71458 -0.60458,2.64083c0.18167,0.92625 0.74708,1.73208 1.55625,2.2175l3.76333,2.25792l-3.26083,6.52167l-12.12083,-4.04042v-13.255l18.89041,-28.33583l1.68167,-0.72042l10.40416,10.40416c1.01458,1.01458 2.56458,1.26583 3.84792,0.62417l6.66667,-3.33333c1.39708,-0.69875 2.12208,-2.27417 1.74292,-3.78958l-2.37958,-9.51833c5.58,2.70792 12.29041,1.20375 16.18041,-3.62708l6.96542,9.28708c0.96625,1.28917 2.71667,1.7025 4.1575,0.98125l6.66667,-3.33333c1.12917,-0.56458 1.8425,-1.71875 1.8425,-2.98125v-11.02975l10.72291,-2.38292c0.53417,-0.11875 1.03083,-0.36708 1.44667,-0.72308l8.42541,-7.22187l5.7825,5.78246zM119.99999,27.67575v-6.66667h13.33333v6.66667c0,3.68187 -2.98458,6.66667 -6.66667,6.66667c-3.68208,0 -6.66667,-2.98479 -6.66667,-6.66667zM149.99998,30.45162v7.48833l-2.33583,1.1675l-5.23083,-6.97433zM44.86042,40.25204c9.64125,4.265 20.60875,4.39333 30.34749,0.35583l2.74083,-1.14208l-2.56417,-6.15408l-2.74125,1.14217c-8.04666,3.33692 -17.10916,3.23067 -25.07541,-0.29375c-7.88041,-3.48846 -16.70237,-4.23529 -25.05695,-2.12121l1.64471,6.46062c6.90342,-1.74667 14.19308,-1.12958 20.70475,1.7525zM5.0128,40.43912l7.92766,-4.53l3.30771,5.78833l-7.92766,4.53zM116.11791,48.21453l-2.12625,1.06292l-6.82,-6.82l6.78042,-2.90542zM78.71375,136.57201c-3.57958,-17.38166 -18.86375,-29.86666 -36.61041,-29.90541c-3.79667,0 -7.41037,-1.63042 -9.92304,-4.47667c-2.51267,-2.84625 -3.68221,-6.63417 -3.21137,-10.40166c0.78167,-6.09667 -1.31583,-12.21 -5.67567,-16.5425l-14.517,-14.51708l4.13858,-2.36458c8.76904,-4.99 19.385,-5.52625 28.61224,-1.44542c9.64125,4.265 20.60875,4.39333 30.34749,0.35583l15.91166,-6.63l-13.89291,20.83958c-0.365,0.54792 -0.56,1.19125 -0.56,1.84917v16.66666c0,1.435 0.91792,2.70875 2.27917,3.1625l26.83791,8.94583l-2.27917,6.8375c-0.11333,0.34 -0.17125,0.69583 -0.17125,1.05417v5.28583zM98.21749,79.04328l3.755,-5.00667l2.50292,8.76125zM105.99207,91.48286l-1.43375,4.30042l-6.04875,-2.01583l2.60542,-5.21083zM152.46998,193.33325l-22.61458,-74.30373c-0.41292,-1.35792 -1.64125,-2.30542 -3.05958,-2.36042c-1.41833,-0.055 -2.71583,0.79417 -3.23333,2.11625l-29.17083,74.5479h-3.505l15.68958,-65.89457c0.06,-0.25292 0.09042,-0.51208 0.09042,-0.77208v-16.12583l5.73583,-17.2075h28.07791l15.625,99.99998z" fill-rule="evenodd"></path></svg>