<svg width="100%" viewBox="0 0 200 200" version="1.1" xmlns="http://www.w3.org/2000/svg" xmlns:xlink="http://www.w3.org/1999/xlink"><path d="M188.91129,81.65322l8.46774,-23.18548l-28.02419,-38.30645l-27.01613,-20.16128l-42.33871,20.16128l-42.33871,-20.16128l-27.01613,19.95967l-28.02419,38.30645l8.46774,23.18548l-6.65323,24.19355l8.87097,16.53226l-6.45161,15.32258l25.60484,20.3629l11.69355,30.04032l55.64516,12.09677l55.64516,-12.09677l11.69355,-30.04032l25.60484,-20.3629l-6.04839,-15.32258l9.07258,-16.33065zM183.87097,116.12903l-8.46774,-18.14516l5.24194,23.99194l5.84677,14.1129l-20.3629,16.12903l-10.68548,-22.78226l7.05645,26.6129l-10.68548,27.21774l-51.81452,11.49194l-51.81452,-11.29032l-10.68548,-27.41936l6.85484,-26.81452l-10.68548,22.78226l-20.3629,-16.12903l5.84677,-14.1129l5.24194,-23.79032l-8.46774,18.14516l-6.04839,-10.8871l6.45161,-23.3871l9.07258,-30.44355l-11.08871,23.18548l-5.64516,-15.52419l25.80645,-35.28226l23.79032,-17.54032l41.73387,19.95968l41.73387,-19.95968l23.79032,17.54032l25.80645,35.28226l-5.64516,15.52419l-11.49194,-23.3871l9.07258,30.44355l6.45161,23.3871zM148.18549,37.09677l-17.1371,8.66936l23.99194,12.09677l4.6371,16.53226l-8.66936,39.1129l-17.1371,24.19355l3.02419,5.24194l-0.20161,1.6129l-16.12903,20.3629l-2.82258,-1.81452l-6.65323,12.70161h-21.77419l-6.65323,-12.70161l-2.82258,1.81452l-16.12903,-20.3629v-1.81452l3.02419,-5.24194l-17.1371,-24.19355l-8.66936,-39.1129l4.43548,-16.33065l23.79032,-12.09677l-17.94355,-8.87097l-14.1129,8.87097l14.31452,-10.08065l21.77419,8.66936l27.01613,10.28226l26.41129,-10.08065l21.97581,-8.87097l14.31452,10.28226zM132.05645,134.67742l15.92742,-22.58065l8.26613,-37.70161l-3.83065,-14.31452l-24.79839,-12.70161l-27.41936,10.48387l-27.21774,-10.28226l-24.79839,12.5l-3.83065,14.31452l8.26613,37.70161l15.92742,22.58065l4.03226,-7.05645l-5.64516,15.72581l13.70968,17.33871l17.94355,-12.70161v-12.70161l-22.58065,-15.92742h47.78226l-22.17742,15.72581v12.90323l18.14516,12.70161l13.91129,-17.33871l-5.64516,-15.72581zM78.62903,76.6129l0.60484,0.20161l5.64516,8.87097l1.6129,4.6371l-1.00806,14.71774l-1.00806,-13.91129l-3.02419,-4.83871c-1.81452,0.20161 -6.04839,0.80645 -7.45968,0.80645h-0.60484c-0.80645,-0.20161 -8.66936,-2.21774 -9.47581,-2.41935l-0.60484,-0.20161l-8.06452,-12.70161l3.83065,1.00806c0.60484,0 12.09677,2.41935 19.55645,3.83065zM121.37097,76.6129c7.45968,-1.41129 18.95161,-3.62903 19.55645,-3.83065l3.42742,-1.00806l-2.21774,3.42742l-5.84677,9.27419l-0.60484,0.20161c-0.80645,0.40323 -8.66936,2.21774 -9.47581,2.41935h-0.60484c-1.41129,0 -5.44355,-0.60484 -7.45968,-0.80645l-3.02419,4.83871l-1.00806,13.91129l-1.00806,-14.71774l1.6129,-4.6371l6.04839,-8.87097zM65.32258,81.65322c3.42742,1.00806 8.06452,2.01613 8.87097,2.21774c0.80645,0 3.42742,-0.40323 5.44355,-0.60484l-2.41935,-3.62903c-2.41935,-0.40323 -10.28226,-2.01613 -15.12097,-3.02419zM126.00807,83.87096c0.60484,-0.20161 5.24194,-1.41129 8.66936,-2.21774l3.22581,-5.04032c-4.6371,1.00806 -12.5,2.41935 -15.12097,3.02419l-2.41935,3.62903c2.21774,0.40323 4.83871,0.60484 5.64516,0.60484zM86.08871,122.58064l13.91129,9.67742l13.70968,-9.67742zM85.28226,161.29032l5.84677,11.29032h18.14516l5.84677,-11.29032l-14.91936,-10.48387z" fill-rule="evenodd"></path></svg>