<svg width="100%" viewBox="0 0 200 200" version="1.1" xmlns="http://www.w3.org/2000/svg" xmlns:xlink="http://www.w3.org/1999/xlink"><path d="M102.55736,29.35845c0.09292,1.18752 1.08554,2.08722 2.25719,2.08722c0.05892,0 0.12011,-0.00227 0.1813,-0.0068c1.24644,-0.09972 2.17787,-1.18978 2.08042,-2.43849c-0.22889,-2.86455 -0.44419,-5.79935 -0.66175,-8.74774c-0.33087,-4.47359 -0.66175,-8.98797 -1.04021,-13.36184c-0.10651,-1.24644 -1.21018,-2.18694 -2.45209,-2.06229c-1.24644,0.10651 -2.17107,1.20565 -2.06229,2.45209c0.3762,4.35574 0.70707,8.85199 1.03568,13.30745c0.21756,2.9552 0.43512,5.89906 0.66175,8.77041zM185.35044,20.61071c1.05607,-0.67081 1.36882,-2.07136 0.69801,-3.12743c-0.67081,-1.05607 -2.07362,-1.36882 -3.12743,-0.69801c-10.08937,6.40897 -19.9725,16.08134 -27.83187,27.23585c-0.72067,1.02435 -0.47591,2.43849 0.54617,3.15916c0.39659,0.28102 0.85211,0.41472 1.3031,0.41472c0.7116,0 1.41414,-0.33314 1.8538,-0.96089c7.52623,-10.68539 16.95838,-19.92491 26.55824,-26.0234zM35.47848,40.59455c2.90534,2.62432 5.78801,5.22598 8.6231,7.75739c0.43059,0.38526 0.97222,0.57563 1.50933,0.57563c0.62322,0 1.24417,-0.25609 1.69063,-0.75693c0.83398,-0.9337 0.75466,-2.36597 -0.1813,-3.19995c-2.83055,-2.52914 -5.70643,-5.124 -8.60497,-7.74379c-7.5353,-6.8033 -15.32895,-13.83775 -22.89144,-20.1878c-0.95863,-0.80452 -2.38637,-0.67988 -3.19315,0.27875c-0.80452,0.95863 -0.67988,2.38863 0.27875,3.19315c7.5013,6.29792 15.26096,13.30518 22.76906,20.08355zM108.15048,39.83082c-3.55122,-0.56883 -7.09338,-0.85664 -10.52675,-0.85664c-33.59723,0 -53.65358,26.60583 -55.46659,51.63888c-2.5858,35.68445 26.66929,52.74028 52.50459,56.50226c0.08159,0.01133 0.16317,0.01813 0.24476,0.02266c0.86798,0.02946 1.75408,0.02493 2.58126,0.04533c35.204,0 53.3635,-26.037 55.33514,-50.22927c1.93085,-23.66876 -11.22476,-51.63662 -44.67241,-57.12322zM148.30624,96.58464c-1.86966,22.92997 -18.30681,46.06616 -50.8185,46.06389h-0.00907c-0.7524,0 -1.51839,-0.0136 -2.28665,-0.03853c-23.88179,-3.51723 -50.87062,-19.14532 -48.51372,-51.67061c1.66343,-22.99342 20.08582,-47.43498 50.94541,-47.43498c3.19542,0 6.49509,0.26968 9.80155,0.79999c30.77347,5.04695 42.70757,29.89417 40.88097,52.28023zM85.72135,64.09108c0.31048,0.14731 0.63908,0.21529 0.96542,0.21529c0.84985,0 1.66343,-0.48045 2.05096,-1.30083c0.41926,-0.88837 1.2963,-2.4113 2.47475,-2.64699c0.91783,-0.18583 2.2028,0.40339 3.58068,1.65663c0.9269,0.84305 2.36144,0.77506 3.20222,-0.14957c0.84305,-0.9269 0.77506,-2.35917 -0.14957,-3.20222c-3.16143,-2.87814 -5.83561,-3.08664 -7.5149,-2.74897c-1.64077,0.32634 -3.96141,1.48666 -5.69283,5.16026c-0.53484,1.13086 -0.04986,2.48155 1.08327,3.01639zM108.81675,62.93302c0.80679,-0.95863 2.03963,-2.13028 3.33139,-2.02603c1.18525,0.05666 2.54727,1.11726 3.83224,2.98466c0.43965,0.63908 1.14899,0.98129 1.86966,0.98129c0.44192,0 0.89064,-0.12918 1.2827,-0.39886c1.03115,-0.70934 1.29177,-2.12121 0.58243,-3.15236c-2.69911,-3.92289 -5.4866,-4.85205 -7.3472,-4.9427c-1.73595,-0.09745 -4.36254,0.47818 -7.01859,3.63507c-0.80452,0.95636 -0.68214,2.38637 0.27648,3.19315c0.95636,0.80679 2.38637,0.68214 3.19089,-0.27422zM119.99619,77.01099c-1.11953,-0.55976 -2.48155,-0.10878 -3.04131,1.01075c-2.64472,5.27131 -8.84746,8.88145 -15.80033,9.19873c-6.7693,0.33314 -12.76128,-2.56087 -15.94084,-7.68034c-0.66175,-1.06287 -2.05776,-1.39148 -3.12063,-0.72973c-1.06287,0.66175 -1.38921,2.05776 -0.72973,3.12063c3.86396,6.2186 10.8259,9.84234 18.79178,9.84234c0.39886,0 0.80225,-0.00907 1.20791,-0.0272c8.69789,-0.39659 16.22638,-4.87698 19.64616,-11.69614c0.55976,-1.115 0.10651,-2.47702 -1.01302,-3.03905zM198.18424,88.14737c-9.76982,-1.98297 -22.59229,-3.77558 -35.10882,0.05439c-1.19658,0.36713 -1.86966,1.63397 -1.50479,2.83055c0.29915,0.97449 1.19885,1.60224 2.16881,1.60224c0.21983,0 0.44419,-0.03399 0.66401,-0.09972c11.5375,-3.52856 23.63477,-1.82434 32.87882,0.05439c1.23058,0.25155 2.42263,-0.5439 2.67191,-1.76994c0.24929,-1.22604 -0.5439,-2.42263 -1.76994,-2.67191zM32.84283,96.86565c-0.1677,-1.24191 -1.32576,-2.11668 -2.54954,-1.94445c-3.42204,0.46232 -6.92794,0.79319 -10.6378,1.14219c-5.90586,0.5575 -12.01568,1.13313 -17.82636,2.27985c-1.22831,0.24249 -2.0283,1.43454 -1.78581,2.66058c0.21529,1.081 1.16259,1.82887 2.2232,1.82887c0.14504,0 0.29235,-0.0136 0.43965,-0.04306c5.58632,-1.1014 11.58056,-1.66796 17.37538,-2.21413c3.59201,-0.33767 7.30641,-0.68894 10.81683,-1.16259c1.24191,-0.1677 2.11215,-1.30763 1.94445,-2.54727zM161.07206,141.20493c-0.7116,-1.03115 -2.12348,-1.28723 -3.15236,-0.57563c-1.03115,0.7116 -1.28723,2.12348 -0.57563,3.15236c8.15172,11.79586 15.6077,21.67219 22.79399,30.20011c0.44872,0.53257 1.0878,0.80452 1.73368,0.80452c0.51671,0 1.03568,-0.1745 1.45947,-0.53257c0.95636,-0.80679 1.07874,-2.23679 0.27195,-3.19315c-7.09338,-8.41687 -14.46324,-18.18216 -22.53111,-29.85564zM52.83346,147.64562c-8.27636,7.84124 -15.63489,17.30286 -22.3566,26.35654c-0.7456,1.00622 -0.53484,2.42489 0.46911,3.17049c0.40566,0.30141 0.87931,0.44645 1.34842,0.44645c0.69347,0 1.37788,-0.31728 1.82207,-0.91557c6.59933,-8.89052 13.81056,-18.1663 21.83536,-25.76732c0.90877,-0.86118 0.94729,-2.29572 0.08612,-3.20448c-0.86118,-0.90877 -2.29572,-0.94503 -3.20448,-0.08612zM110.48245,157.22282c0,-1.25097 -1.01528,-2.26625 -2.26625,-2.26625c-1.25097,0 -2.26625,1.01528 -2.26625,2.26625c0,2.82829 0.0272,5.66564 0.05212,8.50525c0.08385,8.91545 0.16997,18.1323 -0.61189,26.98883c-0.10878,1.24644 0.81132,2.34784 2.05776,2.45662c0.06799,0.00453 0.13598,0.00907 0.2017,0.00907c1.16259,0 2.15068,-0.88837 2.25492,-2.06682c0.7984,-9.05913 0.71183,-18.37139 0.62821,-27.37749l-0.00045,-0.05099c-0.02266,-2.82602 -0.04986,-5.64977 -0.04986,-8.46446z" fill-rule="evenodd"></path></svg>