<svg width="100%" viewBox="0 0 200 200" version="1.1" xmlns="http://www.w3.org/2000/svg" xmlns:xlink="http://www.w3.org/1999/xlink"><path d="M155.26032,13.18032c-2.48857,-7.62857 -9.68603,-13.18032 -18.11746,-13.18032c-5.76857,0 -10.95968,2.59905 -14.46032,6.68381c-10.10476,0.42794 -18.2381,8.8254 -18.2381,19.03048c0,2.85714 2.22222,5.07937 5.07937,5.07937c2.53968,0 5.07937,-2.22222 5.07937,-5.07937c0,-2.95206 1.39397,-5.47492 3.49619,-7.07079c-0.00286,0.1346 -0.00413,0.26921 -0.00413,0.40413c0,2.85714 2.22222,5.07937 5.07937,5.07937c2.85714,0 5.07937,-2.22222 5.07937,-5.07937c0,-5.07937 4.12698,-8.88889 8.88889,-8.88889c4.38825,0 7.82889,3.08063 8.68381,6.98952c-2.15492,1.69365 -3.94317,3.84698 -5.19175,6.34381c-1.26984,2.53968 -0.31746,5.71429 2.22222,6.98413c2.53968,1.26984 5.71429,0.31746 6.98413,-2.22222c1.5873,-2.85714 4.44444,-4.7619 7.93651,-4.7619c5.07937,0 8.88889,4.12698 8.88889,8.88889v2.22222h-33.83397c-0.35397,-0.03968 -0.71746,-0.04095 -1.08667,0c-6.34921,0.31746 -12.38095,2.53968 -17.46032,5.71429c-9.84127,6.34921 -16.19048,17.14286 -16.8254,28.88889c-0.31746,2.85714 1.90476,5.39683 5.07937,5.39683c2.85714,0 5.07937,-2.22222 5.39683,-5.07937c0.31746,-8.25397 5.07937,-16.19048 12.06349,-20.63492c3.80952,-2.53968 7.93651,-3.80952 12.38095,-4.12698c0.05143,0 0.10254,-0.00095 0.15333,-0.00254c0.0546,0.00159 0.10921,0.00254 0.16413,0.00254h39.04762c2.85714,0 5.07937,-2.22222 5.07937,-5.07937v-7.61905c0,-10.47619 -8.57143,-19.04762 -19.04762,-19.04762c-0.84921,0 -1.68984,0.05587 -2.51746,0.16444zM83.1746,50.79365c0,2.85714 2.22222,5.07937 5.07937,5.07937c2.85714,0 5.07937,-2.22222 5.07937,-5.07937c0,-20 -16.19048,-36.19048 -36.19048,-36.19048c-6.34921,0 -12.38095,1.5873 -17.77778,4.44444c-2.53968,1.26984 -3.1746,4.44444 -1.90476,6.98413c1.26984,2.53968 4.44444,3.1746 6.98413,1.90476c3.80952,-1.90476 8.25397,-3.1746 12.69841,-3.1746c14.28571,0 26.03175,11.74603 26.03175,26.03175zM76.51143,92.45175c0.24762,-8.38571 13.11968,-11.49937 24.12349,-11.49937c11.11111,0 24.12698,3.1746 24.12698,11.74603c-0.02413,0.6473 -0.11873,1.26381 -0.27778,1.85048c2.43365,5.21873 11.21619,22.90889 22.5,40.37175c16.8254,25.39683 32.38095,39.36508 43.49206,39.36508c2.85714,0 5.07937,2.22222 5.07937,5.07937c0,1.69968 -0.78635,3.28698 -2.02508,4.29429c-10.62095,15.53175 -78.90254,16.34063 -93.53048,16.34063c-14.55619,0 -82.23873,-0.80095 -93.36952,-16.11238c-1.33111,-0.90508 -2.18603,-2.43302 -2.18603,-4.20508c0,-2.14349 1.25079,-3.92952 3.0819,-4.68825c0.76222,-0.45143 1.66063,-0.70857 2.63238,-0.70857c0.45683,0 0.90317,0.06159 1.33016,0.17556c10.94381,-1.54317 25.67143,-15.62603 41.52698,-39.8581c13.33333,-20.63492 23.1746,-41.5873 23.1746,-41.5873c0.09778,-0.19587 0.20508,-0.38413 0.32095,-0.56413zM100.63492,94.28571c-5.39683,0 -8.88889,-0.95238 -11.42857,-1.5873c2.22222,-0.95238 6.03175,-1.5873 11.42857,-1.5873c5.39683,0 8.88889,0.95238 11.42857,1.5873c-2.53968,0.95238 -6.03175,1.5873 -11.42857,1.5873zM83.45873,101.3819c4.74921,2.15492 11.23492,3.06254 17.17619,3.06254c5.58,0 11.56063,-0.80063 16.17206,-2.68349c8.11714,16.63397 34.20063,66.5454 61.05651,79.76063c-11.88349,3.71746 -37.98063,8.00222 -77.86349,8.00222c-39.72413,0 -65.95714,-4.25079 -77.85238,-7.95778c27.28349,-13.24921 53.6054,-63.9254 61.31111,-80.18413z" fill-rule="evenodd"></path></svg>