<svg width="100%" viewBox="0 0 200 200" version="1.1" xmlns="http://www.w3.org/2000/svg" xmlns:xlink="http://www.w3.org/1999/xlink"><path d="M110.45537,3.78933c-2.8392,0.27042 -5.55559,1.29289 -8.14916,3.06742c-3.41756,2.37328 -4.93413,5.6739 -4.54972,9.90187c0.38562,4.24276 2.45366,7.40045 6.2041,9.47308c0.05108,0.02818 0.10081,0.05869 0.14919,0.09155c0.32565,0.1097 0.60541,0.24352 0.83928,0.40145c5.15957,2.62899 7.86857,6.52831 8.12701,11.69798c0.35217,7.04383 -3.599,12.11352 -11.8535,15.20905c-0.23583,0.08831 -0.47958,0.12824 -0.73124,0.1198c-0.25166,-0.00859 -0.49209,-0.06495 -0.72129,-0.16908c-0.2292,-0.10428 -0.42978,-0.24842 -0.60172,-0.43241c-0.17194,-0.184 -0.30214,-0.39384 -0.3906,-0.62952c-0.08831,-0.23583 -0.12824,-0.47958 -0.1198,-0.73124c0.00859,-0.25166 0.06495,-0.49209 0.16908,-0.72129c0.10428,-0.2292 0.24842,-0.42978 0.43241,-0.60172c0.184,-0.17194 0.39384,-0.30214 0.62952,-0.3906c6.52259,-2.44589 9.65398,-6.26701 9.39419,-11.46335c-0.18716,-3.74381 -2.24917,-6.59989 -6.18601,-8.56824c-0.07565,-0.03782 -0.14843,-0.08055 -0.21835,-0.12816c-0.34644,-0.11679 -0.64097,-0.26077 -0.88359,-0.43196c-4.84432,-2.72302 -7.51791,-6.85012 -8.02077,-12.3813c-0.51778,-5.69608 1.5446,-10.15614 6.18714,-13.38016c3.1329,-2.14347 6.44423,-3.38138 9.93397,-3.71373c0.2506,-0.02388 0.49623,0.00111 0.73689,0.07498c0.24081,0.07387 0.45826,0.191 0.65235,0.35138c0.19409,0.16037 0.35013,0.35177 0.46813,0.57421c0.11799,0.22245 0.18897,0.45902 0.21293,0.7097c0.01175,0.12411 0.0113,0.24818 -0.00136,0.37222c-0.01251,0.12405 -0.03707,0.24567 -0.07369,0.36485c-0.03662,0.1192 -0.08446,0.23368 -0.14353,0.34344c-0.05922,0.10978 -0.12854,0.21273 -0.20796,0.30884c-0.07926,0.09613 -0.16727,0.18358 -0.26401,0.26236c-0.09659,0.07878 -0.19997,0.14739 -0.31013,0.20581c-0.11016,0.05842 -0.22491,0.10554 -0.34426,0.14134c-0.1195,0.0358 -0.24133,0.05962 -0.36551,0.07145zM143.68313,10.79652c-2.83935,0.27042 -5.55574,1.2929 -8.14916,3.06744c-3.41756,2.37326 -4.93413,5.67389 -4.54972,9.90187c0.38577,4.24276 2.45381,7.40045 6.2041,9.47308c0.05108,0.02818 0.10081,0.05869 0.14919,0.09155c0.32565,0.1097 0.60541,0.24352 0.83928,0.40145c5.15957,2.62899 7.86857,6.52824 8.12701,11.69775c0.35217,7.04398 -3.599,12.11374 -11.8535,15.20927c-0.23583,0.08831 -0.47958,0.12824 -0.73124,0.1198c-0.25166,-0.00859 -0.49209,-0.06495 -0.72129,-0.16908c-0.2292,-0.10428 -0.42978,-0.24842 -0.60172,-0.43241c-0.17194,-0.184 -0.30214,-0.39384 -0.3906,-0.62952c-0.08831,-0.23583 -0.12824,-0.47958 -0.1198,-0.73124c0.00859,-0.25166 0.06495,-0.49209 0.16908,-0.72129c0.10428,-0.2292 0.24842,-0.42978 0.43241,-0.60172c0.184,-0.17194 0.39384,-0.30214 0.62952,-0.3906c6.52259,-2.44589 9.65398,-6.26709 9.39419,-11.46358c-0.18716,-3.74366 -2.24917,-6.59967 -6.18601,-8.56802c-0.07565,-0.03782 -0.14843,-0.08055 -0.21835,-0.12816c-0.34644,-0.11679 -0.64097,-0.26077 -0.88359,-0.43196c-4.84432,-2.72302 -7.51791,-6.85012 -8.02077,-12.3813c-0.51778,-5.69604 1.5446,-10.15609 6.18714,-13.38016c3.1329,-2.14347 6.44423,-3.38139 9.93397,-3.71376c0.2506,-0.02387 0.49623,0.00113 0.73689,0.075c0.24081,0.07387 0.45826,0.19099 0.65235,0.35136c0.19409,0.16037 0.35013,0.35178 0.46813,0.57423c0.11799,0.22245 0.18897,0.45901 0.21293,0.70967c0.02381,0.25068 -0.00121,0.49637 -0.07505,0.73709c-0.07384,0.24072 -0.19093,0.45814 -0.35126,0.65228c-0.16049,0.19412 -0.35194,0.35018 -0.57437,0.46817c-0.22242,0.11798 -0.45901,0.1889 -0.70976,0.21277zM104.38486,26.55086c-0.08333,-0.08333 -0.17367,-0.1583 -0.27102,-0.22491c0.05877,0.02803 0.14911,0.103 0.27102,0.22491zM102.60367,29.68829c0.08333,0.08333 0.17367,0.1583 0.27102,0.22491c-0.05877,-0.02803 -0.14911,-0.103 -0.27102,-0.22491zM137.61262,33.55808c-0.08333,-0.08333 -0.17367,-0.1583 -0.27102,-0.22491c0.05877,0.02803 0.14911,0.103 0.27102,0.22491zM135.83143,36.6955c0.08333,0.08333 0.17367,0.1583 0.27102,0.22491c-0.05877,-0.02803 -0.14911,-0.103 -0.27102,-0.22491zM195.26618,68.26391c1.61799,0 2.81019,0.40393 3.57662,1.2118c0.68972,0.72724 1.03458,1.78164 1.03458,3.16319c0.19364,35.30551 -7.49071,63.09228 -23.05306,83.36031c-8.76188,11.41136 -18.31256,18.96318 -28.65205,22.65546c-0.64692,0.21579 -1.37447,0.32369 -2.18263,0.32369h-51.76297c-0.57761,0 -1.26077,-0.14135 -2.0495,-0.42405c-0.15853,-0.05666 -0.27825,-0.09855 -0.35918,-0.12568l-0.08589,-0.02848l-0.08273,-0.03662c-7.20116,-3.18956 -13.65608,-7.40052 -19.36478,-12.63288l-1.27803,-0.8698c-10.46411,-7.12144 -20.28634,-10.18005 -29.46669,-9.17583c-7.46442,0.79973 -13.97683,-0.08363 -19.53725,-2.65008c-12.18829,-5.59989 -19.17627,-14.19699 -20.96394,-25.7913c-1.6042,-7.44543 -1.10963,-14.96975 1.48372,-22.57295c5.15079,-15.10123 17.8834,-23.22304 38.19784,-24.36544c-0.03677,-2.55228 -0.01319,-5.11527 0.07075,-7.68895c0.011,-2.90159 1.47272,-4.35238 4.38516,-4.35238zM66.0077,153.11608l5.24434,6.24343c6.23898,6.62867 13.52475,11.79435 21.85731,15.49702c0.09479,0.03255 0.21097,0.07346 0.34855,0.12274c0.37462,0.13427 0.63088,0.2014 0.76876,0.2014h51.76297c0.39738,0 0.72468,-0.04287 0.98191,-0.12862c9.58602,-3.42404 18.53288,-10.54593 26.84057,-21.36568c15.03372,-19.57967 22.45632,-46.58856 22.2678,-81.02669c0,-0.39873 -0.27125,-0.5981 -0.81374,-0.5981h-150.09002c-0.3918,0 -0.5877,0.1959 -0.5877,0.5877v0.03119l-0.0009,0.03097c-0.5434,16.57545 1.47521,32.68949 6.05582,48.3421c3.70659,12.66513 8.82804,23.35264 15.36434,32.06253zM6.11674,105.89672c4.53062,-13.28312 15.86267,-20.5328 33.99614,-21.74904v7.58881c-2.92374,0.35383 -5.99124,1.14172 -9.20251,2.36369c-8.26866,3.14601 -13.67846,8.29036 -16.22939,15.43305c-3.47892,9.63379 -1.60551,18.19736 5.62024,25.69071c1.67525,1.67555 3.3777,3.05386 5.10736,4.13493c3.62838,2.34794 8.19558,3.79723 13.70159,4.34786c10.09792,0.80801 17.43418,3.97264 22.00876,9.49387l1.76356,2.09945c0.22574,0.30184 0.45276,0.60104 0.68106,0.8976c-7.7643,-3.64541 -15.2431,-5.07473 -22.43642,-4.28796c-6.76339,0.72468 -12.60779,-0.04958 -17.53318,-2.32278c-10.97264,-5.04158 -17.24263,-12.69979 -18.80999,-22.97462l-0.00891,-0.05832l-0.01252,-0.05787c-1.46999,-6.7762 -1.01859,-13.64267 1.35422,-20.5994zM186.31503,88.69808c0,6.35682 -0.92895,13.66309 -2.78684,21.91879c-3.73191,16.58163 -10.28795,29.75595 -19.66812,39.52295c-0.08635,0.08996 -0.18068,0.17058 -0.283,0.24186c-0.10217,0.07143 -0.21037,0.13216 -0.32459,0.18219c-0.11423,0.05003 -0.23222,0.08838 -0.35398,0.11505c-0.12176,0.02682 -0.24495,0.04152 -0.36957,0.04408c-0.12477,0.00256 -0.24849,-0.00708 -0.37116,-0.02893c-0.12281,-0.02185 -0.24224,-0.05553 -0.35827,-0.10104c-0.11618,-0.04536 -0.22679,-0.10157 -0.33183,-0.16863c-0.10503,-0.06721 -0.20253,-0.14399 -0.29249,-0.23033c-0.08996,-0.08635 -0.17058,-0.18068 -0.24186,-0.283c-0.07143,-0.10217 -0.13216,-0.21037 -0.18219,-0.32459c-0.05003,-0.11423 -0.08838,-0.23222 -0.11505,-0.35398c-0.02682,-0.12176 -0.04152,-0.24495 -0.04408,-0.36957c-0.00256,-0.12462 0.00716,-0.24834 0.02916,-0.37116c0.0217,-0.12281 0.0553,-0.24224 0.10081,-0.35827c0.04536,-0.11618 0.10157,-0.22679 0.16863,-0.33183c0.06721,-0.10503 0.14399,-0.20253 0.23033,-0.29249c8.89133,-9.25796 15.12534,-21.83328 18.70203,-37.72594c1.79626,-7.98144 2.69439,-15.00983 2.69439,-21.08516c0,-0.12462 0.01221,-0.24812 0.03662,-0.37048c0.02426,-0.12221 0.06028,-0.24096 0.10805,-0.35624c0.04777,-0.11513 0.10624,-0.22453 0.17541,-0.32821c0.06932,-0.10368 0.14806,-0.19959 0.23621,-0.28775c0.08816,-0.08816 0.18407,-0.16689 0.28775,-0.23621c0.10368,-0.06917 0.21308,-0.12764 0.32821,-0.17541c0.11528,-0.04777 0.23403,-0.08379 0.35624,-0.10805c0.12236,-0.02441 0.24586,-0.03662 0.37048,-0.03662c0.12462,0 0.24812,0.01221 0.37048,0.03662c0.12221,0.02426 0.24096,0.06028 0.35624,0.10805c0.11513,0.04777 0.22453,0.10624 0.32821,0.17541c0.10368,0.06932 0.19959,0.14806 0.28775,0.23621c0.08816,0.08816 0.16689,0.18407 0.23621,0.28775c0.06917,0.10368 0.12764,0.21308 0.17541,0.32821c0.04777,0.11528 0.08379,0.23403 0.10805,0.35624c0.02426,0.12236 0.03639,0.24586 0.03639,0.37048zM39.48811,139.92783c6.44513,0.51552 11.90533,1.94838 16.38061,4.29859c-3.52802,-6.58663 -6.48469,-13.95543 -8.87,-22.10641c-2.56585,-8.76716 -4.34734,-17.67468 -5.34447,-26.72258c-2.93203,0.23433 -6.0632,0.985 -9.39351,2.25203c-7.17735,2.73101 -11.84513,7.11797 -14.00335,13.16091c-2.9465,8.15971 -1.35397,15.41889 4.77756,21.77752c1.43912,1.43881 2.90121,2.62228 4.38629,3.5504c3.14797,2.03676 7.17026,3.29995 12.06688,3.78955zM163.98168,200h-86.48192c-0.8258,0 -1.49939,-0.26077 -2.02079,-0.78232l-0.04137,-0.04137l-8.59469,-9.72556c-0.99186,-1.02155 -1.04325,-2.06577 -0.15416,-3.13268c0.53647,-0.64376 1.27697,-0.96564 2.22151,-0.96564h102.84783c1.04536,0 1.83642,0.42932 2.37319,1.28797c0.69575,1.11332 0.58431,2.13517 -0.33431,3.06554zM69.63179,186.87142c0.02532,0.02728 0.04928,0.05448 0.07188,0.0816zM169.07976,189.15012l-6.72421,7.0522h-84.47808l-6.23235,-7.0522z" fill-rule="evenodd"></path></svg>