<svg width="100%" viewBox="0 0 200 200" version="1.1" xmlns="http://www.w3.org/2000/svg" xmlns:xlink="http://www.w3.org/1999/xlink"><path d="M166.51111,107.95c3.53333,-3.78889 8.55333,-6.17556 14.13333,-6.17556c10.67111,0 19.35556,8.68222 19.35556,19.35556v45.16h-0.00222c0,10.67333 -8.68222,19.35556 -19.35333,19.35556c-5.57778,0 -10.59778,-2.38444 -14.13333,-6.17333c-2.74222,7.36 -9.82,12.62667 -18.12444,12.62667c-10.67111,0 -19.35556,-8.68222 -19.35556,-19.35556v-145.48667c0,-7.11556 -5.78667,-12.90444 -12.90222,-12.90444c-7.11556,0 -12.90222,5.78889 -12.90222,12.90444l-0.00444,87.42h-6.45111v-80.96889c0,-7.11556 -5.78667,-12.90444 -12.90222,-12.90444c-7.11556,0 -12.90444,5.78889 -12.90444,12.90444v104.93556l-5.50667,2.28222l-36.98,-36.98222c-2.43778,-2.43778 -5.67778,-3.78 -9.12444,-3.78c-3.44667,0 -6.68889,1.34222 -9.12444,3.77778c-2.43556,2.43556 -3.77778,5.67778 -3.77778,9.12444c0,3.44444 1.34222,6.68444 3.78,9.12222l64.40444,64.4l-4.56222,4.56444l-64.40444,-64.40222c-3.65556,-3.65556 -5.66889,-8.51778 -5.66889,-13.68667c0,-5.17111 2.01333,-10.03111 5.66889,-13.68667c3.65556,-3.65556 8.51556,-5.66889 13.68444,-5.66889c5.17111,0 10.03111,2.01333 13.68667,5.67111l31.47333,31.47333v-97.14222c0,-10.67333 8.68444,-19.35556 19.35556,-19.35556c5.58,0 10.6,2.38667 14.13556,6.17556c2.74222,-7.36 9.82222,-12.62889 18.12444,-12.62889c10.67333,0 19.35556,8.68222 19.35556,19.35556v73.03556c3.42889,-3.07778 7.94444,-4.96889 12.90222,-4.96889c8.30444,0 15.38222,5.26667 18.12444,12.62667zM135.48222,172.74333c0,7.11778 5.78889,12.90444 12.90222,12.90444c7.11556,0 12.90444,-5.78889 12.90444,-12.90444v-58.06444c0,-7.11778 -5.78889,-12.90667 -12.90444,-12.90667c-7.11556,0 -12.90222,5.79111 -12.90222,12.90667zM180.64222,179.19667c7.11556,0 12.90222,-5.78889 12.90222,-12.90444h0.00222v-45.16222c0,-7.11778 -5.78667,-12.90444 -12.90222,-12.90444c-7.11556,0 -12.90222,5.78889 -12.90222,12.90444h-0.00444v45.16222c0,7.11778 5.78889,12.90444 12.90444,12.90444z" fill-rule="evenodd"></path></svg>