<svg width="100%" viewBox="0 0 200 200" version="1.1" xmlns="http://www.w3.org/2000/svg" xmlns:xlink="http://www.w3.org/1999/xlink"><path d="M189.85255,55.61753c3.5506,0.22191 6.43546,1.7753 8.21076,4.21633c3.5506,5.10398 2.21912,12.42709 -3.99442,18.19681c-3.5506,3.5506 -7.10119,10.65179 -10.8737,18.19681c-4.66016,9.32032 -9.54223,19.08446 -15.75578,24.63227c-3.77251,3.32868 -7.32311,6.87928 -11.09562,10.65179c-9.76414,9.76414 -20.63785,20.63785 -37.7251,28.8486c-6.65737,3.32868 -13.98048,4.88207 -21.08167,4.88207c-5.3259,0 -10.8737,-1.10956 -16.1996,-2.88486c-12.20518,-4.21633 -21.96932,-13.09283 -27.51713,-24.63227c-2.44104,-5.10398 -3.77251,-8.87649 -5.10398,-12.20518c-1.7753,-5.3259 -3.32868,-9.54223 -7.98884,-16.1996c-6.21355,-9.09841 -24.85418,-34.84024 -33.95259,-47.26733c-2.21912,-3.10677 -3.77251,-5.3259 -4.43825,-6.21355c-3.77251,-5.10398 -2.88486,-11.76135 1.99721,-15.31195c5.10398,-3.5506 11.31753,-2.88486 15.31195,1.7753c1.55339,1.7753 13.75856,16.86534 24.41036,29.95816c0,-0.88765 0,-1.99721 0.22191,-2.88486c0.88765,-3.99442 3.32868,-7.54502 6.87928,-9.76414c2.88486,-1.7753 5.99163,-2.66295 8.87649,-2.66295c2.88486,0 5.54781,0.88765 7.98884,2.66295c0.22191,-1.10956 0.44382,-1.99721 0.66574,-3.10677c1.33147,-3.99442 4.21633,-7.32311 8.21076,-9.32032c2.88486,-1.33147 5.54781,-1.99721 8.21076,-1.99721c2.88486,0 5.3259,0.66574 7.54502,2.21912c0.22191,-1.33147 0.44382,-2.66295 1.10956,-3.99442c1.7753,-3.5506 4.66016,-6.21355 8.65458,-7.54502c1.99721,-0.66574 3.99442,-1.10956 5.76972,-1.10956c5.99163,0 10.65179,3.77251 12.649,9.98605c1.10956,3.5506 2.21912,7.76693 3.5506,12.20518c1.55339,4.88207 2.88486,9.98605 4.21633,14.20239l0.66574,3.32868c1.10956,2.88486 1.99721,4.88207 2.88486,6.43546c3.99442,7.32311 11.53944,9.98605 18.64064,6.65737c3.99442,-1.99721 6.87928,-6.43546 10.20797,-11.31753c3.99442,-6.21355 8.43267,-13.09283 16.64342,-17.53107c4.43825,-2.44104 8.43267,-3.32868 12.20518,-3.10677zM103.97248,40.08367c-2.66295,1.10956 -4.66016,2.88486 -5.76972,5.10398c-0.88765,2.21912 -1.10956,4.88207 -0.22191,7.32311c2.21912,5.54781 4.66016,11.31753 6.87928,16.42151c1.33147,3.10677 2.66295,6.21355 3.77251,8.87649c1.55339,3.77251 3.77251,5.76972 6.87928,5.76972c1.10956,0 2.21912,-0.22191 3.5506,-0.66574c5.3259,-1.7753 6.87928,-4.88207 5.10398,-10.42988c-1.33147,-4.21633 -2.88486,-9.32032 -4.21633,-14.20239c-1.33147,-4.43825 -2.44104,-8.65458 -3.5506,-12.20518c-1.33147,-4.21633 -4.21633,-6.65737 -8.21076,-6.65737c-1.33147,0 -2.88486,0.22191 -4.21633,0.66574zM179.20076,93.78645c3.99442,-7.98884 7.76693,-15.53386 11.98327,-19.52829c4.66016,-4.43825 4.66016,-9.09841 2.44104,-11.53944c-2.44104,-3.32868 -7.98884,-3.10677 -14.20239,0.22191c-7.10119,3.99442 -11.09562,9.98605 -15.09004,15.97769c-3.5506,5.3259 -7.10119,10.42988 -12.20518,12.87092c-9.32032,4.43825 -19.7502,0.88765 -24.85418,-8.65458c0,0 -0.44382,-0.22191 -0.44382,-0.44382c-1.33147,1.99721 -3.99442,3.77251 -7.54502,4.88207c-1.7753,0.66574 -3.99442,0.88765 -6.21355,0.88765c0,0 -1.10956,0 -2.21912,-0.44382c0.66574,5.76972 -0.88765,10.20797 -7.10119,13.31474c-2.44104,1.33147 -4.88207,1.7753 -7.10119,1.7753c-2.66295,0 -4.88207,-0.66574 -6.65737,-1.99721c-0.22191,3.99442 -2.44104,7.32311 -6.65737,9.98605c-2.44104,1.55339 -5.10398,2.44104 -7.54502,2.44104c-4.21633,0 -7.98884,-2.44104 -11.31753,-7.10119c-0.88765,-1.33147 -1.7753,-2.66295 -2.88486,-4.21633c-1.7753,-2.44104 -3.77251,-5.10398 -5.54781,-7.76693c-1.55339,-1.99721 -37.28127,-46.15777 -39.94422,-49.26454c-2.44104,-2.88486 -5.99163,-3.32868 -8.87649,-1.10956c-2.66295,1.99721 -3.10677,5.54781 -0.88765,8.65458c0.66574,1.10956 2.21912,3.10677 4.43825,6.21355c9.09841,12.42709 27.96095,38.39083 34.1745,47.48924c4.88207,7.32311 6.65737,11.98327 8.65458,17.30916c1.33147,3.32868 2.66295,7.10119 4.88207,11.76135c5.10398,10.42988 13.75856,18.19681 24.85418,22.19123c11.09562,3.99442 22.85697,3.32868 33.50876,-1.7753c16.42151,-7.98884 26.62948,-18.19681 36.39362,-27.96095c3.77251,-3.77251 7.32311,-7.54502 11.31753,-10.8737c5.54781,-4.88207 10.20797,-14.20239 14.64621,-23.30079zM79.34021,50.95737c-2.88486,1.55339 -4.88207,3.77251 -5.76972,6.65737c-0.88765,2.88486 -0.66574,5.76972 0.66574,8.43267c3.99442,7.54502 8.43267,15.31195 12.42709,22.19123c1.10956,1.55339 1.7753,3.10677 2.66295,4.43825c2.21912,3.77251 4.66016,5.54781 7.76693,5.54781c1.55339,0 3.10677,-0.44382 4.88207,-1.33147c5.76972,-2.88486 7.10119,-6.43546 4.21633,-12.649c-1.99721,-4.43825 -4.21633,-9.98605 -6.43546,-15.09004c-1.99721,-4.88207 -3.77251,-9.54223 -5.54781,-13.31474c-1.99721,-4.21633 -4.88207,-6.43546 -8.87649,-6.43546c-1.99721,0 -3.99442,0.44382 -5.99163,1.55339zM54.04221,63.38447c-2.44104,1.55339 -3.99442,3.99442 -4.66016,6.65737c-0.66574,2.88486 0,5.76972 1.33147,8.21076c4.88207,7.10119 9.98605,14.64621 14.64621,21.08167c0.88765,1.55339 1.99721,2.88486 2.88486,4.21633c2.44104,3.10677 4.88207,4.88207 7.54502,4.88207c1.55339,0 3.32868,-0.66574 5.10398,-1.7753c5.10398,-3.10677 5.76972,-6.87928 2.44104,-12.649c-2.44104,-3.99442 -5.10398,-9.32032 -7.76693,-14.20239c-2.44104,-4.66016 -4.88207,-9.09841 -6.87928,-12.649c-1.99721,-3.77251 -5.10398,-5.76972 -8.43267,-5.76972c-1.99721,0 -4.21633,0.66574 -6.21355,1.99721z" fill-rule="evenodd"></path></svg>