<svg width="100%" viewBox="0 0 200 200" version="1.1" xmlns="http://www.w3.org/2000/svg" xmlns:xlink="http://www.w3.org/1999/xlink"><path d="M183.06714,55.39551c-0.5177,1.01902 -1.04358,2.04009 -1.57969,3.05911c-0.27419,0.50951 -0.54225,1.01902 -0.8144,1.52853c-2.02372,4.43827 -5.07055,8.23607 -7.42576,12.60886c-0.26192,0.45426 -0.5177,0.90648 -0.77552,1.3587c-0.30693,0.54634 -0.61796,1.09473 -0.93308,1.6554c-0.54839,0.91262 -1.07222,1.83342 -1.57969,2.76036c-0.51156,0.92694 -1.00061,1.85798 -1.49784,2.79106c-2.16491,3.88579 -3.77325,7.86366 -6.43334,11.35657c-0.63024,0.83691 -1.3014,1.64108 -2.01144,2.4125c-2.13217,2.31224 -4.61834,4.32982 -7.28457,6.11618c-0.45017,0.31103 -0.89625,0.61387 -1.35256,0.91262c-2.72967,1.78636 -5.58211,3.30466 -8.6842,4.32982c-0.64456,0.22304 -1.30549,0.42971 -1.97666,0.61387c-0.50133,0.13914 -1.00879,0.26601 -1.52239,0.3806c-1.84774,0.40925 -3.73437,0.66707 -5.62713,0.74892c-0.63228,0.0266 -1.26252,0.03069 -1.89276,0.01637c-2.49231,-0.01228 -4.93346,-0.34581 -7.2989,-0.94536c-0.47063,-0.12073 -0.94331,-0.25169 -1.40781,-0.39083c-3.67503,-1.03744 -6.86919,-3.05297 -10.00401,-5.1299c-0.40925,-0.28033 -0.81849,-0.55657 -1.22978,-0.83282c-2.87904,-1.91936 -5.81947,-3.73028 -8.89905,-5.33656c-0.47268,-0.24759 -0.94536,-0.49314 -1.41804,-0.7346c-1.89072,-0.96787 -3.78348,-1.92755 -5.64964,-2.94248c-0.60364,-0.31512 -1.195,-0.63228 -1.77817,-0.96377c-0.67321,-0.2967 -1.35256,-0.59545 -2.02167,-0.90239c-0.85942,-0.39697 -1.71065,-0.82054 -2.55165,-1.27071c0.44812,-0.33354 0.86555,-0.70186 1.25025,-1.10906c0.45426,-0.53816 0.84918,-1.10701 1.19091,-1.69018c2.31428,-3.46222 2.31428,-7.80432 1.26048,-11.53868c-0.14528,-0.53407 -0.2701,-1.06404 -0.37446,-1.59197c-0.10436,-0.52997 -0.1903,-1.05585 -0.25782,-1.57969c-0.66912,-2.2705 -0.43585,-4.68545 -0.20606,-7.06501c0.11172,-1.15653 0.22263,-2.30487 0.22856,-3.42395c0,-0.22918 0,-0.45631 -0.01023,-0.68139c-0.01228,-0.487 -0.06548,-0.97605 -0.14937,-1.45691c-0.27624,-1.84161 -1.28299,-3.6914 -2.79515,-4.86798c3.19212,0.16779 6.38423,1.17658 9.25509,2.4698c0.48496,0.21076 0.96377,0.42766 1.43645,0.65684c0.47063,0.22918 0.93717,0.46859 1.39757,0.71823c0.4604,0.22099 0.92285,0.44403 1.38325,0.67116c0.4604,0.22713 0.91876,0.45836 1.37916,0.69367c0.49928,0.22509 0.99856,0.44608 1.50602,0.65684c0.50337,0.21281 1.01084,0.41743 1.52239,0.60978c0.36832,0.08594 0.73869,0.15551 1.1111,0.21281c1.12338,0.17188 2.25085,0.22509 3.32921,0.25169c0.56885,-0.00205 1.13975,-0.02865 1.71269,-0.06957c2.85244,-0.21281 5.69261,-0.87169 8.43046,-1.55513c0.61182,-0.14733 1.22364,-0.30489 1.83137,-0.47063c0.50746,-0.13914 1.01493,-0.28238 1.52239,-0.43175c0.50337,-0.14937 1.00879,-0.3008 1.50807,-0.4604c0.56476,-0.20053 1.13566,-0.39083 1.70246,-0.57499c0.56476,-0.18211 1.1377,-0.35809 1.70451,-0.53202c4.29708,-1.16226 8.66169,-3.01 12.77256,-4.98461c0.57499,-0.27215 1.1377,-0.55044 1.69428,-0.83486c4.54467,-2.64373 9.55589,-4.63266 13.8632,-7.69177c0.44812,-0.33763 0.88806,-0.68958 1.31982,-1.06404c0.43175,-0.37446 0.84509,-0.77347 1.24615,-1.19704c0.30284,-0.36423 0.57704,-0.75301 0.81031,-1.16635c0.46654,-0.82872 0.76324,-1.75976 0.84305,-2.82993c-0.12687,-0.45222 -0.36014,-0.83282 -0.73255,-1.07018c-0.2967,-0.1903 -0.68139,-0.28852 -1.16021,-0.25578c-0.54839,0.09413 -1.08246,0.22713 -1.59606,0.38674c-0.51974,0.15961 -1.02107,0.34991 -1.51626,0.56067c-1.91322,0.83486 -3.69754,2.10148 -5.51663,3.31898c-0.44403,0.31103 -0.88806,0.62205 -1.33414,0.92694c-0.36218,0.27419 -0.72846,0.5443 -1.09678,0.8144c-0.36832,0.26806 -0.74073,0.53611 -1.10906,0.79803c-0.37855,0.26396 -0.75097,0.52383 -1.13156,0.78166c-0.83895,0.58318 -1.70246,1.14589 -2.59666,1.67382c-0.44199,0.26396 -0.89216,0.51974 -1.35256,0.76734c-4.92118,2.7665 -10.38256,4.27048 -15.89306,5.40409c-0.61182,0.12482 -1.22364,0.24759 -1.83547,0.36423c-0.67137,0.15183 -1.33967,0.31 -2.00633,0.46777c-3.45731,0.81788 -6.8784,1.62716 -10.51659,1.51912c-0.37651,0.01023 -0.75097,0.01023 -1.12747,-0.00205c-0.75097,-0.02251 -1.49784,-0.08799 -2.24676,-0.19235c-0.49519,-0.06957 -0.98833,-0.15551 -1.48352,-0.25987c-0.59136,-0.15756 -1.17454,-0.33149 -1.75771,-0.5136c-0.49928,-0.15961 -0.99447,-0.33354 -1.4917,-0.51565c-0.48291,-0.19235 -0.97196,-0.39083 -1.45896,-0.59545c-0.487,-0.20258 -0.97605,-0.41129 -1.46305,-0.62001c-0.83793,-0.30612 -1.74073,-0.68303 -2.68465,-1.07713c-4.8379,-2.02024 -10.75989,-4.49311 -14.60189,-0.19562c-0.27419,0.40311 -0.48496,0.85328 -0.62001,1.35256c-3.93899,-1.44873 -8.23198,-1.99098 -12.20985,-3.6341c-0.50133,-0.15551 -0.99856,-0.31103 -1.49375,-0.47473c-2.47184,-0.82463 -4.88844,-1.83342 -7.45646,-2.60894c-0.92899,-0.27829 -1.86616,-0.5177 -2.8197,-0.69981c-0.95764,-0.17802 -1.93164,-0.29875 -2.9302,-0.34172c-0.49723,-0.00409 -0.99651,0.01228 -1.4917,0.04706c-2.20379,0.12073 -4.17431,1.20523 -5.76423,2.44524c-0.31717,0.25169 -0.61387,0.47473 -0.88192,0.62205c-0.26806,0.14528 -0.50746,0.21281 -0.70186,0.14528c-0.60159,-0.10845 -1.17044,-0.2701 -1.71679,-0.47677c-0.27215,-0.10231 -0.5402,-0.21895 -0.80212,-0.34377c-0.29056,-0.12073 -0.57704,-0.25373 -0.85942,-0.39083c-0.28443,-0.13914 -0.56271,-0.28443 -0.83691,-0.43789c-2.91383,-1.4651 -5.26699,-3.92467 -6.28397,-7.04107c-0.08594,-0.32126 -0.14528,-0.65479 -0.18007,-1.0047c-0.06343,-0.354 -0.10436,-0.71413 -0.12277,-1.07632c-0.05116,-1.08655 0.11459,-2.1956 0.5136,-3.25555c0.05525,-0.23122 0.10845,-0.46245 0.15551,-0.69367c0.13914,-0.69367 0.21895,-1.38734 0.11254,-2.08511c-0.06343,-0.33354 -0.13914,-0.65889 -0.22509,-0.98014c0.00798,-0.47227 -0.21342,-0.90771 -0.42766,-1.32964c-0.11725,-0.23081 -0.23245,-0.45754 -0.30693,-0.68385c-0.44199,-0.88397 -0.92899,-1.75157 -1.40985,-2.62327c-0.15961,-0.29466 -0.32126,-0.58522 -0.48086,-0.88192c-0.17393,-0.31103 -0.34377,-0.62615 -0.51156,-0.94331c-0.16574,-0.31717 -0.3274,-0.63433 -0.48496,-0.95354c-0.48086,-1.04358 -0.99242,-2.08306 -1.48147,-3.12868c-0.1637,-0.34991 -0.3233,-0.69981 -0.47882,-1.05381c-0.83895,-1.83956 -1.39144,-3.74869 -1.7659,-5.69465c-0.07366,-0.38878 -0.14119,-0.77961 -0.20462,-1.17454c-0.46654,-2.18537 -0.29466,-4.46692 -0.66502,-6.62978c-0.0532,-0.30898 -0.11868,-0.61591 -0.19644,-0.91876c-0.12687,-1.02925 -0.66298,-2.09738 -1.62471,-2.20583c-0.74892,0 -1.28299,0.96377 -1.49375,1.7659c-0.07366,0.28647 -0.12277,0.59136 -0.15551,0.90648c-0.06343,0.63024 -0.05729,1.3014 -0.03274,1.96847c0.01432,0.39901 0.03479,0.80008 0.05116,1.18886c0.02046,3.08776 0.32535,6.08753 0.87169,9.04433c0.06139,0.32944 0.12687,0.65889 0.19235,0.98628c0.56476,3.28624 1.95619,6.49473 3.40492,9.44744c0.15142,0.35604 0.29875,0.71413 0.43175,1.07632c0.133,0.36423 0.25782,0.73255 0.36627,1.10496c0.02374,0.07121 0.04747,0.14139 0.0708,0.21035c0.18641,0.55044 0.35072,1.03519 0.30161,1.58624c0.02455,0.34991 0.03069,0.70595 0.01023,1.06199c-0.10231,0.36423 -0.20053,0.7305 -0.29466,1.09882c-0.09003,0.36832 -0.17802,0.73869 -0.24964,1.12543c-0.48086,2.94043 -0.37446,5.93406 0.84918,8.72717c0.12891,0.33149 0.26806,0.65684 0.41538,0.98014c0.89011,1.92755 2.10148,3.65047 3.66684,5.06442c-2.32656,0.55862 -4.51398,1.98075 -6.38833,4.52421c-1.02107,1.3853 -1.81705,2.91997 -2.46161,4.54877c-0.77143,1.38939 -1.33414,2.86472 -1.78227,4.38507c-0.22304,0.75915 -0.41538,1.53058 -0.59341,2.30405c-0.12073,0.60773 -0.2435,1.21751 -0.36627,1.82524c-0.56271,2.58029 -1.10087,5.29359 -1.67382,7.8923c-0.10436,0.40106 -0.2169,0.79598 -0.33763,1.18681c-0.29261,1.20932 -0.59136,2.41455 -0.90034,3.61773c-0.15551,0.60159 -0.31307,1.20318 -0.47473,1.80887c-0.68753,2.79106 -1.64721,5.45729 -2.64373,8.09897c-0.20053,0.52997 -0.40106,1.0579 -0.60568,1.58787c-2.16082,5.6967 -4.48738,11.1233 -5.23425,17.08601c-0.06343,0.63433 -0.10436,1.27685 -0.11664,1.92755c-0.07571,3.87965 0.86351,7.77976 2.83198,11.46093c0.13505,0.31921 0.21281,0.6773 0.26806,1.06609c0.01432,0.60773 0.07162,1.20727 0.16984,1.79659c0.09822,0.59341 0.24145,1.17658 0.42357,1.74748c0.93103,2.80538 2.54142,5.1565 4.81887,6.79348c0.32126,0.29875 0.64456,0.59341 0.974,0.88602c1.32391,1.10906 2.67647,2.19151 4.05358,3.24737c0.45836,0.354 0.9208,0.7039 1.3853,1.04972c1.13975,0.78984 2.28155,1.5756 3.42743,2.35316c0.38264,0.26396 0.76324,0.52588 1.14589,0.78371c0.5136,0.33558 1.02311,0.67526 1.53263,1.01288c3.64024,2.23244 7.04107,4.76362 10.82046,6.58476c0.59136,0.31307 1.18477,0.63433 1.78022,0.94536c4.47306,2.34907 9.07502,4.5017 13.74043,6.57453c0.5177,0.23122 1.03744,0.46245 1.56127,0.69367c4.9089,2.08306 9.56407,4.43418 13.60333,7.62629c0.46449,0.34786 0.92694,0.70186 1.3812,1.0579c0.45631,0.36218 0.90648,0.72436 1.35051,1.09473c0.37446,0.34991 0.73255,0.7039 1.08041,1.07018c1.74134,1.83342 3.14301,3.91034 4.06381,6.24304c0.15961,0.41129 0.30489,0.82668 0.43585,1.25434c1.2482,3.81212 0.89216,7.79204 -0.13096,11.52845c-0.17598,0.63228 -0.37651,1.25638 -0.5975,1.8723c-0.22099,0.62001 -0.46449,1.23183 -0.72232,1.82728c-0.15756,0.42357 -0.32126,0.84509 -0.49314,1.25843c-0.51156,1.25229 -1.07632,2.49231 -1.682,3.71391c-0.14528,0.35809 -0.27215,0.71823 -0.37241,1.08041c-0.10231,0.36014 -0.17598,0.72641 -0.21895,1.08859c-0.04297,0.36832 -0.05116,0.72846 -0.02046,1.0845c0.00409,0.47063 0.12073,0.93922 0.32126,1.3587c0.74687,2.31428 3.60341,1.9828 5.03986,0.73869c0.38469,-0.27419 0.7346,-0.58931 1.05176,-0.9208c0.31921,-0.33149 0.60568,-0.68753 0.86351,-1.06199c0.80621,-1.42827 1.40167,-2.92815 1.8723,-4.47306c0.15756,-0.5136 0.3008,-1.03948 0.4338,-1.55923c1.2748,-5.41228 2.169,-10.83478 2.48208,-16.29821c0.00409,-0.62615 0,-1.23797 -0.01228,-1.8457c-0.01432,-0.61387 -0.03479,-1.2216 -0.06548,-1.83137c-0.03274,-0.58522 -0.09003,-1.15612 -0.17188,-1.72497c-0.40311,-2.81766 -1.40985,-5.50026 -3.35377,-7.75725c-0.33763,-0.45426 -0.68958,-0.8942 -1.06404,-1.31982c-0.3274,-0.38469 -0.67321,-0.75301 -1.03948,-1.11315c-0.36627,-0.35604 -0.75097,-0.69981 -1.15203,-1.02311c-0.41129,-0.31717 -0.83895,-0.60978 -1.27685,-0.88192c-0.43994,-0.2701 -0.89011,-0.52179 -1.34846,-0.75915c-3.86737,-1.72702 -7.89844,-2.89951 -12.00113,-4.29503c-0.49519,-0.15347 -0.99447,-0.30898 -1.4917,-0.46859c-2.98136,-0.94536 -5.92179,-1.94801 -8.68215,-3.31489c-0.48291,-0.20667 -0.96787,-0.41948 -1.44873,-0.63228c-1.44873,-0.64661 -2.89132,-1.33619 -4.32368,-2.10762c-0.54839,-0.2435 -1.10087,-0.50337 -1.65335,-0.76529c-3.86942,-1.82933 -7.75316,-3.94513 -11.40977,-6.47427c-0.42357,-0.28443 -0.84714,-0.57499 -1.26662,-0.87374c-1.26457,-0.89216 -2.51072,-1.82728 -3.74051,-2.78901c-0.46859,-0.35809 -0.93513,-0.72232 -1.40167,-1.08041c-0.44403,-0.37651 -0.87169,-0.75915 -1.28094,-1.16226c-0.76529,-0.7571 -1.45896,-1.56741 -2.06464,-2.44729c-0.12277,-0.17393 -0.23941,-0.35809 -0.35195,-0.53816c-0.66298,-1.1684 -1.36074,-2.35316 -1.72088,-3.61159c-0.05116,-0.18007 -0.09413,-0.36014 -0.133,-0.5402c-0.38264,-1.56332 -0.50746,-3.16961 -0.2701,-4.7493c0.03069,-0.23736 0.06548,-0.48086 0.09822,-0.72641c0.053,-0.35748 0.11131,-0.7172 0.16963,-1.07734c0.38039,-2.35091 0.76345,-4.71635 -0.29241,-6.53872c-0.25373,-0.43585 -0.58931,-0.83895 -1.02311,-1.20523c-6.68646,-3.90952 -4.15916,-12.37661 -2.29219,-18.63091c0.10579,-0.35482 0.20953,-0.70227 0.30939,-1.04153c0.20258,-0.62205 0.40925,-1.24001 0.61387,-1.86207c1.02925,-3.09799 2.05237,-6.18575 2.73785,-9.3349c0.3274,-1.19295 0.65684,-2.38181 0.99856,-3.55839c0.34581,-1.17454 0.70595,-2.34293 1.09064,-3.49291c0.17802,-0.59136 0.35195,-1.17658 0.51565,-1.76794c0.32944,-1.17658 0.62001,-2.36749 0.84918,-3.57476c0.14119,-0.59341 0.27829,-1.18681 0.41538,-1.77817c0.4072,-1.77613 0.80008,-3.55225 1.20114,-5.32224c0.21895,-0.7039 0.47063,-1.39757 0.7612,-2.07897c0.07776,-0.20053 0.15756,-0.39901 0.2435,-0.59955c0.82872,-2.27336 3.23509,-4.49761 5.74581,-3.38242c0.17802,0.06343 0.35604,0.13505 0.52793,0.21281c0.17188,0.0798 0.34172,0.1637 0.50337,0.25373c0.16984,0.08594 0.33763,0.18007 0.50133,0.27829c1.91936,0.91262 2.1997,2.59462 1.91936,4.36461c-0.03683,0.22099 -0.0798,0.44403 -0.12891,0.66912c-0.77143,2.42683 -1.69837,4.70837 -2.44115,7.11065c-0.08799,0.23122 -0.17393,0.46245 -0.25987,0.69367c-0.08594,0.23327 -0.17188,0.46654 -0.25782,0.69776c-0.74892,2.38795 -1.4651,4.55695 -2.16696,6.8651c-0.1371,0.47268 -0.27215,0.9474 -0.40106,1.42622c-0.26192,1.10087 -0.54634,2.19765 -0.83282,3.29443c-0.28647,1.09678 -0.57499,2.1956 -0.841,3.29852c-0.91876,3.37423 -1.29117,6.76483 -1.41599,10.3089c-0.00818,0.23532 -0.01637,0.47473 -0.02251,0.71823c0.05934,1.06199 0.03274,2.13422 0.1637,3.2003c0.02455,0.21281 0.05729,0.42562 0.10027,0.64252c0.09822,0.58318 0.25578,1.15817 0.4604,1.71474c0.06753,0.18621 0.13914,0.37241 0.2169,0.55453c0.88397,1.75566 2.30201,4.03721 4.49352,3.62796c0.16574,-0.02046 0.33149,-0.04706 0.49519,-0.08594c0.19848,-0.04297 0.39288,-0.10436 0.58522,-0.16984c1.66358,-0.50542 3.02023,-1.9255 3.23713,-3.6607c0.01432,-0.17802 0.01432,-0.35604 0.00205,-0.53202c-0.04502,-0.61591 -0.2435,-1.24001 -0.47268,-1.85593c-0.07776,-0.20872 -0.15756,-0.40925 -0.23736,-0.61387c-0.44608,-1.04358 -0.91262,-2.04009 -1.29936,-3.07344c-0.06343,-0.17393 -0.12687,-0.34786 -0.18621,-0.52383c-0.61387,-1.78227 -0.98424,-3.63206 -0.86965,-5.4798c-0.00205,-0.22304 -0.00409,-0.44403 -0.00409,-0.66707c0,-0.44608 0,-0.89011 -0.00205,-1.33414c0.01228,-0.19235 0.0266,-0.38674 0.04092,-0.57908c0.12277,-1.54286 0.33354,-3.08162 0.55453,-4.64699c0.02865,-0.20258 0.05934,-0.40106 0.08799,-0.60159c0.21485,-1.39757 0.45631,-2.80333 0.73869,-4.20909c0.05116,-0.23532 0.1064,-0.47063 0.16165,-0.70595c0.05525,-0.23532 0.11254,-0.46859 0.17188,-0.70186c0.29056,-1.17658 0.61796,-2.33884 0.97605,-3.48882c0.12073,-0.38469 0.2435,-0.76734 0.37037,-1.14793c0.12482,-0.38264 0.25578,-0.7612 0.38674,-1.13975c0.32535,-0.74687 0.59341,-1.47738 0.86146,-2.2263c0.06548,-0.18825 0.133,-0.37855 0.20258,-0.56885c1.01493,-2.35112 1.88048,-4.6961 2.65191,-7.12497c0.06139,-0.17598 0.12277,-0.354 0.18416,-0.52793c0.12277,-0.34991 0.2435,-0.70186 0.36218,-1.05381c0.23532,-0.58318 0.487,-1.15612 0.75915,-1.72292c1.7352,-4.53035 6.20826,-8.50822 11.13762,-6.91216c0.53611,0.16165 1.07427,0.32126 1.61652,0.48086c1.89072,0.64047 3.74869,1.31777 5.63531,1.9521c0.21076,0.07162 0.41948,0.14119 0.63024,0.20872c1.24411,0.45426 2.52095,0.8144 3.74664,1.26252c0.20667,0.07571 0.41129,0.15142 0.61387,0.23122c1.92141,0.55453 3.8776,1.22569 5.53505,2.28768c0.18416,0.11868 0.36423,0.2435 0.5443,0.37037c0.79189,0.56067 1.5756,1.19909 2.24471,1.92346c0.133,0.14528 0.26192,0.29261 0.38878,0.44812c0.40515,0.49928 0.74892,1.02925 1.04562,1.58173c0.10027,0.18416 0.19235,0.37037 0.28238,0.55862c0.28647,0.56271 0.53202,1.1418 0.74687,1.72906c0.07162,0.19644 0.14119,0.39288 0.20872,0.59545c0.37651,0.98833 0.64047,2.00735 0.82668,3.0407c0.03683,0.20667 0.07162,0.41538 0.10436,0.62819c0.07366,0.65684 0.14324,1.32391 0.21485,1.99507c0.02046,0.22304 0.04297,0.44608 0.06753,0.67116c0.03479,0.86965 0.14897,1.72661 0.26274,2.5805c0.17986,1.35031 0.35891,2.69345 0.22222,4.06974c-0.01228,0.21895 -0.02865,0.43585 -0.04911,0.65684c-0.14528,1.52035 -0.53611,2.96294 -1.53672,4.22955c-2.08715,2.24267 -5.41228,3.23304 -8.24016,2.34498c-0.56681,-0.17802 -1.11315,-0.42971 -1.62471,-0.76324c-0.66912,-0.31103 -1.21546,-0.69163 -1.65131,-1.12133c-0.4338,-0.38469 -0.76734,-0.8676 -1.01288,-1.40781c-0.21281,-0.55657 -0.36218,-1.10496 -0.44812,-1.64721c-0.24759,-1.29322 -0.23941,-2.53732 -0.0266,-3.72209c0.1064,-0.59341 0.26601,-1.17044 0.47063,-1.73111c0.12073,-0.52588 0.29466,-1.02516 0.50746,-1.50602c1.10701,-2.38181 2.3593,-4.55286 3.2535,-6.90398c-1.34233,1.96029 -2.93225,4.04539 -5.1565,4.77385c-0.44403,0.14733 -0.91262,0.23941 -1.4119,0.26396c-3.52156,0.3008 -6.36173,-1.82114 -8.54505,-4.30936c-0.15551,-0.17802 -0.30693,-0.35604 -0.45836,-0.5402c-0.50133,-0.54839 -0.87169,-1.22569 -1.0579,-1.96643c0,0.6773 0.24759,1.3587 0.55044,1.94596c0.07162,0.1371 0.14119,0.2701 0.21281,0.40515c0.07366,0.13505 0.14324,0.26806 0.21895,0.40311c0.21895,0.40106 0.44199,0.80621 0.65889,1.21341c0.74278,1.04562 1.17863,2.11171 1.36483,3.17575c0.09208,0.53202 0.12073,1.06404 0.09413,1.58992c-0.01432,0.25373 -0.04297,0.50746 -0.07571,0.75915c-0.18416,1.48965 -0.61796,2.90564 -1.27071,4.25616c-0.0839,0.19848 -0.16165,0.39492 -0.24145,0.59341c-0.15961,0.39492 -0.32126,0.78575 -0.47882,1.18067c-0.08799,0.20667 -0.17188,0.40515 -0.26192,0.5975c-0.62615,1.36074 -1.51012,2.52505 -2.94862,3.2801c-0.18007,0.09413 -0.38264,0.15347 -0.5975,0.15347c0.16984,0.01637 0.33558,0.01637 0.49928,0.00205c1.29322,-0.03888 2.16491,-0.78575 2.95885,-1.64926c0.13096,-0.14324 0.26192,-0.29261 0.39083,-0.43585c0.13505,-0.12073 0.26396,-0.2435 0.39492,-0.36832c0.13178,-0.12032 0.27092,-0.25148 0.416,-0.38817c1.36524,-1.28626 3.26987,-3.0806 4.71799,-1.29588c1.29772,1.58051 -0.14139,3.41986 -1.21362,4.79022c-0.09945,0.12687 -0.19562,0.24984 -0.28627,0.36832c-0.13914,0.16574 -0.28238,0.3274 -0.4338,0.487c-1.08859,1.38734 -2.13626,2.74399 -3.43357,3.97787c-0.30693,0.30693 -0.61591,0.67935 -0.76734,1.13975c-0.09617,0.18211 -0.18621,0.36832 -0.26396,0.55657c-0.31103,0.76529 -0.42766,1.57355 -0.20258,2.43706c0.03069,0.11254 0.08594,0.23532 0.15961,0.36218c0.37651,0.63024 1.2482,1.33619 2.12603,1.18067c0.21281,-0.04297 0.40515,-0.11459 0.57499,-0.21076c0.84509,-0.48086 1.16635,-1.56946 1.55309,-2.43297c0.0798,-0.22509 0.15551,-0.43585 0.23327,-0.64456c0.78166,-2.0892 2.07078,-3.96355 4.05563,-5.11762c0.20258,-0.12073 0.4072,-0.23122 0.62001,-0.32944c0.63024,-0.2967 1.31368,-0.487 2.04623,-0.55453c0.14324,0.01228 0.29261,0.03274 0.43789,0.06139c0.44199,0.09003 0.90648,0.27419 1.39553,0.57499c0.12891,0.09822 0.24759,0.20462 0.36423,0.31921c0.1371,0.1064 0.26601,0.21895 0.3806,0.33558c0.41538,0.40925 0.71004,0.89625 0.91057,1.43031c0.06753,0.17802 0.12482,0.36218 0.17393,0.55044c0.63842,2.06874 0.02046,4.35028 -1.38325,6.03228c-0.11459,0.16165 -0.23122,0.31921 -0.34991,0.47473c-0.11664,0.15551 -0.23532,0.30898 -0.354,0.4604c-0.10436,0.14733 -0.21281,0.29466 -0.31921,0.43789c-0.13096,0.17598 -0.25578,0.34991 -0.38264,0.52793c-0.08799,0.14937 -0.18211,0.29875 -0.27215,0.45222c-0.09003,0.15756 -0.18416,0.31307 -0.2701,0.47473l-0.03663,0.07592c-0.52506,1.08737 -1.10742,2.2928 -0.7614,3.5766c0.04911,0.18007 0.11664,0.35809 0.20258,0.53816c0.09208,0.24555 0.23122,0.47677 0.41538,0.63842c0.18621,0.1637 0.41743,0.25373 0.69367,0.22304c0.51156,-0.11868 1.18272,-0.11868 1.48147,-1.04767c0.10845,-0.33967 0.23532,-0.67116 0.38264,-0.99242c0.44199,-0.96173 1.0579,-1.82933 1.86002,-2.52095c0.1637,-0.14733 0.3274,-0.28852 0.49723,-0.42766c0.84714,-0.68753 1.78636,-1.27685 2.75218,-1.74339c0.11868,-0.05525 0.24145,-0.1064 0.36218,-0.15551c0.12482,-0.05116 0.24759,-0.09617 0.37241,-0.14119c1.42418,-0.55862 3.02842,-0.49723 4.53444,-0.24555c0.23736,0.04092 0.46859,0.0839 0.69981,0.13096c1.61243,0.354 3.18189,0.94331 4.67973,1.50602c0.21281,0.08799 0.42971,0.18211 0.64252,0.27624c4.40553,1.9787 8.70056,4.51193 12.82167,7.20682c0.46859,0.29466 0.93103,0.59341 1.39553,0.90034c0.46449,0.30898 0.9208,0.6241 1.37916,0.94331c0.45222,0.32535 0.89625,0.65479 1.33619,0.99242c1.31777,1.01288 2.58029,2.09738 3.75892,3.2801c0.41948,0.38264 0.82872,0.76734 1.23797,1.16021c0.81645,0.78166 1.62471,1.58173 2.43092,2.39204c0.43994,0.47063 0.8676,0.95764 1.27685,1.45282c2.05851,2.48412 3.7712,5.23425 5.16059,8.05805c0.38674,0.61796 0.77143,1.25025 1.14793,1.90299c1.73316,3.20439 2.94248,6.63592 3.81622,10.18817c0.14324,0.59341 0.27829,1.19091 0.4072,1.7884c0.1371,0.55044 0.26396,1.09678 0.38469,1.65335c0.08799,0.36423 0.17188,0.7305 0.24964,1.09882c0.31717,1.66972 0.59955,3.34149 0.83895,5.01121c0.0798,0.55862 0.15756,1.11724 0.22713,1.67791c0.41334,2.88518 0.57704,5.71512 0.6241,8.53073c0.00614,0.56067 0.01228,1.12952 0.01228,1.70451v1.5756c0,0.52588 -0.00614,1.04972 -0.01228,1.5715c0.01228,1.69428 -0.0266,3.4172 -0.09822,5.14422c-0.02455,0.57704 -0.0532,1.15203 -0.08185,1.73111c-0.02251,0.43585 -0.04706,0.87579 -0.06957,1.31368c-0.01432,1.07632 -0.0532,2.14036 -0.11868,3.20644c-0.05934,1.06199 -0.14324,2.12194 -0.2435,3.17984c-0.36014,4.70223 -1.03335,9.23872 -1.43031,13.95323c-0.1064,0.89011 -0.22918,1.76794 -0.37855,2.64373c-0.04502,0.36218 -0.10027,0.72436 -0.14324,1.0845c-0.19644,1.44464 -0.38469,2.89132 -0.49723,4.3687c-0.04297,0.49928 -0.06957,1.00674 -0.09413,1.52239c-0.16779,1.45691 0.83895,3.63615 2.55165,2.80333c0.45222,-0.2435 0.84714,-0.65275 1.05995,-1.12952c0.32944,-0.57908 0.52383,-1.2748 0.61387,-1.97256c0.1637,-1.55309 0.31307,-3.11027 0.45426,-4.67359c0.03683,-0.39492 0.06753,-0.78166 0.10231,-1.17044c0.06343,-0.80008 0.12687,-1.60424 0.1903,-2.40432c0.23736,-4.78204 0.90853,-9.31853 1.56946,-13.96347c0.12891,-1.12747 0.2435,-2.25699 0.33354,-3.38855c0.09208,-1.13361 0.15961,-2.27541 0.19644,-3.42539c0.03069,-0.63638 0.04911,-1.26457 0.05729,-1.89685c0.0266,-0.55248 0.04706,-1.11315 0.06548,-1.66972c0.04502,-1.67382 0.04502,-3.35582 -0.01842,-5.03986c-0.01842,-0.56067 -0.04092,-1.12133 -0.06343,-1.67995c-0.03069,-0.55862 -0.06343,-1.12543 -0.10027,-1.68609c-0.02251,-0.63024 -0.04502,-1.24001 -0.07162,-1.85388c-0.12687,-3.05093 -0.28852,-6.1039 -0.53202,-9.10163c-0.04706,-0.57908 -0.10231,-1.15817 -0.1637,-1.73316c-0.18007,-1.72906 -0.40925,-3.43971 -0.72027,-5.13194c-0.06548,-0.4072 -0.133,-0.81645 -0.20462,-1.22364c-0.09822,-0.51565 -0.20258,-1.02311 -0.30898,-1.53263c-0.53816,-2.53323 -1.18272,-5.06237 -1.89481,-7.59356c-0.12891,-0.39492 -0.25987,-0.79394 -0.39492,-1.19091c-0.17598,-0.5443 -0.36423,-1.08655 -0.55657,-1.62266c-1.1643,-3.22281 -2.61099,-6.32899 -4.69814,-9.1978c-0.23327,-0.36423 -0.46245,-0.72027 -0.69776,-1.07018c0.39901,0.12891 0.80008,0.23736 1.20114,0.33967c1.88253,0.49723 4.03516,0.67935 6.12641,0.6773c0.41334,-0.00205 0.82668,-0.01228 1.24206,-0.03274c0.41334,-0.02046 0.83282,-0.04502 1.25025,-0.07776c5.79287,-0.5443 11.46707,-1.61038 16.60515,-3.96968c0.71209,-0.31103 1.40985,-0.64456 2.09738,-1.0047c2.57416,-1.35051 4.95801,-3.02637 7.12701,-4.95187c0.72436,-0.63842 1.43031,-1.30754 2.09943,-1.99507c2.91588,-2.97522 4.88639,-6.77302 6.9981,-10.25979c0.58727,-1.07632 1.14384,-2.169 1.67382,-3.26783c0.52588,-1.09882 1.02516,-2.20993 1.4917,-3.32512c0.15756,-0.37651 0.31512,-0.75097 0.47473,-1.12747c1.85798,-4.1211 3.45608,-8.37317 5.69465,-12.32853c0.31512,-0.56476 0.64661,-1.12338 0.99651,-1.67586c0.51565,-0.93103 1.05176,-1.84365 1.60424,-2.75013c0.28033,-0.45222 0.55453,-0.90239 0.83282,-1.35256c1.93573,-3.23918 4.08837,-6.67684 5.52891,-10.29048c0.12277,-0.35195 0.23736,-0.71004 0.34581,-1.07222c0.09822,-0.36218 0.19848,-0.72846 0.28443,-1.10087c0.00675,-0.08287 0.01596,-0.17475 0.02578,-0.27317c0.04358,-0.43912 0.10047,-1.009 0.01514,-1.48863c-0.09822,-0.58727 -0.41334,-1.03948 -1.21341,-0.94945c-0.69776,0.18007 -0.8676,0.90443 -1.28912,1.47738c-0.37855,0.54225 -0.7571,1.17658 -1.09064,1.77408zM141.67193,11.81902c-1.93369,4.22751 -7.15771,3.65661 -10.83887,4.83728c-0.53202,0.16165 -1.03948,0.36014 -1.51012,0.61796c-0.95702,0.56934 -1.87516,1.24165 -2.79494,1.91507c-2.41557,1.76876 -4.84158,3.54509 -8.0071,3.48289c-0.41743,0.00818 -0.83895,0.02046 -1.25843,0.04092c-2.09943,0.09413 -4.205,0.34172 -6.34536,0.92899c-0.43175,0.10436 -0.86146,0.20872 -1.29526,0.31307c-0.43585,0.10436 -0.86965,0.20872 -1.30754,0.30489c-0.56271,0.1105 -1.14589,0.19644 -1.73111,0.24759c-4.67563,0.42562 -9.62751,-1.11724 -10.67108,-6.60932c-0.18211,-0.66707 -1.3587,-0.64661 -1.98484,-0.34172c-0.3806,0.08594 -0.74073,0.22099 -1.05176,0.38674c-3.30875,2.25904 -3.14505,7.19045 -0.66093,10.11656c0.39288,0.52179 0.81645,0.96582 1.26457,1.34028c0.31512,0.28238 0.65479,0.51156 1.00674,0.7039c0.354,0.19439 0.72436,0.34786 1.10496,0.47677c0.76734,0.08799 1.66972,0.43175 2.33475,0.55453c0.56885,0.0532 1.15203,0.06548 1.75157,0.04092c0.52179,-0.02046 1.04972,-0.06343 1.58583,-0.12891c0.66523,-0.1549 1.33844,-0.32064 2.0184,-0.48823c4.04662,-0.99713 8.33061,-2.05278 12.58758,-1.18558c0.52997,0.03069 1.05995,0.07776 1.59197,0.14528c0.53202,0.06548 1.06609,0.15142 1.60015,0.25782c1.08859,0.00614 2.10762,-0.12891 3.07753,-0.36832c1.21546,-0.30284 2.34498,-0.76529 3.4438,-1.31982c0.36832,-0.18416 0.72641,-0.37651 1.0845,-0.57704c0.41334,-0.31307 0.82463,-0.62001 1.23592,-0.92899c0.40925,-0.34991 0.81645,-0.69367 1.22774,-1.02925c1.09473,-0.98424 2.2529,-1.90299 3.46222,-2.73376c0.40515,-0.27829 0.81645,-0.54634 1.23388,-0.80621c1.96847,-1.02107 3.96764,-2.06874 6.31057,-2.61917c2.51072,-0.55248 4.32164,-2.43297 5.58416,-4.65926c0.28852,-0.43789 0.53202,-0.90034 0.74073,-1.3853c0.21076,-0.487 0.38469,-0.99651 0.50746,-1.53058c0.37241,-2.14036 -0.69572,-5.14627 -3.25555,-5.2097c-0.64661,0.40311 -0.87374,0.94127 -0.99651,1.51421c-0.12277,0.57499 -0.12891,1.18477 -0.33149,1.7352c-0.20462,0.62819 -0.44608,1.27889 -0.71413,1.96029z" fill-rule="evenodd"></path></svg>