<svg width="100%" viewBox="0 0 200 200" version="1.1" xmlns="http://www.w3.org/2000/svg" xmlns:xlink="http://www.w3.org/1999/xlink"><path d="M194.29316,135.07285c0.10711,0.09296 0.20007,0.19603 0.28495,0.3092c0.26878,0.3577 6.56597,8.85162 5.23822,15.62979c-0.48098,2.45137 -1.90977,4.45208 -4.1348,5.78791c-8.05276,4.83727 -21.86857,-6.86971 -31.01727,-14.62195l-0.01597,-0.01354c-1.7582,-1.48942 -3.29814,-2.79291 -4.48038,-3.70637c-16.23,2.84343 -38.70262,10.52697 -63.35783,29.95204c-9.23762,7.27733 -18.27921,10.9453 -26.95906,10.9453c-1.91381,0 -3.80741,-0.17784 -5.68282,-0.53554c-18.02053,-3.42748 -29.1275,-22.49283 -33.31081,-29.66911c-0.31931,-0.54969 -0.60223,-1.03269 -0.84474,-1.43889c-2.98086,-4.96742 -4.28031,-7.72193 -4.84616,-9.19922c-10.2986,2.22907 -15.34686,0.95185 -17.6406,-0.24251c-0.77603,-0.4062 -1.39848,-0.8892 -1.8552,-1.4106h-0.0384c-0.00808,-0.02223 -0.01415,-0.04446 -0.02223,-0.06467c-0.44864,-0.53352 -0.71945,-1.10544 -0.77603,-1.68343c-0.01213,-0.1253 -4.83404,-18.59043 -4.83404,-28.48081c0,-33.69882 19.84542,-62.64444 47.98065,-74.81038c-0.31931,-0.46885 -0.58809,-0.97408 -0.74976,-1.53792c-0.3961,-1.37827 -0.23241,-2.83131 0.46077,-4.08428c0.6952,-1.25903 1.84106,-2.17047 3.22741,-2.56657l9.68626,-2.77876c0.48118,-0.13742 0.966,-0.20464 1.44374,-0.20775h0.06952c2.32668,0.01515 4.46805,1.54893 5.14162,3.89593c0.17582,0.61436 0.22432,1.24084 0.18188,1.8552c3.32441,-0.45471 6.70743,-0.71541 10.14905,-0.71541c41.72389,0 75.8269,34.54559 77.49416,77.65381c1.99061,1.13778 3.94483,2.36245 5.81823,3.7771c0.51533,0.38802 0.93569,0.70732 1.27116,0.93164c5.09069,3.3911 31.01706,26.06581 32.11846,27.02979zM52.03462,27.5155c-0.34962,0.10105 -0.63457,0.32537 -0.80635,0.63659c-0.17178,0.3092 -0.21018,0.67095 -0.11115,1.01652c0.09296,0.32739 0.30112,0.59819 0.57596,0.77199c3.75083,-1.37422 7.62291,-2.44733 11.52934,-3.20114c0.20007,-0.31728 0.25868,-0.70934 0.15157,-1.08523c-0.16976,-0.59213 -0.69115,-0.97004 -1.27318,-0.97004c-0.1253,0 -0.25261,0.01819 -0.38195,0.05456zM125.15146,96.39448c9.38313,-0.36174 17.98416,1.2368 25.76874,4.79968c-1.70363,-25.33828 -15.18316,-47.31982 -34.74566,-59.98694c-0.78816,1.99465 -2.7242,3.41333 -4.99571,3.41333c-2.96671,0 -5.37969,-2.41298 -5.37969,-5.37969c0,-1.15597 0.40014,-2.23514 1.05896,-3.14051c-7.0712,-3.22337 -14.71229,-5.31704 -22.72523,-6.05871c18.51566,8.85162 33.6584,33.75339 41.01859,66.35283zM21.53087,63.69601c-7.23085,17.92151 -3.46992,40.99232 11.10495,68.57786c9.75498,-3.12636 23.24057,-8.91225 41.78654,-19.27552c17.17579,-9.59936 32.7692,-15.01543 46.73173,-16.33913c-8.79908,-38.87844 -28.77384,-66.09819 -51.95985,-66.09819c-0.9175,0 -1.82691,0.07882 -2.73228,0.16976v0.07679c-0.85283,0.05254 -1.66928,0.1738 -2.48573,0.28899c-0.49513,0.09094 -0.99429,0.14955 -1.48538,0.26272c-1.06098,0.23241 -2.11388,0.48502 -3.1587,0.76391c-10.92105,3.47194 -29.95406,12.11743 -37.80129,31.57282zM111.17883,40.57872c0.37185,0 0.70934,-0.15359 0.95387,-0.40014c-0.74976,-0.41631 -1.50558,-0.82251 -2.26545,-1.21053c-0.01617,0.08892 -0.02627,0.17986 -0.02627,0.27282c0,0.73764 0.60021,1.33785 1.33785,1.33785zM50.37948,46.17464c0,-2.96671 2.41298,-5.37969 5.37969,-5.37969c2.96671,0 5.37969,2.41298 5.37969,5.37969c0,2.96671 -2.41298,5.37969 -5.37969,5.37969c-2.96671,0 -5.37969,-2.41298 -5.37969,-5.37969zM54.42132,46.17464c0,0.73764 0.60021,1.33785 1.33785,1.33785c0.73764,0 1.33785,-0.60021 1.33785,-1.33785c0,-0.73764 -0.60021,-1.33785 -1.33785,-1.33785c-0.73764,0 -1.33785,0.60021 -1.33785,1.33785zM4.04184,106.63043c0,9.80348 1.78447,19.17246 4.99773,27.8038c1.26105,0.75178 6.24868,2.7242 19.6696,-0.98419c-14.84163,-28.3737 -18.55608,-52.3519 -10.92711,-71.26568c0.097,-0.24049 0.21422,-0.45875 0.31526,-0.6952c-8.82939,12.68935 -14.05549,28.28478 -14.05549,45.14127zM174.82767,123.59807c-6.43865,-5.49084 -12.75604,-10.76746 -14.89417,-12.1922c-0.386,-0.25666 -0.87304,-0.62244 -1.46517,-1.07109c-20.04145,-15.12254 -47.65731,-13.04099 -82.07558,6.1921c-15.34282,8.57476 -27.41376,14.12824 -36.90804,17.65273c0.51331,0.81443 1.02663,1.62886 1.55004,2.4635c6.85092,10.92913 14.61529,23.31938 26.22344,25.33424c7.7381,1.34391 16.46038,-1.91583 26.67209,-9.96111c13.1966,-10.40167 46.30734,-32.88237 80.89738,-28.41816zM94.31022,165.23506c26.99543,-21.27017 51.54758,-28.84053 68.50107,-31.28787c4.20755,-0.94175 10.7715,-1.05088 13.34817,-1.0529c0.15359,0 0.36377,0 0.62648,0.00202c0.7437,0.00606 1.51569,0.02829 2.30183,0.06063c1.97848,0.07275 4.61578,0.21624 7.16618,0.47694c-1.5743,-1.36614 -3.40323,-2.94852 -5.34735,-4.62386c-35.35396,-8.43329 -70.84937,15.64393 -84.47441,26.38108c-9.46598,7.45517 -17.92757,11.12314 -25.72428,11.12516c-1.4005,0 -2.78078,-0.11923 -4.14086,-0.35568c-13.38455,-2.32406 -21.65819,-15.5247 -28.95775,-27.17125c-0.68307,-1.0913 -1.35806,-2.16845 -2.02698,-3.2173c-2.32001,0.78412 -4.46623,1.43485 -6.44875,1.9704c0.53959,1.28935 1.73193,3.73466 4.34498,8.08772c0.25059,0.41833 0.54161,0.9175 0.87102,1.4874c3.92867,6.74179 14.36267,24.64915 30.57448,27.73105c9.18508,1.74405 19.07343,-1.4874 29.38618,-9.61351zM193.60201,153.33387c1.26712,-0.75987 1.9805,-1.74405 2.24726,-3.09403c0.7437,-3.77912 -2.31597,-9.25985 -4.03173,-11.76983c-2.74441,-0.65882 -10.06216,-1.53388 -15.59543,-1.53388h-0.04244c-2.96267,0.02627 -6.52757,0.21624 -10.60578,0.71743c0.53554,0.45269 1.09938,0.92962 1.68747,1.42677c7.25712,6.15168 20.78111,17.59614 26.34066,14.25354z" fill-rule="evenodd"></path></svg>