<svg width="100%" viewBox="0 0 200 200" version="1.1" xmlns="http://www.w3.org/2000/svg" xmlns:xlink="http://www.w3.org/1999/xlink"><path d="M100,200c55.14167,0 100,-44.85833 100,-100c0,-55.14167 -44.85833,-100 -100,-100c-55.14167,0 -100,44.85833 -100,100c0,55.14167 44.85833,100 100,100zM100,5.55556c52.07778,0 94.44444,42.36667 94.44444,94.44444c0,52.07778 -42.36667,94.44444 -94.44444,94.44444c-52.07778,0 -94.44444,-42.36667 -94.44444,-94.44444c0,-52.07778 42.36667,-94.44444 94.44444,-94.44444zM156.225,65.54167c-0.38333,-0.75278 -9.65833,-18.31944 -35.27222,-18.31944c-1.53611,0 -2.77778,-1.24444 -2.77778,-2.77778c0,-1.53333 1.24167,-2.77778 2.77778,-2.77778c29.15556,0 39.79167,20.49722 40.23056,21.37222c0.68889,1.37222 0.13611,3.04167 -1.23333,3.73056c-0.4,0.2 -0.82778,0.29444 -1.24444,0.29444c-1.01667,0 -1.99167,-0.55833 -2.48056,-1.52222zM33.7,68.05556c-0.41667,0 -0.84167,-0.09444 -1.24444,-0.29444c-1.37222,-0.68889 -1.925,-2.36111 -1.23333,-3.73333c0.43889,-0.87222 11.075,-21.36944 40.23056,-21.36944c1.53611,0 2.77778,1.24444 2.77778,2.77778c0,1.53333 -1.24167,2.77778 -2.77778,2.77778c-25.76667,0 -35.175,18.12778 -35.26667,18.31111c-0.48889,0.96944 -1.46944,1.53056 -2.48611,1.53056zM119.075,81.05278c-0.54722,0.59167 -1.29167,0.89167 -2.03889,0.89167c-0.675,0 -1.35278,-0.24444 -1.88611,-0.73889c-1.12778,-1.04167 -1.19722,-2.8 -0.15556,-3.925c0.375,-0.40556 9.29167,-9.89722 21.97222,-10.14722c7.90556,-0.12222 15.28889,3.23333 22.12222,10.06944c1.08611,1.08611 1.08611,2.84167 0,3.92778c-0.33056,0.32778 -0.72778,0.525 -1.14444,0.65278c0.45278,1.37222 0.75556,2.80833 0.75556,4.32778c0,7.66944 -6.21667,13.88889 -13.88889,13.88889c-7.67222,0 -13.88889,-6.21944 -13.88889,-13.88889c0,-6.16944 4.05,-11.33889 9.61667,-13.15c-1.14722,-0.18056 -2.3,-0.29444 -3.46389,-0.27222c-10.33889,0.20278 -17.925,8.28333 -18,8.36389zM53.51111,72.69167c-10.16667,0.21111 -17.68611,8.26944 -17.75833,8.35c-1.04167,1.12778 -2.79444,1.20278 -3.925,0.175c-1.13056,-1.03333 -1.21111,-2.78333 -0.18056,-3.91667c0.36667,-0.40278 9.12778,-9.86667 21.68611,-10.16111c7.85278,-0.13333 15.27222,3.20278 22.13611,10.06667c1.08611,1.08611 1.08611,2.84167 0,3.92778c-0.25833,0.25833 -0.56111,0.44722 -0.87778,0.58333c0.46667,1.38889 0.77778,2.85 0.77778,4.39722c0,7.66944 -6.21667,13.88889 -13.88889,13.88889c-7.67222,0 -13.88889,-6.21944 -13.88889,-13.88889c0,-6.15278 4.02778,-11.31389 9.57222,-13.13611c-1.20833,-0.2 -2.425,-0.31944 -3.65278,-0.28611zM150.92222,122.375c-14.54444,21.81944 -49.44444,22.06944 -50.92222,22.06944c-1.53333,0 -2.775,-1.24167 -2.77778,-2.77778c0,-1.53056 1.24167,-2.77778 2.775,-2.77778c0.33333,0 33.41389,-0.26389 46.30278,-19.59722c0.85,-1.275 2.56944,-1.625 3.85278,-0.76944c1.27778,0.85 1.62222,2.57778 0.76944,3.85278z" fill-rule="evenodd"></path></svg>