<svg width="100%" viewBox="0 0 200 200" version="1.1" xmlns="http://www.w3.org/2000/svg" xmlns:xlink="http://www.w3.org/1999/xlink"><path d="M48.97916,65.4996l0.02306,-0.00443c0.19135,-0.03636 0.38381,-0.07339 0.57716,-0.1102c4.51064,-0.86297 9.47361,-1.81242 11.1745,-0.11153c2.21729,2.43902 -1.55211,8.20399 -4.65632,12.63858c-2.43902,3.54767 -4.43459,6.43016 -4.65632,8.86918c0,1.10865 0.66519,2.21729 1.99557,2.43902h0.22173c1.10865,0 1.99557,-0.88692 2.21729,-1.99557c0.22173,-1.55211 1.99557,-4.43459 3.7694,-6.87361c3.99113,-5.76497 8.64745,-13.08204 4.43459,-18.18182c-3.19778,-3.62417 -9.26563,-2.53392 -15.24656,-1.4592c-0.23947,0.04302 -0.47894,0.08603 -0.71796,0.12882c-5.76497,1.10865 -11.52993,2.21729 -13.08204,-0.66519c-0.3439,-0.51574 -0.2878,-0.76497 -0.24523,-0.9541c0.0122,-0.05499 0.0235,-0.10466 0.0235,-0.15455c0.66519,-1.55211 5.32151,-3.10421 8.42572,-4.21286c5.32151,-1.77384 10.42129,-3.54767 10.19956,-7.76053c-0.44346,-5.09978 -6.20843,-8.42572 -11.75166,-11.75166c-2.43902,-1.33038 -4.87805,-2.88248 -6.65188,-4.21286c-1.19956,-0.99956 -1.13725,-1.81885 -1.1133,-2.13304c0.00244,-0.03415 0.00466,-0.06253 0.00466,-0.08426c0.44346,-2.43902 4.87805,-5.9867 11.08647,-8.64745c1.10865,-0.44346 1.55211,-1.77384 1.10865,-2.88248c-0.44346,-1.10865 -1.77384,-1.55211 -2.88248,-1.10865c-3.10421,1.33038 -12.86031,5.76497 -13.74723,12.19512c-0.44346,1.77384 0,4.21286 2.66075,6.43016c1.99557,1.55211 4.65632,3.10421 7.09534,4.65632c4.43459,2.43902 9.31264,5.32151 9.53437,7.98226c-0.22173,1.10865 -4.65632,2.43902 -7.09534,3.32594c-4.65632,1.55211 -9.7561,3.32594 -11.08647,6.87361c-0.44346,1.10865 -0.66519,2.66075 0.44346,4.87805c3.10067,5.75854 11.06851,4.21641 17.93703,2.88692zM148.91064,77.48585c0.03082,0.14346 0.06142,0.28559 0.09157,0.42616c0.02993,0.13437 0.05965,0.26763 0.08936,0.39956c0.40976,1.83082 0.76763,3.42949 0.3541,4.25676c0,1.10865 1.10865,2.21729 2.21729,2.21729c1.10865,0 2.21729,-0.88692 2.21729,-2.21729c0,-1.55211 -0.44346,-3.54767 -0.88692,-5.76497c-1.77384,-7.09534 -2.43902,-12.63858 2.43902,-15.52106c2.43902,-1.33038 4.21286,0.22173 8.20399,5.76497c2.66075,3.54767 5.32151,7.09534 8.86918,7.5388c1.99557,0.22173 3.54767,-0.44346 5.32151,-1.77384c6.41109,-5.30576 2.24235,-12.15432 -0.8592,-17.24945l-0.02772,-0.04545c-1.55211,-2.66075 -3.32594,-5.76497 -2.66075,-6.87361c0.22173,-0.44346 0.66519,-0.44346 3.99113,1.55211c3.54767,2.21729 9.09091,5.54324 14.63415,1.33038c2.88248,-2.21729 4.65632,-5.09978 5.09978,-8.86918c0.88692,-6.43016 -2.43902,-14.19069 -5.9867,-18.84701c-0.66519,-1.10865 -2.21729,-1.10865 -3.10421,-0.44346c-1.10865,0.66519 -1.10865,2.21729 -0.44346,3.10421c2.88248,3.7694 5.76497,10.19956 5.09978,15.52106c-0.22173,2.66075 -1.33038,4.43459 -3.32594,5.9867c-2.88248,2.21729 -5.76497,0.88692 -9.53437,-1.55211c-2.66075,-1.77384 -7.09534,-4.43459 -9.97783,-0.22173c-2.21729,3.54767 0.22173,7.76053 2.66075,11.75166c3.10421,5.54324 4.87805,8.86918 1.77384,11.52993c-0.88692,0.66519 -1.55211,0.66519 -1.77384,0.66519c-1.77384,-0.22173 -3.7694,-3.10421 -5.76497,-5.76497c-0.07716,-0.10288 -0.15499,-0.20687 -0.23348,-0.31153c-3.29933,-4.40576 -7.67118,-10.2439 -13.73548,-6.56208c-8.01818,4.76763 -6.08182,13.7714 -4.74789,19.97295zM165.63193,23.58829c-2.88248,0 -5.09978,2.21729 -5.09978,5.09978c0,2.66075 2.21729,5.09978 5.09978,5.09978c2.88248,0 5.09978,-2.21729 5.09978,-5.09978c0,-2.88248 -2.21729,-5.09978 -5.09978,-5.09978zM115.74279,26.47078c-2.88248,0 -5.09978,2.21729 -5.09978,5.09978c0,2.88248 2.21729,5.09978 5.09978,5.09978c2.88248,0 5.09978,-2.21729 5.09978,-5.09978c0,-2.88248 -2.21729,-5.09978 -5.09978,-5.09978zM70.73171,34.00958c-2.88248,0 -5.09978,2.21729 -5.09978,5.09978c0,2.66075 2.21729,5.09978 5.09978,5.09978c2.88248,0 5.09978,-2.21729 5.09978,-5.09978c0,-2.88248 -2.21729,-5.09978 -5.09978,-5.09978zM147.67184,121.14927c5.09978,9.53437 5.76497,16.40798 2.21729,19.95565c-0.88692,1.10865 -2.21729,1.55211 -3.7694,1.99557l-0.22173,0.22173c-0.66519,0.22173 -66.74058,29.04656 -75.1663,32.59424c-13.30377,5.54324 -21.28603,7.98226 -25.72062,7.98226c-1.77384,0 -3.10421,-0.44346 -3.99113,-1.10865c0,-0.22173 -0.22173,-0.22173 -0.22173,-0.22173c-3.54767,-3.10421 -1.10865,-11.52993 5.76497,-29.49002l0.44346,-0.88692c3.54767,-9.31264 30.37694,-79.60089 30.37694,-79.60089h0.22173c0.44346,-0.88692 0.88692,-1.77384 1.55211,-2.43902c1.33038,-1.55211 3.32594,-2.21729 5.9867,-2.21729c4.21286,0 9.53437,1.99557 15.74279,5.54324c0.22173,-15.96452 -1.77384,-22.61641 -3.32594,-25.27716c-1.99557,-3.10421 -3.99113,-4.43459 -6.20843,-4.21286c-3.7694,0.66519 -7.98226,6.43016 -9.53437,13.08204c-0.22173,1.33038 -1.55211,1.99557 -2.66075,1.77384c-1.33038,-0.22173 -1.99557,-1.55211 -1.77384,-2.66075c1.77384,-7.31707 6.87361,-15.29933 13.30377,-16.40798c2.88248,-0.44346 7.09534,0.44346 10.64302,6.43016c3.32594,5.54324 4.21286,17.07317 3.7694,30.15521c6.87361,4.43459 14.19069,10.42129 21.28603,17.51663c4.21286,4.43459 8.20399,8.86918 11.75166,13.30377c12.86031,-4.43459 29.93348,-7.5388 50.55432,-5.09978c1.33038,0 2.21729,1.10865 1.99557,2.43902c0,1.33038 -1.10865,2.21729 -2.43902,1.99557c-18.84701,-2.43902 -35.03326,0.44346 -47.22838,4.43459c2.66075,3.54767 4.87805,6.87361 6.65188,10.19956zM129.26829,58.62155c0,-2.88248 -2.21729,-5.09978 -5.09978,-5.09978c-2.66075,0 -5.09978,2.21729 -5.09978,5.09978c0,2.88248 2.21729,5.09978 5.09978,5.09978c2.88248,0 5.09978,-2.21729 5.09978,-5.09978zM100.44346,78.57721c-6.65188,-4.21286 -12.19512,-6.20843 -15.52106,-6.20843c-1.33038,0 -2.21729,0.44346 -2.88248,0.88692c-3.10421,3.32594 1.77384,16.40798 15.96452,32.81596c1.33038,-11.08647 2.21729,-20.17738 2.43902,-27.49446zM133.92461,108.73242c-3.32594,-3.99113 -6.65188,-7.76053 -10.64302,-11.75166c-6.65188,-6.65188 -12.86031,-11.75166 -18.18182,-15.52106c-0.66519,9.7561 -1.55211,19.73392 -2.88248,29.04656c1.33038,1.33038 2.43902,2.66075 3.7694,3.99113c2.21729,1.99557 4.21286,3.99113 6.43016,5.9867c2.21729,-1.99557 9.7561,-7.09534 21.50776,-11.75166zM43.90244,179.2424c0.88692,0.44346 5.09978,0.66519 25.05543,-7.5388c6.87361,-2.66075 51.44124,-22.17295 68.29268,-29.71175c-9.53437,-3.10421 -22.39468,-11.97339 -34.81153,-24.39024c-1.55211,-1.55211 -3.10421,-3.10421 -4.65632,-4.87805c-9.09091,-9.97783 -16.85144,-21.0643 -19.73392,-29.71175c-7.09534,19.06874 -24.16851,63.41463 -26.82927,70.73171l-0.44346,0.88692l-0.14656,0.38603c-2.51486,6.62772 -8.0357,21.17805 -6.94878,24.00421zM0,105.6282c0,2.88248 2.21729,5.09978 5.09978,5.09978c2.88248,0 5.09978,-2.21729 5.09978,-4.87805c0,-2.88248 -2.21729,-5.09978 -5.09978,-5.09978c-2.66075,0 -4.87805,2.21729 -5.09978,4.87805zM44.78936,116.27122c2.88248,0 5.09978,-2.21729 5.09978,-5.09978c0,-2.88248 -2.21729,-5.09978 -5.09978,-5.09978c-2.88248,0 -5.09978,2.21729 -5.09978,5.09978c0,2.88248 2.21729,5.09978 5.09978,5.09978zM146.78492,138.00071c1.33038,-1.55211 1.33038,-6.20843 -3.10421,-14.63415c-1.77384,-3.32594 -4.21286,-7.09534 -6.87361,-10.86475c-10.86475,3.99113 -18.18182,8.64745 -21.0643,10.86475c11.08647,9.53437 21.95122,15.52106 28.15965,15.52106c1.33038,0 2.21729,-0.22173 2.88248,-0.88692zM194.90022,126.02732c2.88248,0 5.09978,-2.21729 5.09978,-5.09978c0,-2.88248 -2.21729,-5.09978 -5.09978,-5.09978c-2.88248,0 -5.09978,2.21729 -5.09978,5.09978c0,2.88248 2.21729,5.09978 5.09978,5.09978zM167.62749,133.34439c2.88248,0 5.09978,-2.21729 5.09978,-5.09978c0,-2.88248 -2.21729,-5.09978 -5.09978,-5.09978c-2.88248,0 -5.09978,2.21729 -5.09978,5.09978c0,2.88248 2.21729,5.09978 5.09978,5.09978zM71.61863,134.45304c2.88248,0 5.09978,-2.21729 5.09978,-5.09978c0,-2.88248 -2.21729,-5.09978 -5.09978,-5.09978c-2.88248,0 -5.09978,2.21729 -5.09978,5.09978c0,2.88248 2.21729,5.09978 5.09978,5.09978zM7.09534,151.08275c2.88248,0 5.09978,-2.21729 5.09978,-5.09978c0,-2.66075 -2.21729,-5.09978 -5.09978,-5.09978c-2.88248,0 -5.09978,2.21729 -5.09978,5.09978c0,2.88248 2.21729,5.09978 5.09978,5.09978zM151.66297,161.28231c2.88248,0 5.09978,-2.21729 5.09978,-5.09978c0,-2.88248 -2.21729,-5.09978 -5.09978,-5.09978c-2.88248,0 -5.09978,2.21729 -5.09978,5.09978c0,2.88248 2.21729,5.09978 5.09978,5.09978zM184.47894,171.26013c2.88248,0 5.09978,-2.21729 5.09978,-5.09978c0,-2.66075 -2.21729,-5.09978 -5.09978,-5.09978c-2.88248,0 -5.09978,2.21729 -5.09978,5.09978c0,2.88248 2.21729,5.09978 5.09978,5.09978z" fill-rule="evenodd"></path></svg>