<svg width="100%" viewBox="0 0 200 200" version="1.1" xmlns="http://www.w3.org/2000/svg" xmlns:xlink="http://www.w3.org/1999/xlink"><path d="M174.80748,25.09029c-0.39113,-0.08667 -0.78671,-0.08667 -1.15784,-0.00444h-11.02061c0.74226,-0.31557 1.62231,-0.50892 2.66904,-0.60226c3.88688,-1.0245 6.087,-3.67354 6.20479,-7.47375c0.07334,-2.80904 -0.2089,-5.44697 -0.84449,-7.8271c-0.32002,-1.19562 -1.39786,-2.029 -2.63792,-2.029h-136.45869c-1.1734,0 -2.22012,0.74671 -2.59348,1.85788c-0.82227,2.43347 -1.15562,5.1514 -0.99339,8.06045c0.20446,3.7691 2.4468,6.39591 6.79149,7.49597c0.82227,0.06445 1.54897,0.23557 2.19346,0.51781h-12.65626c-14.76971,0 -24.30357,10.12723 -24.30357,25.80143c0,15.17195 10.27613,25.36363 25.5792,25.36363c6.32702,0 11.91399,-2.05567 16.4898,-6.00033v5.83143c0,1.51119 1.21785,2.73349 2.73349,2.73349h4.91138c1.51119,0 2.73349,-1.22229 2.73349,-2.73349v-6.19368c0,-4.77804 2.59348,-7.40486 7.29596,-7.40486c3.92022,0 8.59159,1.28007 8.59159,7.40486v6.19368c0,1.51119 1.21562,2.73349 2.73126,2.73349h4.91138c1.50675,0 2.73349,-1.22229 2.73349,-2.73349v-6.19368c0,-4.90249 3.04239,-7.94489 7.93822,-7.94489c4.82471,0 7.94266,3.11795 7.94266,7.94489v6.19368c0,1.51119 1.22229,2.73349 2.73349,2.73349h4.70248c1.50453,0 2.73126,-1.22229 2.73126,-2.73349v-6.19368c0,-5.04695 2.89572,-7.94489 7.94489,-7.94489c4.67582,0 7.94266,3.26685 7.94266,7.94489v6.19368c0,1.51119 1.21785,2.73349 2.73349,2.73349h4.91138c1.51119,0 2.73126,-1.22229 2.73126,-2.73349v-6.19368c0,-4.90249 3.04239,-7.94489 7.94489,-7.94489c4.76693,0 7.73154,3.04239 7.73154,7.94489v6.19368c0,1.51119 1.22229,2.73349 2.73126,2.73349h5.76254c1.51119,0 2.73126,-1.22229 2.73126,-2.73349v-5.75143c4.51136,3.89799 10.10056,5.92033 16.49203,5.92033c15.54086,0 25.58364,-9.95611 25.58364,-25.36363c0.01111,-15.30529 -10.10056,-25.62587 -25.19251,-25.79699zM174.42746,70.78393c-7.20707,0 -12.90961,-3.10684 -16.94539,-9.2294c-0.66226,-1.01561 -1.91122,-1.4623 -3.06461,-1.12228c-1.1534,0.35335 -1.949,1.41563 -1.949,2.62237v10.2939h-0.29335v-3.46019c0,-7.89599 -5.42475,-13.41186 -13.19629,-13.41186c-6.87816,0 -11.94955,4.18023 -13.14517,10.47391c-1.22673,-6.22035 -6.37369,-10.47391 -13.12073,-10.47391c-6.79149,0 -11.69398,3.85355 -13.0385,9.89833c-1.38674,-5.97366 -6.35591,-9.89833 -13.0185,-9.89833c-6.86038,0 -11.92066,4.15801 -13.1274,10.42502c-1.20673,-6.17145 -6.2559,-9.88722 -13.78076,-9.88722c-6.24701,0 -10.71393,3.27796 -12.20957,8.63826v-2.60014c0,-1.20229 -0.78449,-2.2579 -1.93122,-2.61126c-1.14229,-0.35113 -2.3868,0.08 -3.06461,1.07339c-4.1869,6.15145 -9.89166,9.26718 -16.96094,9.26718c-12.22068,0 -20.11223,-7.81154 -20.11223,-19.89666c0,-12.54736 7.21818,-20.33446 18.8366,-20.33446h18.36102c0.90005,0 1.74454,-0.44447 2.25346,-1.18673c0.50669,-0.74004 0.62226,-1.68676 0.29779,-2.52458c-1.8001,-4.68693 -5.26251,-7.35596 -9.54053,-7.64487c-1.78232,-0.46891 -2.17568,-1.27118 -2.24235,-2.41347c-0.07334,-1.48453 0,-2.87794 0.24001,-4.16468h132.12289c0.19779,1.32452 0.28224,2.74237 0.24001,4.2269c-0.03334,1.14229 -0.39558,1.89122 -1.63787,2.26457c-4.95139,0.37335 -8.43158,3.07573 -10.06278,7.81599c-0.2889,0.83338 -0.16001,1.75788 0.35113,2.47792c0.51114,0.72004 1.34452,1.14895 2.23123,1.14895h17.29652c0.02267,0 0.04645,0.00044 0.07067,0.00089c0.04956,0.00111 0.10023,0.002 0.1449,-0.00089c12.40736,0 20.11667,7.78932 20.11667,20.33446c-0.00444,12.27179 -7.71376,19.89888 -20.12112,19.89888zM48.4338,49.60054h103.13906c0.14223,-2.70237 0.64004,-8.02933 1.50008,-10.44725h-106.13478c0.8556,2.41791 1.34674,7.74487 1.49564,10.44725zM28.31713,39.67554c-4.24912,0 -7.68932,3.43797 -7.68932,7.68709c0,4.24024 3.44019,7.68265 7.68932,7.68265c4.23801,0 7.68265,-3.44241 7.68265,-7.68265c0,-4.24912 -3.44464,-7.68709 -7.68265,-7.68709zM171.1695,39.67554c-4.23801,0 -7.68265,3.43797 -7.68265,7.68709c0,4.24024 3.44464,7.68265 7.68265,7.68265c4.24912,0 7.68932,-3.44241 7.68932,-7.68265c0,-4.24912 -3.43797,-7.68709 -7.68932,-7.68709zM60.04111,67.26596c-3.07128,0 -4.43802,2.20012 -4.43802,5.27585v60.49891h9.40052v-60.49891c0,-3.24462 -1.73787,-5.27585 -4.9625,-5.27585zM86.23812,67.26596c-3.07128,0 -4.4358,2.20012 -4.4358,5.27585v60.49891h9.39608v-60.49891c-0.00222,-3.24462 -1.73565,-5.27585 -4.96028,-5.27585zM112.43513,67.26596c-3.07573,0 -4.44247,2.20012 -4.44247,5.27585v60.49891h9.40052v-60.49891c0,-3.24462 -1.73343,-5.27585 -4.95805,-5.27585zM138.62547,67.26596c-3.06906,0 -4.4358,2.20012 -4.4358,5.27585v60.49891h9.40052v-60.49891c0,-3.24462 -1.7401,-5.27585 -4.96472,-5.27585zM43.30685,145.36141c0,2.88905 3.68465,5.25362 8.18045,5.25362h94.04078c4.50025,0 8.1849,-2.36458 8.1849,-5.25362v-5.24029h-110.40613zM163.97355,175.46308c-3.2624,-0.53336 -5.13584,-2.12678 -6.03811,-5.1514v-12.01178c0,-1.51119 -1.22229,-2.73349 -2.73126,-2.73349h-112.32401c-1.51119,0 -2.73126,1.22451 -2.73126,2.73349v9.81832c-0.07556,0.17557 -0.1289,0.36224 -0.17112,0.55336c-0.78004,4.04245 -2.79793,6.14034 -6.59814,6.8026c-4.08023,0.81116 -6.47592,3.4713 -6.57814,7.30485c-0.08445,2.83794 0.27779,5.58475 1.08228,8.15823c0.3578,1.14229 1.41563,1.90899 2.61126,1.90899h136.67203c1.2534,0 2.35124,-0.85338 2.64681,-2.07123c0.63115,-2.53125 0.87116,-5.24251 0.7156,-8.06711c-0.20001,-3.78465 -2.55125,-6.41369 -6.55592,-7.24485zM164.90249,187.37707h-132.28734c-0.28224,-1.42008 -0.40224,-2.90905 -0.34669,-4.44691c0.02222,-0.91338 0.20223,-1.70454 2.11345,-2.07789c5.61587,-0.99117 9.30052,-4.46247 10.72504,-10.07834c0.32224,-0.44891 0.50892,-0.99339 0.50892,-1.58675v-8.15823h106.85482v9.65831c0,0.23557 0.03334,0.47114 0.09112,0.70448c1.41563,5.30252 5.06028,8.57381 10.41613,9.4383c1.68232,0.35335 2.03345,1.03784 2.09789,2.16901c0.08223,1.51786 0.02,2.98017 -0.17334,4.37802z" fill-rule="evenodd"></path></svg>