<svg width="100%" viewBox="0 0 200 200" version="1.1" xmlns="http://www.w3.org/2000/svg" xmlns:xlink="http://www.w3.org/1999/xlink"><path d="M133.22939,165.80022c0.12545,-2.35138 1.08608,-3.97512 4.08266,-3.82099h0.00717c2.62738,0.31901 5.35513,1.06816 8.237,2.44099c0.02868,0.01434 0.06094,0.02868 0.09319,0.03943c2.30837,1.14343 5.15081,3.04317 8.23342,5.10063c10.41633,6.95378 23.4457,15.64959 31.81533,6.37669c1.75637,-1.94634 3.15429,-4.98593 2.78868,-8.41622c-0.276,-2.58795 -1.54489,-5.37305 -4.41601,-8.02552c-4.15435,-3.8425 -7.28713,-6.0971 -11.07945,-8.82126c-1.31548,-0.9427 -2.70982,-1.94634 -4.33715,-3.15788c4.06115,-2.06463 8.05778,-4.47336 11.1368,-6.86058c3.0145,-2.34063 6.68853,-6.77097 8.58469,-11.35186c1.52338,-3.67403 1.932,-7.49861 0.08244,-10.60272c-4.95546,-8.32339 -20.31937,0.81044 -26.58207,4.53358l-0.00717,0.0043c-0.60577,0.35844 -0.69538,0.41579 -0.9212,0.54842c-1.58073,0.92837 -2.97865,1.81372 -4.32281,2.66323c-4.35149,2.75642 -8.11872,5.13648 -13.47384,6.17954c-3.12203,0.60935 -6.08635,1.16852 -8.57035,0.84951c-2.29045,-0.29392 -4.29055,-1.38 -5.84261,-4.01097c-1.78146,-3.01808 -4.59881,-5.74941 -8.08287,-8.21191c14.34486,-1.13626 35.52879,-14.77857 47.33946,-23.61059c2.67398,-2.00011 4.88915,-3.7744 6.43762,-5.09705c1.932,-1.656 2.93206,-3.01091 2.76359,-3.71705c-0.00717,-0.03943 -0.02151,-0.07527 -0.03226,-0.1147c-0.17564,-0.58068 -0.58068,-0.91761 -1.2187,-1.00364c-2.16499,-0.29034 -4.65975,-0.41579 -7.29788,-0.54842c-5.17591,-0.26166 -10.93966,-0.552 -15.38076,-2.16858c0.43372,-0.40146 0.86026,-0.80649 1.29398,-1.20795l-1.95351,-2.10047c-0.69179,0.64161 -1.37283,1.29398 -2.08255,1.91767l0.18997,0.21507c-1.45169,-0.83875 -2.65247,-1.9105 -3.50198,-3.27975c-4.50562,-7.26562 -4.64183,-17.24824 -1.45528,-27.2201c3.28333,-10.26937 10.08298,-20.48139 19.28778,-27.72909c0.54125,-0.43013 1.2187,-0.89252 1.92125,-1.37283c1.41585,-0.96779 2.91055,-1.99294 3.79949,-3.02167c0.91044,-1.05382 1.33699,-2.08255 1.41226,-3.04317c0.08244,-1.07174 -0.26883,-2.01086 -0.87818,-2.79585c-0.54483,-0.69538 -1.29039,-1.24738 -2.10047,-1.63808c-1.26889,-0.60935 -2.76001,-0.84234 -3.88193,-0.60935c-11.79633,1.32624 -30.40307,16.13707 -50.67298,32.27414c-30.08047,23.94752 -63.89591,50.86653 -82.19797,39.59353c-0.67029,-0.41221 -1.54847,-0.20431 -1.96426,0.46597c-0.25808,0.41938 -0.276,0.91761 -0.08961,1.33341c2.44816,5.49492 6.33009,10.08298 11.34111,13.32688c2.47684,1.60224 5.22609,2.87829 8.20833,3.76723c-9.65643,2.40515 -18.64975,7.38033 -27.95491,12.52756c-0.94987,0.52333 -1.90333,1.05024 -2.86037,1.57715c-1.19874,0.65846 -2.35823,0.6452 -3.61747,0.63086h-0.00638l-0.06861,-0.00072c-0.73183,-0.00717 -1.49499,-0.01434 -2.3222,0.07599c-1.41943,0.15771 -2.39798,0.70255 -2.95356,1.72052c-0.02868,0.04301 -0.05377,0.08961 -0.07886,0.13979c-0.46239,0.94629 -0.46956,2.17574 -0.03943,3.75647c0.05735,0.21148 0.12187,0.41938 0.19714,0.62369c-0.88535,0.64161 -1.59865,1.32265 -2.14707,2.05029c-0.98213,1.30115 -1.44094,2.72416 -1.39434,4.25829c0.04301,1.45169 0.54125,2.96432 1.47678,4.53071c1.60582,2.6919 4.54505,5.61321 8.66713,8.73524c5.20817,4.87481 10.55254,8.8822 15.9686,12.14402c5.24759,3.16504 10.57405,5.63471 15.91125,7.53446c0.00358,2.0718 0.80291,3.79949 2.03954,5.04687c0.85309,0.85668 1.9105,1.48037 3.05393,1.82447c1.14343,0.3441 2.37647,0.40862 3.58801,0.15055c1.09683,-0.23299 2.16499,-0.72764 3.11845,-1.50904c1.78504,1.39076 3.57367,2.97507 5.35513,4.55222c4.48053,3.96437 8.92521,7.90365 13.57062,9.08651c0.27958,0.07169 0.59143,0.13979 0.93195,0.20431c1.71335,0.31901 3.13278,0.22582 4.24754,-0.27958c0.82442,-0.37636 1.46244,-0.93912 1.9105,-1.69543c2.90697,2.35138 5.82469,4.28697 8.74599,5.03253c1.31548,0.33694 2.47684,0.45164 3.48047,0.35486c1.07174,-0.10395 1.96785,-0.45522 2.67756,-1.04665c0.72764,-0.60577 1.22229,-1.41943 1.48395,-2.44458c0.21148,-0.83517 0.26525,-1.82447 0.15413,-2.96073c-0.51616,-5.29778 -3.99663,-8.71015 -7.62048,-11.67805c1.74561,-0.18997 3.46614,-0.40862 5.1544,-0.64878h0.01434c5.16874,-0.55917 9.68511,3.02884 14.46673,6.82832c5.17232,4.10775 10.6314,8.4449 17.91853,8.75674c0.73839,0.08603 1.4266,-0.40862 1.56998,-1.14702c0.51616,-2.63097 -0.03943,-6.03258 -0.5986,-9.44495l-0.00681,-0.04194c-0.42798,-2.62057 -0.85632,-5.24544 -0.74592,-7.31688zM72.37307,103.60333c-4.70993,-1.08966 -9.17254,-1.40868 -13.46667,-1.13985l0.01792,0.01075c-5.97882,-0.24016 -11.26584,-1.93917 -15.61374,-4.75294c-3.37294,-2.18291 -6.18313,-5.0397 -8.31586,-8.40905c6.54515,2.21517 14.29826,1.08608 22.76108,-2.22234c0.13262,0.10036 0.26525,0.19714 0.39787,0.29392l0.20431,0.14696l0.2079,0.14338l0.43013,0.28675l0.33335,0.21507l0.1613,0.10036l1.48395,-2.45533l-0.07169,-0.04301c3.98659,-1.76784 8.11226,-3.97154 12.3279,-6.49641l0.16739,2.67183v0.00717l0.29034,-0.01792l0.21148,-0.01434l0.21148,-0.01792l0.41579,-0.03584l0.20431,-0.01792l0.20431,-0.02151l0.40146,-0.04301l0.39429,-0.05018l0.38712,-0.05018l0.26166,-0.03943l-0.4373,-2.83528l-0.40146,0.05735l-0.17564,0.02151l-0.35844,0.04301l-0.18281,0.02151l-0.18281,0.01792l-0.18639,0.01792l-0.37995,0.03584l-0.38712,0.02868l-0.15807,0.04086c13.92906,-8.38468 28.82377,-20.24159 42.91664,-31.46191c19.97957,-15.90767 38.31747,-30.50343 49.27864,-31.67912c0.05735,-0.00717 0.1147,-0.01434 0.17205,-0.02868c0.53408,-0.12187 1.33699,0.02509 2.07538,0.37995c0.44088,0.21148 0.83517,0.49107 1.08966,0.82083c0.18639,0.24016 0.29751,0.51974 0.27242,0.82442c-0.02868,0.37995 -0.24374,0.83875 -0.71688,1.38717c-0.64161,0.74556 -1.98219,1.66317 -3.25107,2.5306c-0.75631,0.51974 -1.49112,1.02156 -2.07896,1.48395c-9.65285,7.59897 -16.78943,18.32357 -20.23765,29.11626c-3.43029,10.72818 -3.2224,21.56747 1.74561,29.58224c0.86743,1.39792 1.9786,2.53777 3.27616,3.46972l-0.0466,0.02868l-0.18997,0.12187l-0.09678,0.06094l-0.19356,0.11829l-0.09678,0.05735l-0.50182,0.28675l-0.10395,0.05735l-0.2079,0.10753l-0.43013,0.21507l-0.07527,0.03584l1.24738,2.58078l0.07527,-0.03584l0.12904,-0.06094l0.37636,-0.19356l0.36561,-0.19356l0.47314,-0.27242l0.3441,-0.20431l0.11112,-0.0681l0.33335,-0.21507l0.3226,-0.21507l0.13979,-0.09678l-1.04307,-1.49829c5.201,3.16146 12.81072,3.54499 19.50643,3.88193c1.45886,0.07527 2.87471,0.14696 4.19736,0.24374c-0.04301,0.03584 -0.08961,0.07169 -0.13621,0.11112c-1.46961,1.25455 -3.62744,2.97865 -6.29425,4.97159c-13.07956,9.78189 -37.8515,25.66805 -50.57978,22.81485c-0.68821,-0.37995 -1.38717,-0.75631 -2.10047,-1.12192c-0.07886,-0.05018 -0.16488,-0.09319 -0.25449,-0.12904c-3.16146,-1.61299 -6.57741,-3.0826 -10.09015,-4.41601c-10.92173,-4.15076 -22.81485,-7.02905 -30.8798,-8.89654zM73.53048,79.10165l-0.04982,0.0129l-0.25091,0.15055l0.00108,0.01649c0.09965,-0.05986 0.19965,-0.11972 0.29966,-0.17994zM36.96615,69.10291l-0.00358,0.00036h0.00358zM37.08443,69.08893l-0.11829,0.01398l-0.30468,-2.84926l0.12187,-0.01434l0.55917,-0.05377l0.37995,-0.02868l0.38712,-0.02868l0.39429,-0.02151l0.20073,-0.01075l0.20073,-0.00717l0.40862,-0.01434l0.2079,-0.00358l0.12904,-0.00358l0.03943,2.86754l-0.1147,0.00358l-0.37995,0.00717l-0.37278,0.01434l-0.18281,0.00717l-0.35844,0.02151l-0.35127,0.02151l-0.3441,0.02868l-0.16847,0.01434l-0.16847,0.01792zM165.71106,69.00254l-0.00323,0.00036l0.00358,0.00358zM165.88705,68.99215l-0.176,0.01039l-0.17528,-2.86001l0.17922,-0.01075l0.39429,-0.02151l0.20073,-0.01075l0.20073,-0.00717l0.40862,-0.01434l0.41579,-0.00717h0.03943l0.41579,0.00717l0.40862,0.01434l0.20073,0.00717l0.15055,0.00717l-0.13979,2.86395l-0.13262,-0.00717l-0.37278,-0.01434l-0.37995,-0.00717l-0.17205,-0.00358l-0.17205,0.00358l-0.37995,0.00717l-0.37278,0.01434l-0.18281,0.00717zM104.29593,68.9563l-0.26166,-0.00717l0.00358,-0.00358l0.08961,-2.86754l0.276,0.01075l0.20073,0.00717l0.20073,0.01075l0.39429,0.02151l0.38712,0.02868l0.37995,0.02868l0.55917,0.05377l0.36561,0.04301l0.23657,0.02868l-0.38353,2.84245l-0.19714,-0.02509l-0.1613,-0.01792l-0.32977,-0.03584l-0.16847,-0.01792l-0.16847,-0.01434l-0.3441,-0.02868l-0.35127,-0.02151l-0.35844,-0.02151l-0.18281,-0.00717zM98.75083,69.42228l-0.07886,0.01792v-0.01075l-0.58785,-2.8066l0.07886,-0.01792l0.1613,-0.03226l0.32977,-0.06452l0.5054,-0.08603l0.17205,-0.02868l0.17205,-0.02509l0.35127,-0.05018l0.35844,-0.04301l0.36561,-0.04301l0.37278,-0.03584l0.13979,-0.01075l0.24733,2.85678l-0.12187,0.01075l-0.16847,0.01792l-0.32977,0.03584l-0.1613,0.01792l-0.1613,0.02151l-0.31543,0.04301l-0.15413,0.02151l-0.15413,0.02509l-0.30109,0.05018l-0.29392,0.05018l-0.28675,0.05735zM42.58652,69.10685l-0.20431,-0.02151h-0.00358l0.30468,-2.84962l0.22223,0.02509l0.18281,0.02151l0.35844,0.04301l0.35127,0.05018l0.17205,0.02509l0.17205,0.02868l0.5054,0.08603l0.32977,0.06452l0.1613,0.03226l0.3226,0.07169l0.15771,0.03584l0.07527,0.01792l-0.67029,2.78868l-0.18997,-0.04301l-0.13979,-0.03226l-0.27958,-0.05735l-0.28675,-0.05735l-0.29392,-0.05018l-0.30109,-0.05018l-0.15413,-0.02509l-0.15413,-0.02151l-0.31543,-0.04301l-0.1613,-0.02151zM171.28519,69.26098l-0.16847,-0.02509h0.00358l0.44088,-2.83169l0.18639,0.02868l0.5054,0.08603l0.32977,0.06452l0.1613,0.03226l0.3226,0.07169l0.31543,0.07169l0.46239,0.11829l0.15055,0.03943l0.15055,0.04301l0.29392,0.08603l0.1147,0.03584l-0.84592,2.7385l-0.09319,-0.02868l-0.25091,-0.07169l-0.25808,-0.07169l-0.13262,-0.03584l-0.26525,-0.06452l-0.27242,-0.06452l-0.13979,-0.03226l-0.27958,-0.05735l-0.28675,-0.05735l-0.29392,-0.05018zM160.6072,69.9456l-0.13979,0.0466l-0.00358,-0.00717l-0.93195,-2.70982l0.1613,-0.05377l0.43013,-0.13979l0.44088,-0.12904l0.15055,-0.04301l0.15055,-0.03943l0.46239,-0.11829l0.31543,-0.07169l0.3226,-0.07169l0.1613,-0.03226l0.16488,-0.03226l0.23299,-0.04301l0.50182,2.82452l-0.18997,0.03584l-0.14338,0.02868l-0.27958,0.05735l-0.13979,0.03226l-0.27242,0.06452l-0.26525,0.06452l-0.13262,0.03584l-0.25808,0.07169l-0.25091,0.07169l-0.12545,0.03943l-0.24374,0.07886zM31.83504,70.38936l-0.00179,0.00072l0.00358,0.00358zM31.98021,70.32914l-0.14517,0.06022l-1.1273,-2.63383l0.16488,-0.07169l0.12904,-0.05377l0.26525,-0.10753l0.40862,-0.15055l0.27958,-0.10036l0.13979,-0.0466l0.43013,-0.13979l0.44088,-0.12904l0.15055,-0.04301l0.15055,-0.03943l0.30826,-0.07886l0.07886,-0.02151l0.67029,2.78868l-0.18997,0.0466l-0.13262,0.03584l-0.25808,0.07169l-0.25091,0.07169l-0.12545,0.03943l-0.24374,0.07886l-0.35486,0.11829l-0.3441,0.12904l-0.33335,0.12904zM109.43599,69.68394l-0.06452,-0.01792l-0.00717,0.00358l0.7599,-2.76717l0.06452,0.01792l0.15055,0.04301l0.44088,0.12904l0.43013,0.13979l0.13979,0.0466l0.27958,0.10036l0.40862,0.15055l0.26525,0.10753l0.38712,0.1613l0.12904,0.05735l0.12545,0.05735l0.10395,0.0466l-1.21153,2.59871l-0.08244,-0.03943l-0.10395,-0.0466l-0.3226,-0.13979l-0.11112,-0.0466l-0.33335,-0.12904l-0.3441,-0.12904l-0.35486,-0.11829l-0.24374,-0.07886l-0.12545,-0.03943l-0.25091,-0.07169zM93.97638,71.23958l-0.17205,0.10395l-0.00358,-0.00717l-1.48395,-2.45533l0.07886,-0.0466l0.33335,-0.19356l0.45881,-0.25808l0.35486,-0.18281l0.24374,-0.12187l0.12187,-0.05735l0.37636,-0.17205l0.12904,-0.05735l0.38712,-0.1613l0.13262,-0.05377l0.18639,-0.07169l1.02156,2.68115l-0.14338,0.05735l-0.11112,0.04301l-0.11112,0.0466l-0.3226,0.13979l-0.2079,0.09319l-0.10395,0.05018l-0.40146,0.20073l-0.19356,0.10036l-0.29034,0.1613zM47.63339,70.37574l-0.11112,-0.0466h-0.00717l1.12909,-2.63813l0.11112,0.0466l0.12904,0.05377l0.12904,0.05735l0.37636,0.17205l0.12187,0.05735l0.24374,0.12187l0.35486,0.18281l0.45881,0.25808l0.33335,0.19356l0.3226,0.20431l0.17205,0.11112l-1.56639,2.40156c-0.07527,-0.05018 -0.15055,-0.09678 -0.2294,-0.14696l-0.08961,-0.05735l-0.09319,-0.05735l-0.37278,-0.21507l-0.29034,-0.1613l-0.19356,-0.10036l-0.40146,-0.20073l-0.10395,-0.05018l-0.2079,-0.09319zM176.26396,70.8668l-0.13262,-0.0681l0.00717,-0.00717l1.3119,-2.54852l0.15055,0.07886l0.11829,0.06094l0.45881,0.25808l0.33335,0.19356l0.43013,0.27242l0.41579,0.27242l0.40146,0.28675l0.19714,0.14338l0.12187,0.09319l-1.72769,2.29045c-0.14338,-0.10753 -0.29034,-0.21148 -0.4373,-0.31543c-0.08603,-0.06094 -0.17564,-0.12187 -0.26166,-0.17922l-0.17564,-0.11829l-0.35844,-0.2294l-0.09319,-0.05735l-0.37278,-0.21507l-0.29034,-0.1613zM155.90659,72.53893c-0.00072,0.00072 -0.00143,0.00108 -0.00215,0.00179h0.00358zM156.79696,71.87402c-0.30396,0.21435 -0.59716,0.43264 -0.89037,0.66491l-1.77286,-2.24922c0.2079,-0.16488 0.41579,-0.3226 0.62727,-0.48031l0.19714,-0.14338l0.40146,-0.28675l0.41579,-0.27242l0.43013,-0.27242l0.33335,-0.19356l0.15413,-0.08961l1.39076,2.5091l-0.11829,0.0681l-0.27958,0.1613l-0.09319,0.05735l-0.35844,0.2294l-0.17564,0.11829c-0.08961,0.06094 -0.17564,0.11829 -0.26166,0.17922zM27.42646,73.27016c-0.00068,0.00072 -0.00136,0.00108 -0.00204,0.00179h0.00358zM29.19512,71.87044c-0.6158,0.43694 -1.19938,0.9022 -1.76866,1.39972l-1.8767,-2.1632c0.52333,-0.45522 1.05382,-0.88535 1.60941,-1.29756l0.19714,-0.14338l0.40146,-0.28675l0.10395,-0.0681l0.11112,-0.07527l1.56639,2.40156l0.00717,-0.00358l-0.08961,0.05735c-0.08961,0.06094 -0.17564,0.11829 -0.26166,0.17922zM116.1998,73.55512c-0.67029,-0.59501 -1.36208,-1.17569 -2.10047,-1.68826h-0.00358l1.64525,-2.3478l0.11112,0.07886l0.10036,0.07169l0.19714,0.14338c0.68462,0.5054 1.32624,1.03948 1.96068,1.60582zM91.66084,72.89917c-0.7133,0.5986 -1.39076,1.22946 -2.06821,1.8639l-1.96068,-2.0933c0.72047,-0.67029 1.43735,-1.33699 2.19367,-1.97143zM54.03875,75.06774c-0.68821,-0.64161 -1.36925,-1.28681 -2.07896,-1.89974h0.00358l1.87824,-2.16499c0.73481,0.63444 1.44094,1.30473 2.15424,1.96785zM182.54745,75.9065c-0.70972,-0.64161 -1.40509,-1.30831 -2.11122,-1.95709v-0.00358l1.93917,-2.11122c0.70255,0.6452 1.38717,1.30473 2.0933,1.94276zM153.83623,74.35086c-0.70972,0.65953 -1.40868,1.32624 -2.13632,1.96785v-0.00358l-1.89974,-2.14707c0.70972,-0.62369 1.39076,-1.27605 2.08255,-1.91767zM25.34903,75.17528c-0.72047,0.67387 -1.45528,1.33699 -2.22234,1.96068v0.00358l-1.81013,-2.22593c0.71688,-0.58426 1.40151,-1.20437 2.07538,-1.83522zM120.55487,77.44063c-0.78499,-0.61294 -1.53413,-1.27605 -2.26535,-1.95351l1.94634,-2.10764c0.67029,0.62011 1.35491,1.22946 2.07538,1.79221zM84.9784,78.55718l-0.00251,0.00179h0.00358zM85.16228,78.4371l-0.18388,0.12008l-1.56532,-2.39977c0.11829,-0.07527 0.23657,-0.15413 0.35486,-0.23299c0.62727,-0.43013 1.21512,-0.88535 1.7958,-1.37642l1.85315,2.1865c-0.49465,0.41938 -0.99647,0.81725 -1.51979,1.1972l-0.20431,0.14696l-0.2079,0.14338zM57.4081,77.92811c-0.39429,-0.28675 -0.77424,-0.58426 -1.15418,-0.89252l-0.00358,0.00358l1.81013,-2.22593c0.48031,0.3907 0.96421,0.75631 1.47678,1.10759c0.08961,0.06094 0.18281,0.12187 0.276,0.18281l0.18997,0.12187l0.09678,0.06094l0.12904,0.07886l-1.48395,2.45533l-0.1613,-0.10036l-0.33335,-0.21507l-0.43013,-0.28675l-0.2079,-0.14338zM37.69378,78.54427l-0.00358,0.00036h0.00358zM37.81207,78.5303l-0.11829,0.01398l-0.30468,-2.84926l0.12187,-0.01434l0.55917,-0.05377l0.37995,-0.02868l0.38712,-0.02868l0.39429,-0.02151l0.20073,-0.01075l0.20073,-0.00717l0.40862,-0.01434l0.2079,-0.00358l0.12904,-0.00358l0.03943,2.86754l-0.1147,0.00358l-0.37995,0.00717l-0.37278,0.01434l-0.18281,0.00717l-0.35844,0.02151l-0.35127,0.02151l-0.3441,0.02868l-0.16847,0.01434l-0.16847,0.01792zM185.01353,77.9317l-0.14338,-0.10395h-0.00358l1.69543,-2.31195c0.18997,0.13979 0.38353,0.276 0.57709,0.40862c0.08961,0.06094 0.18281,0.12187 0.276,0.18281l0.18997,0.12187l0.09678,0.06094l0.19356,0.11829l0.09678,0.05735l0.50182,0.28675l0.10395,0.05735l0.2079,0.10753l-1.32265,2.54494l-0.36561,-0.19356l-0.47314,-0.27242l-0.3441,-0.20431l-0.11112,-0.0681l-0.33335,-0.21507l-0.43013,-0.28675l-0.2079,-0.14338zM166.43511,78.45108l-0.00323,0.00036l0.00358,0.00358zM166.61111,78.44069l-0.176,0.01039l-0.17528,-2.86001l0.17922,-0.01075l0.39429,-0.02151l0.20073,-0.01075l0.20073,-0.00717l0.40862,-0.01434l0.41579,-0.00717h0.03943l0.41579,0.00717l0.40862,0.01434l0.20073,0.00717l0.15055,0.00717l-0.13979,2.86395l-0.13262,-0.00717l-0.37278,-0.01434l-0.37995,-0.00717l-0.17205,-0.00358l-0.17205,0.00358l-0.37995,0.00717l-0.37278,0.01434l-0.18281,0.00717zM105.01998,78.40126l-0.26166,-0.00717l0.00358,-0.00358l0.08961,-2.86754l0.276,0.01075l0.20073,0.00717l0.20073,0.01075l0.39429,0.02151l0.38712,0.02868l0.37995,0.02868l0.55917,0.05377l0.36561,0.04301l0.23657,0.02868l-0.38353,2.84245l-0.19714,-0.02509l-0.1613,-0.01792l-0.32977,-0.03584l-0.16847,-0.01792l-0.16847,-0.01434l-0.3441,-0.02868l-0.35127,-0.02151l-0.35844,-0.02151l-0.18281,-0.00717zM99.47488,78.86723l-0.07886,0.01792v-0.01075l-0.58785,-2.8066l0.07886,-0.01792l0.1613,-0.03226l0.32977,-0.06452l0.5054,-0.08603l0.17205,-0.02868l0.17205,-0.02509l0.35127,-0.05018l0.35844,-0.04301l0.36561,-0.04301l0.37278,-0.03584l0.13979,-0.01075l0.24733,2.85678l-0.12187,0.01075l-0.16847,0.01792l-0.32977,0.03584l-0.1613,0.01792l-0.1613,0.02151l-0.31543,0.04301l-0.15413,0.02151l-0.15413,0.02509l-0.30109,0.05018l-0.29392,0.05018l-0.28675,0.05735zM43.31416,78.54822l-0.20431,-0.02151h-0.00358l0.30468,-2.84962l0.22223,0.02509l0.18281,0.02151l0.35844,0.04301l0.35127,0.05018l0.17205,0.02509l0.17205,0.02868l0.5054,0.08603l0.32977,0.06452l0.1613,0.03226l0.3226,0.07169l0.15771,0.03584l0.07527,0.01792l-0.67029,2.78868l-0.18997,-0.04301l-0.13979,-0.03226l-0.27958,-0.05735l-0.28675,-0.05735l-0.29392,-0.05018l-0.30109,-0.05018l-0.15413,-0.02509l-0.15413,-0.02151l-0.31543,-0.04301l-0.1613,-0.02151zM146.97564,79.59128l-0.09678,0.03943l-0.00717,-0.00358l-1.29398,-2.55211l0.10395,-0.05018l0.21507,-0.10753l0.2079,-0.10753l0.10395,-0.05735l0.50182,-0.28675l0.09678,-0.05735l0.19356,-0.11829l0.09678,-0.06094l0.18997,-0.12187c0.09319,-0.06094 0.18281,-0.12187 0.276,-0.18281l0.1147,-0.07886l1.63808,2.35138l-0.13979,0.09678l-0.3226,0.21507l-0.33335,0.21507l-0.11112,0.0681l-0.3441,0.20431l-0.47314,0.27242l-0.36561,0.19356zM172.00925,78.70952l-0.16847,-0.02509h0.00358l0.44088,-2.83169l0.18639,0.02868l0.5054,0.08603l0.32977,0.06452l0.1613,0.03226l0.3226,0.07169l0.31543,0.07169l0.46239,0.11829l0.15055,0.03943l0.15055,0.04301l0.29392,0.08603l0.1147,0.03584l-0.84592,2.7385l-0.09319,-0.02868l-0.25091,-0.07169l-0.25808,-0.07169l-0.13262,-0.03584l-0.26525,-0.06452l-0.27242,-0.06452l-0.13979,-0.03226l-0.27958,-0.05735l-0.28675,-0.05735l-0.29392,-0.05018zM161.33125,79.39414l-0.13979,0.0466l-0.00358,-0.00717l-0.93195,-2.70982l0.1613,-0.05377l0.43013,-0.13979l0.44088,-0.12904l0.15055,-0.04301l0.15055,-0.03943l0.46239,-0.11829l0.31543,-0.07169l0.3226,-0.07169l0.1613,-0.03226l0.16488,-0.03226l0.23299,-0.04301l0.50182,2.82452l-0.18997,0.03584l-0.14338,0.02868l-0.27958,0.05735l-0.13979,0.03226l-0.27242,0.06452l-0.26525,0.06452l-0.13262,0.03584l-0.25808,0.07169l-0.25091,0.07169l-0.12545,0.03943l-0.24374,0.07886zM32.56268,79.83072l-0.00179,0.00072l0.00358,0.00358zM32.70785,79.77051l-0.14517,0.06022l-1.1273,-2.63383l0.16488,-0.07169l0.12904,-0.05377l0.26525,-0.10753l0.40862,-0.15055l0.27958,-0.10036l0.13979,-0.0466l0.43013,-0.13979l0.44088,-0.12904l0.15055,-0.04301l0.15055,-0.03943l0.30826,-0.07886l0.07886,-0.02151l0.67029,2.78868l-0.18997,0.0466l-0.13262,0.03584l-0.25808,0.07169l-0.25091,0.07169l-0.12545,0.03943l-0.24374,0.07886l-0.35486,0.11829l-0.3441,0.12904l-0.33335,0.12904zM110.16004,79.12889l-0.06452,-0.01792l-0.00717,0.00358l0.7599,-2.76717l0.06452,0.01792l0.15055,0.04301l0.44088,0.12904l0.43013,0.13979l0.13979,0.0466l0.27958,0.10036l0.40862,0.15055l0.26525,0.10753l0.38712,0.1613l0.12904,0.05735l0.12545,0.05735l0.10395,0.0466l-1.21153,2.59871l-0.08244,-0.03943l-0.10395,-0.0466l-0.3226,-0.13979l-0.11112,-0.0466l-0.33335,-0.12904l-0.3441,-0.12904l-0.35486,-0.11829l-0.24374,-0.07886l-0.12545,-0.03943l-0.25091,-0.07169zM17.91136,80.24723l-0.06452,0.02509l-0.00717,-0.00358l-1.06816,-2.65964l0.18281,-0.07527l0.23657,-0.10036l0.3441,-0.15055l0.11112,-0.05018l0.22223,-0.10753l0.43013,-0.21507l0.2079,-0.10753l0.10395,-0.05735l0.40146,-0.2294l0.12187,-0.07169l1.48395,2.45533l-0.15771,0.09319l-0.47314,0.27242l-0.36561,0.19356l-0.37636,0.19356l-0.38712,0.18281l-0.39787,0.18281l-0.40862,0.17205zM123.19659,79.20058l-0.08244,-0.0466l-0.01434,0.00358l1.39792,-2.50551l0.18639,0.10395l0.10395,0.05735l0.2079,0.10753l0.43013,0.21507l0.22223,0.10753l0.11112,0.05018l0.3441,0.15055l0.23657,0.10036l0.11829,0.0466l0.36561,0.13979l0.07527,0.02868l-0.9893,2.6919l-0.09319,-0.03584l-0.28675,-0.10753l-0.27958,-0.1147l-0.40862,-0.17205l-0.39787,-0.18281l-0.38712,-0.18281l-0.37636,-0.19356l-0.36561,-0.19356zM94.70043,80.68453l-0.17205,0.10395l-0.00358,-0.00717l-1.48395,-2.45533l0.07886,-0.0466l0.33335,-0.19356l0.45881,-0.25808l0.35486,-0.18281l0.24374,-0.12187l0.12187,-0.05735l0.37636,-0.17205l0.12904,-0.05735l0.38712,-0.1613l0.13262,-0.05377l0.18639,-0.07169l1.02156,2.68115l-0.14338,0.05735l-0.11112,0.04301l-0.11112,0.0466l-0.3226,0.13979l-0.2079,0.09319l-0.10395,0.05018l-0.40146,0.20073l-0.19356,0.10036l-0.29034,0.1613zM48.36102,79.8171l-0.11112,-0.0466h-0.00717l1.12909,-2.63813l0.11112,0.0466l0.12904,0.05377l0.12904,0.05735l0.37636,0.17205l0.12187,0.05735l0.24374,0.12187l0.35486,0.18281l0.45881,0.25808l0.33335,0.19356l0.3226,0.20431l0.17205,0.11112l-1.56639,2.40156c-0.07527,-0.05018 -0.15055,-0.09678 -0.2294,-0.14696l-0.08961,-0.05735l-0.09319,-0.05735l-0.37278,-0.21507l-0.29034,-0.1613l-0.19356,-0.10036l-0.40146,-0.20073l-0.10395,-0.05018l-0.2079,-0.09319zM79.45947,81.00713l-0.11112,0.02868l-0.00358,-0.00358l-0.76707,-2.76359l0.11112,-0.02868l0.27958,-0.07886l0.13621,-0.03943l0.13621,-0.04301l0.39787,-0.12904l0.25808,-0.08603l0.37636,-0.13979l0.36561,-0.13979l0.11829,-0.0466l0.23657,-0.10036l0.10036,-0.04301l1.1506,2.62738l-0.12187,0.05377l-0.27242,0.1147l-0.27958,0.1147l-0.43013,0.1613l-0.29392,0.10753l-0.14696,0.05018l-0.30109,0.10036l-0.15413,0.05018l-0.30826,0.09319l-0.31543,0.09319zM61.59829,80.24723l-0.08603,-0.03584h-0.00358l1.06816,-2.65964l0.08603,0.03584l0.36561,0.13979l0.37636,0.13979l0.25808,0.08603l0.39787,0.12904l0.13621,0.04301l0.13621,0.03943l0.27958,0.07886l0.28675,0.07886l0.21507,0.05377l-0.97138,2.68832l-0.13262,-0.01434l-0.1613,-0.04301l-0.1613,-0.0466l-0.31543,-0.09319l-0.30826,-0.09319l-0.15413,-0.05018l-0.30109,-0.10036l-0.14696,-0.05018l-0.29392,-0.10753l-0.43013,-0.1613zM176.98801,80.31534l-0.13262,-0.0681l0.00717,-0.00717l1.3119,-2.54852l0.15055,0.07886l0.11829,0.06094l0.45881,0.25808l0.33335,0.19356l0.43013,0.27242l0.41579,0.27242l0.40146,0.28675l0.19714,0.14338l0.12187,0.09319l-1.72769,2.29045c-0.14338,-0.10753 -0.29034,-0.21148 -0.4373,-0.31543c-0.08603,-0.06094 -0.17564,-0.12187 -0.26166,-0.17922l-0.17564,-0.11829l-0.35844,-0.2294l-0.09319,-0.05735l-0.37278,-0.21507l-0.29034,-0.1613zM190.51203,80.72755l-0.18281,-0.06094l0.90686,-2.72058l0.1613,0.05377l0.26525,0.08603l0.13621,0.04301l0.13621,0.03943l0.27958,0.07886l0.28675,0.07886l0.14338,0.03584l0.29392,0.07169l0.30109,0.07169l0.30826,0.06452l0.15771,0.03226l0.12545,0.02509l-0.54842,2.81377l-0.14338,-0.02868l-0.35127,-0.07169l-0.3441,-0.07886l-0.33694,-0.07886l-0.49465,-0.12904l-0.1613,-0.04301l-0.1613,-0.0466l-0.31543,-0.09319l-0.30826,-0.09319zM156.63064,81.98747c-0.00072,0.00072 -0.00143,0.00108 -0.00215,0.00179h0.00358zM157.52101,81.32256c-0.30396,0.21435 -0.59716,0.43264 -0.89037,0.66491l-1.77286,-2.24922c0.2079,-0.16488 0.41579,-0.3226 0.62727,-0.48031l0.19714,-0.14338l0.40146,-0.28675l0.41579,-0.27242l0.43013,-0.27242l0.33335,-0.19356l0.15413,-0.08961l1.39076,2.5091l-0.11829,0.0681l-0.27958,0.1613l-0.09319,0.05735l-0.35844,0.2294l-0.17564,0.11829c-0.08961,0.06094 -0.17564,0.11829 -0.26166,0.17922zM141.03984,81.51612l-0.23299,0.03943l-0.49465,-2.82452l0.21507,-0.03943l0.1613,-0.02868l0.1613,-0.03226l0.31543,-0.06452l0.30826,-0.06452l0.30109,-0.07169l0.29392,-0.07169l0.14338,-0.03584l0.28675,-0.07886l0.21507,-0.06094l1.06099,2.67756l-0.19356,0.05735l-0.15771,0.0466l-0.1613,0.0466l-0.1613,0.04301l-0.49465,0.12904l-0.33694,0.07886l-0.3441,0.07886l-0.52691,0.10753l-0.17922,0.03584zM0.15771,81.03581l-0.15771,-0.04301l0.77065,-2.76001h0.00358c0.86743,0.24016 1.74561,0.42296 2.63455,0.56275l-0.44088,2.83169c-0.94629,-0.14696 -1.88541,-0.34052 -2.81019,-0.59143zM12.12252,81.71685l-0.17205,0.02151l-0.00717,-0.00358l-0.38353,-2.84245l0.17205,-0.02151l0.17564,-0.02509l0.3441,-0.05018l0.16847,-0.02509l0.16847,-0.02868l0.32977,-0.05735l0.1613,-0.02868l0.1613,-0.03226l0.31543,-0.06452l0.30826,-0.06452l0.15055,-0.03584l0.21865,-0.05018l0.68462,2.7851l-0.08603,0.02151l-0.16847,0.03943l-0.3441,0.07886l-0.52691,0.10753l-0.17922,0.03584l-0.17922,0.03226l-0.36561,0.06452l-0.18639,0.03226l-0.18639,0.02868l-0.37995,0.05735zM128.98543,81.3369l-0.12545,-0.02868l-0.00358,0.00717l0.60577,-2.80302l0.12545,0.02868l0.15413,0.03226l0.31543,0.06452l0.1613,0.03226l0.1613,0.02868l0.32977,0.05735l0.16847,0.02868l0.16847,0.02509l0.3441,0.05018l0.17564,0.02509l0.17564,0.02151l0.17922,0.02151l0.22582,0.02509l-0.31184,2.84962l-0.26166,-0.03226l-0.19714,-0.02509l-0.38712,-0.05018l-0.37995,-0.05735l-0.18639,-0.02868l-0.18639,-0.03226l-0.36561,-0.06452l-0.17922,-0.03226l-0.17922,-0.03584zM28.15409,82.71152c-0.00068,0.00072 -0.00136,0.00108 -0.00204,0.00179h0.00358zM29.92276,81.31181c-0.6158,0.43694 -1.19935,0.9022 -1.76866,1.39972l-1.8767,-2.1632c0.52333,-0.45522 1.05382,-0.88535 1.60941,-1.29756l0.19714,-0.14338l0.40146,-0.28675l0.10395,-0.0681l0.11112,-0.07527l1.56639,2.40156l0.00717,-0.00358l-0.08961,0.05735c-0.08961,0.06094 -0.17564,0.11829 -0.26166,0.17922zM116.92385,83.00007c-0.67029,-0.59501 -1.36208,-1.17569 -2.10047,-1.68826h-0.00358l1.64525,-2.3478l0.11112,0.07886l0.10036,0.07169l0.19714,0.14338c0.68462,0.5054 1.32624,1.03948 1.96068,1.60582zM196.37256,81.87456l-0.11829,-0.01075l0.26166,-2.85678l0.11829,0.01075l0.18997,0.01792l0.38712,0.02868l0.39429,0.02868l0.20073,0.01075l0.40862,0.02151l0.2079,0.01075l0.2079,0.00717l0.21148,0.00717l0.21507,0.00717l0.21507,0.00358l-0.05735,2.86754l-0.2294,-0.00358l-0.2294,-0.00717l-0.45164,-0.01434l-0.44447,-0.02151l-0.21865,-0.01075l-0.43013,-0.02868l-0.21148,-0.01434l-0.21148,-0.01792zM134.96783,82.01794l-0.1613,-0.00358l-0.00358,0.00358l0.00358,-0.13621c-0.29751,-0.15055 -0.54125,-0.40146 -0.67746,-0.72764c-0.31184,-0.7599 0.06452,-1.57356 0.75631,-1.87107l0.00358,-0.13262l0.1613,0.00358l0.21507,0.00717l0.18639,0.00358l0.18639,-0.00358l0.21507,-0.00717l0.21148,-0.00717l0.2079,-0.00717l0.2079,-0.01075l0.40862,-0.02151l0.20073,-0.01075l0.39429,-0.02868l0.11112,-0.00717l0.2294,2.85678l-0.12545,0.01075l-0.21148,0.01434l-0.43013,0.02868l-0.21865,0.01075l-0.44447,0.02151l-0.45164,0.01434l-0.2294,0.00717l-0.2294,0.00358c-0.09319,0 -0.18997,0 -0.28675,-0.00358zM5.94677,81.94983c-0.00007,0 -0.00014,0 -0.00022,0v0.00358zM5.94677,81.94983c0.63437,0.03943 1.29742,0.07886 1.93537,0.07886l0.2294,-0.00358l0.2294,-0.00717l0.45164,-0.01434l0.17564,-0.00717l-0.13262,-2.86395l-0.1613,0.00717l-0.2079,0.00717l-0.21148,0.00717l-0.21507,0.00717l-0.18997,0.00358c-0.57351,-0.01075 -1.14702,-0.03584 -1.72052,-0.07169zM92.3849,82.34412c-0.7133,0.5986 -1.39076,1.22946 -2.06821,1.8639l-1.96068,-2.0933c0.72047,-0.67029 1.43735,-1.33699 2.19367,-1.97143zM54.76639,84.50911c-0.68821,-0.64161 -1.36925,-1.28681 -2.07896,-1.89974h0.00358l1.87824,-2.16499c0.73481,0.63444 1.44094,1.30473 2.15424,1.96785zM183.2715,85.35504c-0.70972,-0.64161 -1.40509,-1.30831 -2.11122,-1.95709v-0.00358l1.93917,-2.11122c0.70255,0.6452 1.38717,1.30473 2.0933,1.94276zM26.07667,84.61664c-0.72047,0.67387 -1.45528,1.33699 -2.22234,1.96068v0.00358l-1.81013,-2.22593c0.71688,-0.58426 1.40151,-1.20437 2.07538,-1.83522zM121.27892,86.88558c-0.78499,-0.61294 -1.53413,-1.27605 -2.26535,-1.95351l1.94634,-2.10764c0.67029,0.62011 1.35491,1.22946 2.07538,1.79221zM85.70246,88.00213l-0.00251,0.00179h0.00358zM85.88634,87.88205l-0.18388,0.12008l-1.56532,-2.39977c0.11829,-0.07527 0.23657,-0.15413 0.35486,-0.23299c0.62727,-0.43013 1.21512,-0.88535 1.7958,-1.37642l1.85315,2.1865c-0.49465,0.41938 -0.99647,0.81725 -1.51979,1.1972l-0.20431,0.14696l-0.2079,0.14338zM185.73758,87.38023l-0.14338,-0.10395h-0.00358l1.69543,-2.31195c0.18997,0.13979 0.38353,0.276 0.57709,0.40862c0.08961,0.06094 0.18281,0.12187 0.276,0.18281l0.18997,0.12187l0.09678,0.06094l0.19356,0.11829l0.09678,0.05735l0.50182,0.28675l0.10395,0.05735l0.2079,0.10753l-1.32265,2.54494l-0.36561,-0.19356l-0.47314,-0.27242l-0.3441,-0.20431l-0.11112,-0.0681l-0.33335,-0.21507l-0.43013,-0.28675l-0.2079,-0.14338zM18.63899,89.6886l-0.06452,0.02509l-0.00717,-0.00358l-1.06816,-2.65964l0.18281,-0.07527l0.23657,-0.10036l0.3441,-0.15055l0.11112,-0.05018l0.22223,-0.10753l0.43013,-0.21507l0.2079,-0.10753l0.10395,-0.05735l0.40146,-0.2294l0.12187,-0.07169l1.48395,2.45533l-0.15771,0.09319l-0.47314,0.27242l-0.36561,0.19356l-0.37636,0.19356l-0.38712,0.18281l-0.39787,0.18281l-0.40862,0.17205zM123.92064,88.64553l-0.08244,-0.0466l-0.01434,0.00358l1.39792,-2.50551l0.18639,0.10395l0.10395,0.05735l0.2079,0.10753l0.43013,0.21507l0.22223,0.10753l0.11112,0.05018l0.3441,0.15055l0.23657,0.10036l0.11829,0.0466l0.36561,0.13979l0.07527,0.02868l-0.9893,2.6919l-0.09319,-0.03584l-0.28675,-0.10753l-0.27958,-0.1147l-0.40862,-0.17205l-0.39787,-0.18281l-0.38712,-0.18281l-0.37636,-0.19356l-0.36561,-0.19356zM80.18352,90.45208l-0.11112,0.02868l-0.00358,-0.00358l-0.76707,-2.76359l0.11112,-0.02868l0.27958,-0.07886l0.13621,-0.03943l0.13621,-0.04301l0.39787,-0.12904l0.25808,-0.08603l0.37636,-0.13979l0.36561,-0.13979l0.11829,-0.0466l0.23657,-0.10036l0.10036,-0.04301l1.1506,2.62738l-0.12187,0.05377l-0.27242,0.1147l-0.27958,0.1147l-0.43013,0.1613l-0.29392,0.10753l-0.14696,0.05018l-0.30109,0.10036l-0.15413,0.05018l-0.30826,0.09319l-0.31543,0.09319zM62.32235,89.69219l-0.08603,-0.03584l-0.00358,-0.00358l1.06816,-2.65964l0.08603,0.03584l0.36561,0.13979l0.37636,0.13979l0.25808,0.08603l0.39787,0.12904l0.13621,0.04301l0.13621,0.03943l0.27958,0.07886l0.28675,0.07886l0.21507,0.05377l-0.68462,2.7851l-0.08961,-0.02151l-0.32977,-0.08603l-0.1613,-0.04301l-0.1613,-0.0466l-0.31543,-0.09319l-0.30826,-0.09319l-0.15413,-0.05018l-0.30109,-0.10036l-0.14696,-0.05018l-0.29392,-0.10753l-0.43013,-0.1613zM191.23609,90.17608l-0.18281,-0.06094l0.90686,-2.72058l0.1613,0.05377l0.26525,0.08603l0.13621,0.04301l0.13621,0.03943l0.27958,0.07886l0.28675,0.07886l0.14338,0.03584l0.29392,0.07169l0.30109,0.07169l0.30826,0.06452l0.15771,0.03226l0.12545,0.02509l-0.54842,2.81377l-0.14338,-0.02868l-0.35127,-0.07169l-0.3441,-0.07886l-0.33694,-0.07886l-0.49465,-0.12904l-0.1613,-0.04301l-0.1613,-0.0466l-0.31543,-0.09319l-0.30826,-0.09319zM141.76389,90.96107l-0.23299,0.03943l-0.00358,0.00358l-0.49465,-2.82452l0.21507,-0.03943l0.1613,-0.02868l0.1613,-0.03226l0.31543,-0.06452l0.30826,-0.06452l0.30109,-0.07169l0.29392,-0.07169l0.14338,-0.03584l0.28675,-0.07886l0.27958,-0.07886l0.15413,-0.0466l0.84592,2.7385l-0.19356,0.05735l-0.15771,0.0466l-0.1613,0.0466l-0.1613,0.04301l-0.49465,0.12904l-0.33694,0.07886l-0.3441,0.07886l-0.52691,0.10753l-0.17922,0.03584zM0.72857,90.43452c-0.00032,-0.00036 -0.00061,-0.00036 -0.00093,-0.00036v0.00358zM0.72857,90.43452c0.97822,0.27206 1.96365,0.47995 2.96697,0.63408l0.44088,-2.83169c-0.89252,-0.13979 -1.76712,-0.3226 -2.63813,-0.56275zM12.85015,91.15821l-0.17205,0.02151l-0.00717,-0.00358l-0.38353,-2.84245l0.17205,-0.02151l0.17564,-0.02509l0.3441,-0.05018l0.16847,-0.02509l0.16847,-0.02868l0.32977,-0.05735l0.1613,-0.02868l0.1613,-0.03226l0.31543,-0.06452l0.30826,-0.06452l0.15055,-0.03584l0.21865,-0.05018l0.68462,2.7851l-0.08603,0.02151l-0.16847,0.03943l-0.3441,0.07886l-0.52691,0.10753l-0.17922,0.03584l-0.17922,0.03226l-0.36561,0.06452l-0.18639,0.03226l-0.18639,0.02868l-0.37995,0.05735zM129.70948,90.78185l-0.12545,-0.02868l-0.00358,0.00717l0.60577,-2.80302l0.12545,0.02868l0.15413,0.03226l0.31543,0.06452l0.1613,0.03226l0.1613,0.02868l0.32977,0.05735l0.16847,0.02868l0.16847,0.02509l0.3441,0.05018l0.17564,0.02509l0.17564,0.02151l0.17922,0.02151l0.22582,0.02509l-0.31184,2.84962l-0.26166,-0.03226l-0.19714,-0.02509l-0.38712,-0.05018l-0.37995,-0.05735l-0.18639,-0.02868l-0.18639,-0.03226l-0.36561,-0.06452l-0.17922,-0.03226l-0.17922,-0.03584zM74.4126,91.38762l-0.29034,0.01792v-0.00717l-0.17922,-2.86037l0.27242,-0.01792l0.19714,-0.01434l0.38712,-0.02868l0.37995,-0.03584l0.18639,-0.01792l0.18281,-0.01792l0.18281,-0.02151l0.35844,-0.04301l0.17564,-0.02151l0.40146,-0.05735l0.4373,2.83528l-0.26166,0.03943l-0.38712,0.05018l-0.39429,0.05018l-0.40146,0.04301l-0.20431,0.02151l-0.20431,0.01792l-0.41579,0.03584l-0.21148,0.01792zM68.12947,91.16538h-0.00036v0.00358zM68.12947,91.16538l0.17169,0.02151l0.39429,0.05018l0.40146,0.04301l0.20431,0.02151l0.20431,0.01792l0.41579,0.03584l0.21148,0.01792l0.21148,0.01434l0.43013,0.02868l0.21865,0.01075l0.10753,0.00358l0.13262,-2.86395l-0.29392,-0.01434l-0.20073,-0.01075l-0.39429,-0.02868l-0.38712,-0.02868l-0.37995,-0.03584l-0.18639,-0.01792l-0.18281,-0.01792l-0.18281,-0.02151l-0.35844,-0.04301l-0.17205,-0.02151zM197.1002,91.31951l-0.11829,-0.01075l0.26166,-2.85678l0.11829,0.01075l0.18997,0.01792l0.38712,0.02868l0.39429,0.02868l0.20073,0.01075l0.40862,0.02151l0.2079,0.01075l0.2079,0.00717l0.21148,0.00717l0.21507,0.00717l0.21507,0.00358l-0.05735,2.86754l-0.2294,-0.00358l-0.2294,-0.00717l-0.45164,-0.01434l-0.44447,-0.02151l-0.21865,-0.01075l-0.43013,-0.02868l-0.21148,-0.01434l-0.21148,-0.01792zM135.69188,91.46289l-0.1613,-0.00358l-0.00358,0.00358l0.00358,-0.13621c-0.29751,-0.15055 -0.54125,-0.40146 -0.67746,-0.72764c-0.31184,-0.7599 0.06452,-1.57356 0.75631,-1.87107l0.00358,-0.13262l0.1613,0.00358l0.21507,0.00717l0.18639,0.00358l0.18639,-0.00358l0.21507,-0.00717l0.21148,-0.00717l0.2079,-0.00717l0.2079,-0.01075l0.40862,-0.02151l0.20073,-0.01075l0.39429,-0.02868l0.11112,-0.00717l0.2294,2.85678l-0.12545,0.01075l-0.21148,0.01434l-0.43013,0.02868l-0.21865,0.01075l-0.44447,0.02151l-0.45164,0.01434l-0.2294,0.00717l-0.2294,0.00358c-0.09319,0 -0.18997,0 -0.28675,-0.00358zM8.6062,91.47006c-0.63444,0 -1.30115,-0.03943 -1.93559,-0.07886l-0.00358,0.00358l0.18639,-2.86037c0.57351,0.03584 1.14702,0.06094 1.72052,0.07169l0.18997,-0.00358l0.21507,-0.00717l0.21148,-0.00717l0.2079,-0.00717l0.1613,-0.00717l0.13262,2.86395l-0.17564,0.00717l-0.45164,0.01434l-0.2294,0.00717zM65.7383,132.75185c-0.08961,0.2398 -0.1147,0.49393 -0.07205,0.74054c-0.12151,1.22874 -0.24697,2.45031 -0.38317,3.66113c-1.12909,10.06864 -2.87112,19.44549 -5.12572,28.44956c-0.83875,1.63808 -2.07538,2.51985 -3.35143,2.79226c-0.72764,0.15413 -1.48037,0.1147 -2.17574,-0.09319c-0.69538,-0.2079 -1.33341,-0.58068 -1.84239,-1.09683c-0.87101,-0.88177 -1.37283,-2.19725 -1.1506,-3.82458c0.39429,-2.86754 0.85309,-6.029 1.31548,-9.2048l0.00466,-0.0319c2.16356,-14.9155 4.36834,-30.1156 4.34683,-48.6553c3.07543,-0.3226 6.22614,-0.33335 9.48438,0.04301c0.10753,9.69228 -0.25808,18.70351 -1.05024,27.2201zM10.37332,128.69787c0.32977,-0.44088 0.7599,-0.86385 1.29398,-1.27605l0.00717,0.00358c2.30478,2.87112 6.38386,4.8784 10.45934,6.88209c3.46972,1.7026 6.93586,3.40879 8.95389,5.52359c0.54483,0.57351 1.44811,0.59501 2.02161,0.05018c0.57351,-0.54483 0.59501,-1.44811 0.05018,-2.02161c-2.36213,-2.47684 -6.06484,-4.29772 -9.77113,-6.11861c-4.81746,-2.3693 -9.6421,-4.73861 -10.58121,-8.1904c-0.24374,-0.88535 -0.29392,-1.46244 -0.15055,-1.75278l0.01792,-0.03584c0.08961,-0.1147 0.33694,-0.18997 0.74198,-0.23299c0.69939,-0.07957 1.35531,-0.07241 1.98713,-0.06524l0.06674,0.00072l0.02362,0.00036c1.6469,0.01792 3.16813,0.03405 5.00891,-0.97891c0.95704,-0.52333 1.9105,-1.05024 2.86037,-1.57715c10.3303,-5.71357 20.26632,-11.2049 31.08052,-13.02579c-0.01075,18.13718 -2.19008,33.1559 -4.32998,47.89146c-0.35486,2.43741 -0.70613,4.87123 -1.07174,7.48069c-4.93575,-1.79938 -9.8715,-4.12209 -14.75707,-7.0649c-5.26552,-3.17221 -10.45934,-7.06131 -15.50979,-11.79633c-0.05018,-0.05018 -0.10395,-0.09678 -0.1613,-0.13979c-3.86401,-2.91772 -6.57383,-5.58453 -7.98968,-7.95742c-0.68462,-1.14343 -1.04665,-2.19367 -1.07533,-3.14354c-0.02509,-0.86743 0.24374,-1.68826 0.82442,-2.45533zM80.11183,119.03068c-3.97871,3.05751 -7.82444,6.51971 -11.19379,10.05753c0.55523,-7.29681 0.80614,-14.96962 0.72728,-23.12633c0.69179,0.12545 1.38359,0.26883 2.08613,0.43013c5.40889,1.25096 12.55623,2.96432 19.94731,5.20817c-3.7959,1.92483 -7.74952,4.49487 -11.56693,7.43051zM66.71147,147.92005c4.68842,-6.94769 11.85476,-14.57175 19.54406,-20.53049c6.78531,-5.25835 14.02584,-9.25139 20.43121,-10.42708c-1.45169,-0.62011 -2.93923,-1.21512 -4.44468,-1.78863c-2.15065,-0.81725 -4.34074,-1.58431 -6.5344,-2.30478c-4.41242,1.87465 -9.21913,4.86765 -13.84662,8.42339c-4.88557,3.75647 -9.55607,8.12947 -13.3448,12.48454c-0.11829,1.24379 -0.24733,2.47325 -0.38353,3.69554c-0.4011,3.56256 -0.87711,7.04267 -1.42122,10.44752zM114.41834,120.71536c0.05018,0.03226 0.10395,0.06452 0.15771,0.08961l-0.01075,0.00358c5.2225,2.93564 9.4342,6.29783 11.69238,10.12241c2.08255,3.52349 4.81029,4.98593 7.95025,5.38739c2.94639,0.37636 6.12578,-0.22223 9.46646,-0.87101c5.88562,-1.14343 9.86433,-3.66328 14.45956,-6.57025c1.3585,-0.86026 2.77076,-1.75278 4.24396,-2.62021c0.7814,-0.45881 0.86026,-0.5054 0.93195,-0.54842l0.00609,-0.00358c5.55621,-3.30376 19.17917,-11.40348 22.67613,-5.53076c1.3119,2.20442 0.93195,5.13648 -0.27242,8.05061c-1.69902,4.10775 -4.98952,8.07929 -7.68859,10.17259c-3.38369,2.6238 -7.94308,5.28344 -12.43078,7.44126c-4.69918,2.26177 -9.29441,3.96796 -12.33758,4.49845c-0.77782,0.13621 -1.30115,0.88177 -1.16494,1.65959c0.13621,0.77782 0.88177,1.30115 1.65959,1.16494c3.03242,-0.53049 7.43409,-2.11122 11.98989,-4.22962c1.99294,1.50187 3.8425,2.83169 5.56302,4.06832c3.72421,2.67756 6.80323,4.89274 10.81062,8.59544c2.29403,2.11839 3.30125,4.27263 3.50915,6.23331c0.26525,2.51268 -0.77065,4.75653 -2.0718,6.19747c-6.71147,7.43875 -18.5881,-0.48963 -28.08538,-6.8294l-0.00932,-0.00609c-3.15788,-2.10764 -6.06843,-4.0504 -8.56318,-5.28702c-0.03943,-0.02509 -0.08244,-0.0466 -0.12545,-0.0681c-10.47261,-4.99453 -18.86446,-2.60444 -27.25523,-0.21471l-0.01147,0.00323c-4.00022,1.13985 -7.99685,2.27611 -12.13327,2.54136c-0.05735,0.00358 -0.11112,0.01075 -0.16847,0.02151c-2.22951,0.41221 -4.52713,0.79933 -6.88209,1.13626h-0.00717c-0.03943,0.00358 -0.07527,0.01075 -0.1147,0.01792c-2.75284,0.39429 -5.58453,0.72405 -8.48074,0.96421c-0.01792,0 -0.03943,0 -0.05735,0.00358c-1.95709,0.1613 -3.94645,0.27958 -5.96089,0.35127c-5.26552,0.18281 -10.70667,0.02509 -16.2446,-0.62011c-0.24733,-0.03943 -0.49465,-0.0681 -0.74198,-0.08961c-1.8173,-0.22582 -3.64894,-0.5054 -5.48417,-0.84592c0.67746,-2.76717 1.30831,-5.57019 1.88541,-8.41981c3.23673,-8.0076 12.55265,-19.02611 22.88654,-27.03371c8.513,-6.59892 17.63177,-11.10096 24.38124,-10.02563c0.69179,0.35844 1.36925,0.72047 2.03237,1.08966zM45.85193,121.56487c-0.77782,-0.7133 -1.84239,-1.15777 -3.00733,-1.15777c-1.16494,0 -2.22951,0.44088 -3.00733,1.15777c-0.80649,0.74556 -1.30831,1.78146 -1.30831,2.93206c0,1.1506 0.49823,2.1865 1.30831,2.93206c0.77782,0.7133 1.84239,1.15777 3.00733,1.15777c1.16494,0 2.22951,-0.44088 3.00733,-1.15777c0.80649,-0.74556 1.30831,-1.78146 1.30831,-2.93206c0,-1.1506 -0.49823,-2.1865 -1.30831,-2.93206zM42.8446,123.27464c0.42296,0 0.80291,0.15413 1.06816,0.39787c0.23657,0.21507 0.37995,0.50899 0.37995,0.82442c0,0.31543 -0.14696,0.60935 -0.37995,0.82442c-0.26525,0.24733 -0.64161,0.39787 -1.06816,0.39787c-0.42296,0 -0.80291,-0.15413 -1.06816,-0.39787c-0.23657,-0.21507 -0.37995,-0.50899 -0.37995,-0.82442c0,-0.31543 0.14696,-0.60935 0.37995,-0.82442c0.26525,-0.24733 0.64161,-0.39787 1.06816,-0.39787zM181.74812,124.49692c-0.45881,-0.17922 -0.97855,0.05018 -1.15777,0.50899v-0.00358c-1.06816,2.73491 -2.61663,5.06837 -4.44827,6.97529c-1.98935,2.0718 -4.31923,3.64177 -6.73154,4.66692c-0.45522,0.19356 -0.6667,0.71688 -0.47314,1.17211c0.19356,0.45522 0.71688,0.6667 1.17211,0.47314c2.6238,-1.11476 5.1544,-2.82094 7.31939,-5.07196c1.98935,-2.06821 3.67045,-4.6024 4.82822,-7.56313c0.17922,-0.45881 -0.05018,-0.97855 -0.50899,-1.15777zM116.87008,172.754c-2.79585,-2.22234 -5.51284,-4.38016 -8.39472,-5.80676l0.00717,-0.00358c4.11133,-0.37278 7.96459,-1.4732 11.81784,-2.57003c3.59159,-1.02156 7.18318,-2.04671 10.9289,-2.42665c-0.52691,1.02873 -0.7814,2.29045 -0.85668,3.70629c-0.12545,2.38723 0.32977,5.17949 0.78499,7.96459l0.01398,0.08531c0.41472,2.55211 0.82728,5.09131 0.73516,7.09429c-5.78884,-0.69538 -10.53103,-4.46261 -15.03665,-8.04344zM68.42662,168.80038c0.21148,0.02509 0.41938,0.05018 0.63086,0.07527h0.00358c3.81741,0.63444 8.20116,4.54505 12.62433,8.48791c0.86026,0.76348 1.72052,1.53055 2.58078,2.27969c-0.15771,0.48748 -0.43013,0.82083 -0.81725,0.99647c-0.57709,0.26166 -1.43018,0.29034 -2.55569,0.07886c-0.19714,-0.03584 -0.44447,-0.09319 -0.74198,-0.16847c-3.99305,-1.01798 -8.17248,-4.72068 -12.38418,-8.44848c-1.60224,-1.41943 -3.20806,-2.83886 -4.82822,-4.14001c1.81013,0.32977 3.6131,0.60577 5.40889,0.828c0.02509,0.00358 0.05377,0.00717 0.07886,0.01075zM85.79314,169.51368c1.87824,-0.06452 3.73497,-0.17205 5.56661,-0.31543v-0.00358c0.28317,0.2294 0.4839,0.38712 0.68462,0.54842c3.68837,2.93923 7.70651,6.1437 8.18324,11.01851c0.07886,0.79216 0.05018,1.45528 -0.08603,1.98577c-0.10753,0.43013 -0.28675,0.74914 -0.53049,0.95346c-0.26166,0.21865 -0.63444,0.35127 -1.12192,0.39787c-0.66312,0.06452 -1.49829,-0.02868 -2.50551,-0.28675c-3.87476,-0.98572 -8.15456,-4.80313 -12.39852,-8.58828c-2.29761,-2.05387 -4.59164,-4.09699 -6.87134,-5.74224c3.07185,0.13621 6.10069,0.13621 9.07934,0.03226z" fill-rule="evenodd"></path></svg>