<svg width="100%" viewBox="0 0 200 200" version="1.1" xmlns="http://www.w3.org/2000/svg" xmlns:xlink="http://www.w3.org/1999/xlink"><path d="M159.85331,181.37326l33.21407,0.00658l0.20171,-0.84192c12.33935,-51.8064 7.69784,-92.60869 -13.79955,-121.27552c-28.27,-37.7021 -76.47852,-40.54138 -76.9806,-40.56549c-1.48432,-0.05262 -2.93794,-0.07674 -4.3806,-0.07674c-27.10578,0 -49.0921,9.12296 -65.35162,27.11675c-40.25197,44.54925 -32.11344,129.721 -32.02574,130.57608l0.11401,1.11598l12.99929,-1.62464l-0.04823,-1.01293c-1.81977,-38.17568 17.33604,-68.56801 20.96461,-73.95496c45.06449,29.08122 41.12458,78.62278 41.07854,79.12486l-0.10962,1.20368l34.59972,-0.23898l0.01973,-1.06994c0.56786,-32.0652 17.26588,-34.55587 22.37,-34.55587c0.53716,0 0.85507,0.03069 0.89673,0.03508c25.23339,2.58714 26.20686,34.64357 26.21344,34.96587zM191.33312,179.18734l-29.37282,-0.00658c-0.41877,-5.83641 -3.7075,-33.52321 -28.10994,-36.02923c0,0 -0.41219,-0.04604 -1.13352,-0.04604c-3.95087,0 -23.53202,1.73426 -24.53618,35.63896l-30.09196,0.21048c0.31133,-7.95436 0.08989,-53.34553 -43.0474,-80.53682l-0.86823,-0.54812l-0.60294,0.82876c-0.23679,0.32887 -23.6263,32.94658 -22.01043,75.18276l-8.74585,1.09405c-0.81341,-10.16439 -5.54481,-86.69115 31.5697,-127.76969c16.67171,-18.45202 39.65342,-27.31626 68.00892,-26.31868c0.47358,0.02412 47.6604,2.80201 75.32088,39.69069c20.97119,27.96743 25.55131,67.8686 13.61976,118.60945zM104.85683,67.85916c-0.04823,0.95154 -1.4317,24.90452 -12.77785,30.50415c-1.56982,0.77614 -3.24489,1.16202 -5.01862,1.16202c-3.35451,0 -7.05983,-1.38346 -11.07647,-4.13943l1.23876,-1.80661c5.43957,3.73381 10.11397,4.68097 13.88505,2.81955c10.19728,-5.03177 11.55224,-28.48048 11.5654,-28.71727c1.5479,-13.93987 -0.78272,-23.03213 -6.9217,-27.08605c-11.10936,-7.33608 -31.36799,3.95745 -31.57189,4.07146l-1.07871,-1.90747c0.877,-0.4977 21.62674,-12.06529 33.85427,-3.99691c6.88443,4.54284 9.54392,14.33232 7.90174,29.09657zM50.76805,62.17403c0,-3.12869 1.82415,-5.6654 4.07804,-5.6654c2.25388,0 4.08023,2.53671 4.08023,5.6654c0,3.12869 -1.82854,5.6654 -4.08023,5.6654c-2.25169,0 -4.07804,-2.53452 -4.07804,-5.6654zM74.2036,180.05996h-23.5671c0,0 4.44637,-54.05809 -18.21961,-72.66139l2.71869,-4.14162c0,0 39.94721,23.99025 39.06802,76.80301z" fill-rule="evenodd"></path></svg>