<svg width="100%" viewBox="0 0 200 200" version="1.1" xmlns="http://www.w3.org/2000/svg" xmlns:xlink="http://www.w3.org/1999/xlink"><path d="M100,7.14286c-41.30714,0 -76.27857,26.99286 -88.32857,64.28571h-11.67143v7.14286h9.72143c-1.62857,6.89286 -2.57857,14.04286 -2.57857,21.42857c0,51.28571 41.57143,92.85714 92.85714,92.85714c51.28571,0 92.85714,-41.57143 92.85714,-92.85714c0,-7.38571 -0.95714,-14.53571 -2.57857,-21.42857h9.72143v-7.14286h-11.67143c-12.05,-37.29286 -47.02143,-64.28571 -88.32857,-64.28571zM100,14.28571c37.23571,0 68.90714,23.90714 80.71429,57.14286h-161.42857c11.80714,-33.23571 43.47857,-57.14286 80.71429,-57.14286zM185.71429,100c0,47.26429 -38.45,85.71429 -85.71429,85.71429c-47.26429,0 -85.71429,-38.45 -85.71429,-85.71429c0,-7.40714 1.04286,-14.56429 2.82143,-21.42857h11.46429c0,19.72857 15.98571,35.71429 35.71429,35.71429c19.72857,0 35.71429,-15.98571 35.71429,-35.71429c0,19.72857 15.98571,35.71429 35.71429,35.71429c19.72857,0 35.71429,-15.98571 35.71429,-35.71429h11.46429c1.77857,6.86429 2.82143,14.02143 2.82143,21.42857zM100,150c-26.21429,0 -39.34286,-19.03571 -39.89286,-19.84286l-5.93571,3.97143c0.62857,0.94286 15.69286,23.02143 45.82857,23.02143c30.13571,0 45.2,-22.07857 45.82857,-23.02143l-5.94286,-3.96429c-0.13571,0.19286 -13.53571,19.83571 -39.88571,19.83571z" fill-rule="evenodd"></path></svg>