<svg width="100%" viewBox="0 0 200 200" version="1.1" xmlns="http://www.w3.org/2000/svg" xmlns:xlink="http://www.w3.org/1999/xlink"><path d="M174.40259,102.38095c1.66667,0.2381 3.33333,1.42857 3.80952,3.09524c0.47619,1.66667 0,3.57143 -0.95238,4.7619l-35.95238,34.52381l9.04762,49.52381c0.2381,1.90476 -0.47619,3.57143 -1.90476,4.7619c-0.95238,0.71429 -1.90476,0.95238 -2.85714,0.95238c-0.95238,0 -1.66667,0 -2.38095,-0.47619l-43.33333,-24.04762l-43.09524,23.80952c-1.42857,0.95238 -3.57143,0.95238 -5,-0.2381c-1.42857,-1.19048 -2.14286,-2.85714 -1.90476,-4.7619l9.04762,-49.52381l-35.95238,-34.52381c-1.19048,-1.42857 -1.66667,-3.33333 -1.19048,-5c0.47619,-1.66667 1.90476,-2.85714 3.80952,-3.09524l30.71429,-4.04762l-20.47619,-92.38095c-0.2381,-1.42857 0,-2.85714 0.95238,-4.04762c0.71429,-0.95238 2.14286,-1.66667 3.57143,-1.66667h119.04762c1.42857,0 2.85714,0.71429 3.80952,1.66667c0.95238,1.19048 1.19048,2.61905 0.95238,4.04762l-20.2381,92.61905zM95.11688,9.52381h-48.80952l19.28571,87.38095l8.80952,-1.19048l20.71429,-44.52381zM153.45021,9.52381h-48.80952v41.66667l20.71429,44.52381l8.80952,1.19048zM131.30736,144.04762c-0.2381,-1.66667 0.2381,-3.09524 1.42857,-4.28571l30.2381,-29.52381l-41.66667,-5.47619c-1.42857,-0.2381 -2.85714,-1.19048 -3.57143,-2.61905l-17.85714,-38.57143l-18.09524,38.57143c-0.47619,1.42857 -1.90476,2.38095 -3.57143,2.61905l-41.66667,5.47619l30.2381,29.52381c1.19048,1.19048 1.66667,2.61905 1.42857,4.28571l-7.61905,42.14286l36.90476,-20.47619c0.71429,-0.2381 1.42857,-0.47619 2.38095,-0.47619c0.95238,0 1.66667,0 2.38095,0.47619l36.66667,20.47619z" fill-rule="evenodd"></path></svg>