<svg width="100%" viewBox="0 0 200 200" version="1.1" xmlns="http://www.w3.org/2000/svg" xmlns:xlink="http://www.w3.org/1999/xlink"><path d="M151.01808,70.80995c-3.15586,-6.91342 -0.09288,-15.05849 6.8165,-18.22041c6.9013,-3.13971 15.05849,-0.09288 18.18608,6.81852c3.15182,6.90938 0.11307,15.04839 -6.79025,18.1982c-6.90534,3.14375 -15.05647,0.08884 -18.21233,-6.79631zM198.18843,52.05448c-1.49818,-0.65015 -3.26691,0.04846 -3.91908,1.56481c-9.44134,21.982 -25.34583,38.8173 -45.45006,49.17128l4.38146,-9.03954c0.11711,-0.21201 0.5068,-1.11858 0.52699,-1.16704c3.67275,-8.53072 -2.51984,-20.4394 -15.00195,-17.9135l-33.47475,9.86535l-8.51659,-20.4596c-3.68891,-8.40957 -15.07666,-10.75577 -20.50402,-2.62686l-21.09561,33.53532c-2.38254,3.78784 -1.23973,8.78513 2.54609,11.16565c1.34069,0.84399 2.82675,1.23973 4.29868,1.23973c2.69349,0 5.32438,-1.33463 6.86496,-3.78582l14.59611,-23.20356l7.2708,22.9754c4.21589,6.82458 10.36609,8.41765 16.09429,7.09917l27.00554,-7.47271l-3.45267,7.12744c-10.00467,2.89136 -20.72208,4.42992 -31.96648,4.42992h-0.35132c-46.47577,-0.12922 -78.22822,-27.13678 -92.45484,-52.37156c-0.80966,-1.4376 -2.61878,-1.94642 -4.0685,-1.13474c-1.43154,0.80764 -1.94238,2.62888 -1.13272,4.06648c15.04637,26.69863 48.59987,55.27099 97.63385,55.40829h0.37152c9.95419,0 19.48841,-1.1832 28.55621,-3.35575l-10.58819,21.84268c-1.61528,3.33152 -0.2221,7.34752 3.10942,8.95675c0.94494,0.46238 1.94238,0.67438 2.92165,0.67438c2.48956,0 4.8822,-1.38914 6.03914,-3.78178l16.23361,-33.49696c24.57655,-10.48925 44.01246,-29.60009 55.09331,-55.39416c0.65419,-1.51433 -0.04846,-3.27095 -1.56683,-3.91908z" fill-rule="evenodd"></path></svg>