<svg width="100%" viewBox="0 0 200 200" version="1.1" xmlns="http://www.w3.org/2000/svg" xmlns:xlink="http://www.w3.org/1999/xlink"><path d="M140.00091,13.33333c1.84083,0 3.33333,-1.49238 3.33333,-3.33333v-6.66667c0,-1.84096 -1.4925,-3.33333 -3.33333,-3.33333c-1.84083,0 -3.33333,1.49238 -3.33333,3.33333v6.66667c0,1.84096 1.4925,3.33333 3.33333,3.33333zM109.35966,24.0725c0.83875,0.85779 2.07375,1.19867 3.23417,0.89246c1.16,-0.30621 2.06583,-1.21221 2.37208,-2.37225c0.30625,-1.16004 -0.03458,-2.39513 -0.8925,-3.23396l-4.71375,-4.71417c-1.30167,-1.30179 -3.4125,-1.30179 -4.71417,0c-1.30167,1.30179 -1.30167,3.41237 0,4.71417zM168.28508,25.04917c0.88417,0.00108 1.7325,-0.35042 2.35708,-0.97667l4.71417,-4.71375c1.30167,-1.30179 1.30167,-3.41237 0,-4.71417c-1.30167,-1.30179 -3.4125,-1.30179 -4.71417,0l-4.71375,4.71417c-0.95333,0.95329 -1.23875,2.38696 -0.72292,3.63254c0.51625,1.24554 1.73125,2.05775 3.07958,2.05787zM12.52591,136.56708l10.80833,2.70208v19.435c-0.01854,8.155 5.88063,15.11917 13.9275,16.4425l17.71417,2.94958c4.82917,0.79333 8.36958,4.9725 8.35833,9.86625v8.70417c0,1.84083 1.4925,3.33333 3.33333,3.33333h63.33333c1.01125,0 1.9675,-0.45875 2.6,-1.2475c0.63292,-0.78875 0.87333,-1.82167 0.65417,-2.80875l-0.00083,-0.00333c-3.30667,-14.88 -4.81583,-21.67167 -2.54833,-29.60792c2.35708,-8.25 8.94458,-18.13083 22.06875,-37.81667c10.91667,-16.375 12.50958,-35.91917 4.50917,-53.985c0.04375,-0.0325 0.08542,-0.06708 0.12958,-0.09833c10.11875,-7.22833 14.72917,-19.94958 11.59083,-31.98208c-3.13792,-12.03267 -13.37417,-20.882 -25.73375,-22.24779c-12.36,-1.36575 -24.28125,5.03521 -29.97083,16.09238c-6.47375,-1.96158 -13.20083,-2.9595 -19.96542,-2.96167c-18.35167,0 -34.45625,4.74167 -46.57333,13.7125c-12.41,9.18792 -19.85708,22.21208 -21.53625,37.66667c-0.25758,2.39417 0.00012,4.81583 0.75583,7.10208l3.16208,9.48125c0.32746,0.97542 0.18271,2.0475 -0.39167,2.90083l-18.19167,27.2875c-0.6015,0.90208 -0.72683,2.04 -0.33592,3.05125c0.39087,1.01125 1.24912,1.76917 2.30092,2.03208zM123.88924,33.12125c4.32708,-4.15917 10.10167,-6.47362 16.10333,-6.45458c0.37167,0 0.74486,0.00861 1.11958,0.02583c9.93417,0.4715 18.47792,7.18804 21.28125,16.73042c2.80292,9.54208 -0.75,19.8125 -8.85083,25.58208c-4.33167,3.12292 -6.89167,8.14375 -6.875,13.48375v0.84458c-0.00208,1.84 -1.49333,3.33125 -3.33333,3.33333h-6.66667c-1.84,-0.00208 -3.33125,-1.49333 -3.33333,-3.33333v-0.84458c0.01542,-5.34125 -2.54542,-10.3625 -6.87792,-13.48667c-6.135,-4.38583 -9.77958,-11.46042 -9.78875,-19.00208c-0.02417,-6.38167 2.58917,-12.48958 7.22167,-16.87875zM153.33424,53.33333c-1.84083,0 -3.33333,-1.4925 -3.33333,-3.33333c-0.00625,-5.52042 -4.47958,-9.99375 -10,-10c-1.84083,0 -3.33333,-1.4925 -3.33333,-3.33333c0,-1.84096 1.4925,-3.33333 3.33333,-3.33333c9.20042,0.01033 16.65625,7.46625 16.66667,16.66667c0,1.84083 -1.4925,3.33333 -3.33333,3.33333zM34.29966,107.89458c1.72125,-2.56375 2.1525,-5.78208 1.16667,-8.70833l-3.16083,-9.47792c-0.45417,-1.37667 -0.60875,-2.83417 -0.45333,-4.27542c2.99917,-27.59958 27.1325,-45.43292 61.48208,-45.43292c5.95583,0.00292 11.88,0.86042 17.59208,2.54625c-3.05,12.01417 1.5775,24.66958 11.65792,31.8825c2.58083,1.87125 4.10083,4.87208 4.08333,8.06v0.84458c-0.00083,2.84333 1.21167,5.55208 3.33333,7.44542v12.55458c0,1.84083 1.4925,3.33333 3.33333,3.33333h3.33333v6.66667h-17.86708l-19.10625,-41.39708c-0.545,-1.18042 -1.72667,-1.93625 -3.02667,-1.93625h-20.57333c-1.62333,-4.59167 -6.31875,-7.34625 -11.11917,-6.5225c-4.8,0.82333 -8.30875,4.98542 -8.30875,9.85583c0,4.87042 3.50875,9.0325 8.30875,9.85583c4.80042,0.82375 9.49583,-1.93083 11.11917,-6.5225h18.44042l7.6925,16.66667h-16.13292c-1.62333,-4.59167 -6.31875,-7.34625 -11.11917,-6.5225c-4.8,0.82333 -8.30875,4.98542 -8.30875,9.85583c0,4.87042 3.50875,9.0325 8.30875,9.85583c4.80042,0.82375 9.49583,-1.93083 11.11917,-6.5225h19.20833l8.33667,18.06375c0.545,1.18083 1.7275,1.93708 3.02833,1.93625h23.33333c1.84083,0 3.33333,-1.4925 3.33333,-3.33333v-10h3.33333c1.84083,0 3.33333,-1.4925 3.33333,-3.33333v-12.55458c2.12167,-1.89333 3.33417,-4.60208 3.33333,-7.44542v-0.40958c1.71667,5.4 2.49333,11.05458 2.29625,16.7175c-0.35208,8.86917 -3.17917,17.33958 -8.40292,25.17625l-0.00125,0.00208c-25.72792,38.59167 -27.355,41.03208 -21.37375,68.51375h-55.85167v-5.37083c0.01833,-8.155 -5.88083,-15.11917 -13.9275,-16.4425l-17.71417,-2.94958c-4.82904,-0.79333 -8.3695,-4.9725 -8.35833,-9.86625v-22.0375c-0.00004,-1.52958 -1.04108,-2.86292 -2.525,-3.23375l-8.74458,-2.18625zM93.33424,53.33333h6.66667c1.84083,0 3.33333,-1.4925 3.33333,-3.33333c0,-1.84083 -1.4925,-3.33333 -3.33333,-3.33333h-6.66667c-1.84083,0 -3.33333,1.4925 -3.33333,3.33333c0,1.84083 1.4925,3.33333 3.33333,3.33333zM180.00091,53.33333h6.66667c1.84083,0 3.33333,-1.4925 3.33333,-3.33333c0,-1.84083 -1.4925,-3.33333 -3.33333,-3.33333h-6.66667c-1.84083,0 -3.33333,1.4925 -3.33333,3.33333c0,1.84083 1.4925,3.33333 3.33333,3.33333zM70.00091,73.33333c0,1.84083 -1.4925,3.33333 -3.33333,3.33333c-1.84083,0 -3.33333,-1.4925 -3.33333,-3.33333c0,-1.84083 1.4925,-3.33333 3.33333,-3.33333c1.84,0.00208 3.33125,1.49333 3.33333,3.33333zM80.00091,96.66667c0,1.84083 -1.4925,3.33333 -3.33333,3.33333c-1.84083,0 -3.33333,-1.4925 -3.33333,-3.33333c0,-1.84083 1.4925,-3.33333 3.33333,-3.33333c1.84,0.00208 3.33125,1.49333 3.33333,3.33333zM136.66758,100v-6.66667h6.66667v6.66667z" fill-rule="evenodd"></path></svg>