<svg width="100%" viewBox="0 0 200 200" version="1.1" xmlns="http://www.w3.org/2000/svg" xmlns:xlink="http://www.w3.org/1999/xlink"><path d="M101.9136,14.17996c-0.33477,-0.16851 -0.68457,-0.29576 -1.0494,-0.38177c-0.36451,-0.08633 -0.73413,-0.12934 -1.10887,-0.12902c-0.37474,0.00032 -0.74436,0.04396 -1.10887,0.13094c-0.36451,0.08697 -0.71399,0.21503 -1.04844,0.38417l-94.96402,47.96158c-0.28109,0.14197 -0.54564,0.30999 -0.79367,0.50408c-0.24799,0.19408 -0.47468,0.41055 -0.68005,0.6494c-0.20537,0.23853 -0.38548,0.49496 -0.54034,0.7693c-0.15485,0.27402 -0.28147,0.56067 -0.37986,0.85995c-0.09839,0.29928 -0.16663,0.60512 -0.20475,0.9175c-0.03815,0.31271 -0.04542,0.62606 -0.02182,0.94005c0.0236,0.31399 0.0776,0.6227 0.16201,0.92614c0.08438,0.30344 0.19755,0.59568 0.33952,0.87674c0.23245,0.46011 0.53132,0.8721 0.89659,1.23597c0.36531,0.36387 0.77853,0.66107 1.23966,0.89161l30.44222,15.22109v59.62583c0,0.34085 0.03597,0.67802 0.10791,1.01151c0.07194,0.33317 0.1781,0.655 0.31846,0.96547c0.14069,0.31079 0.31239,0.6032 0.51511,0.87722c0.20304,0.27402 0.43261,0.52358 0.68873,0.74868c18.00605,15.82348 39.52497,23.73522 64.55676,23.73522c7.52613,0 14.83436,-0.77842 21.92467,-2.33525l-1.62254,2.82302c-0.15699,0.27306 -0.28585,0.55875 -0.38657,0.85707c-0.1004,0.29864 -0.1709,0.604 -0.21151,0.91607c-0.04061,0.31239 -0.0502,0.62574 -0.02878,0.94005c0.0211,0.31399 0.07274,0.62302 0.15492,0.9271c0.08217,0.30408 0.19313,0.59728 0.33285,0.87962c0.13973,0.28201 0.30583,0.54772 0.49832,0.79712c0.19217,0.2494 0.40671,0.4777 0.64364,0.68489c0.23725,0.20719 0.49241,0.38929 0.76547,0.54628c0.03837,0.02206 0.07706,0.04365 0.11607,0.06475c7.83564,4.21902 16.58719,6.32853 26.25465,6.32853c9.66745,0 18.419,-2.10951 26.25465,-6.32853c0.55987,-0.30152 1.04093,-0.6988 1.44316,-1.19185c0.40192,-0.49273 0.69416,-1.0438 0.87674,-1.65324c0.18289,-0.60911 0.24221,-1.23005 0.17794,-1.86283c-0.06427,-0.63277 -0.24716,-1.2291 -0.54868,-1.78897c-0.0211,-0.03901 -0.04269,-0.0777 -0.06475,-0.11607l-13.29351,-23.13091c0.61039,-0.48249 1.10887,-0.91703 1.49544,-1.3036c0.44988,-0.44956 0.79648,-0.96818 1.03981,-1.55587c0.24333,-0.58769 0.36499,-1.19952 0.36499,-1.83549v-58.9865l31.87239,-15.8561c0.56946,-0.28329 1.06299,-0.66475 1.48057,-1.14436c0.41791,-0.47962 0.7279,-1.02094 0.92997,-1.62398c0.2024,-0.60272 0.28169,-1.22142 0.23789,-1.85611c-0.0438,-0.63437 -0.20735,-1.23629 -0.49065,-1.80575c-0.23117,-0.46459 -0.52982,-0.88073 -0.89592,-1.24844c-0.36611,-0.36771 -0.78097,-0.66794 -1.2446,-0.90072zM99.52032,108.42685l37.14768,-18.57408l-39.01818,-19.11892c-0.28297,-0.13845 -0.54964,-0.30328 -0.8,-0.49448c-0.25004,-0.19121 -0.4793,-0.40496 -0.68777,-0.64125c-0.20815,-0.23597 -0.39137,-0.49017 -0.54964,-0.76259c-0.15795,-0.27242 -0.28793,-0.55763 -0.38993,-0.85563c-0.102,-0.29768 -0.17394,-0.60272 -0.21583,-0.91511c-0.04189,-0.31207 -0.05292,-0.62526 -0.03309,-0.93957c0.01982,-0.31431 0.07002,-0.62366 0.1506,-0.92806c0.0809,-0.3044 0.19057,-0.59792 0.32902,-0.88057c0.13845,-0.28297 0.30328,-0.54948 0.49448,-0.79952c0.19121,-0.25036 0.40496,-0.47978 0.64125,-0.68825c0.23597,-0.20815 0.49017,-0.39137 0.76259,-0.54964c0.27242,-0.15795 0.55763,-0.28793 0.85563,-0.38993c0.29768,-0.102 0.60272,-0.17394 0.91511,-0.21583c0.31207,-0.04189 0.62526,-0.05292 0.93957,-0.03309c0.31431,0.01982 0.62366,0.07002 0.92806,0.1506c0.3044,0.0809 0.59792,0.19057 0.88057,0.32902l45.58748,22.3381l11.06857,-5.53429c0.56083,-0.28042 1.15396,-0.4446 1.77937,-0.49257l24.17311,-12.02589l-84.71357,-42.56974l-84.28767,42.56974zM42.68585,143.36014v-52.38651l54.44982,27.22491c0.75108,0.3757 1.54596,0.54245 2.38465,0.50024c0.83517,0.04189 1.62718,-0.12342 2.37602,-0.49592l41.02921,-20.41149v34.15056l-15.26137,26.93234c-9.02957,2.95667 -18.49079,4.43501 -28.38366,4.43501c-21.86728,0 -40.73217,-6.64971 -56.59466,-19.94914zM152.51786,93.01967l3.35731,-1.6705v47.26517l-3.35731,-5.84172zM130.50302,173.63876l16.9314,-29.46088l4.26043,7.57409c0.4048,0.71942 0.95843,1.29592 1.66091,1.72949l11.58464,20.15729c-5.24923,2.0665 -10.9888,3.09976 -17.21869,3.09976c-6.22989,0 -11.96945,-1.03325 -17.21869,-3.09976z" fill-rule="evenodd"></path></svg>