<svg width="100%" viewBox="0 0 200 200" version="1.1" xmlns="http://www.w3.org/2000/svg" xmlns:xlink="http://www.w3.org/1999/xlink"><path d="M189.60722,127.75695c-0.23229,-2.09063 -2.09063,-3.71668 -4.18127,-4.18127c-2.09063,-0.46459 -4.41356,0.69688 -5.34273,2.78751c-4.18127,8.59483 -12.31152,12.7761 -16.26049,14.40215c-9.7563,-32.98557 -41.11582,-44.36792 -52.26587,-47.62001c4.18127,-5.34273 6.96878,-11.61464 8.82712,-17.88654c4.64586,-0.23229 19.51259,-2.32293 21.60323,-20.20947c2.09063,-19.51259 -6.2719,-36.70225 -23.22928,-47.38772c-16.26049,-9.98859 -40.88352,-7.43337 -42.74187,-7.20108l-0.08316,-0.0076c-2.955,-0.26997 -26.7887,-2.44762 -42.42641,7.44096c-16.95737,10.68547 -25.5522,27.87513 -23.22928,47.38772c1.85834,17.42196 16.49279,19.74488 21.60323,20.20947c2.32293,8.36254 6.03961,15.09903 11.15005,20.44176c-5.34273,3.94898 -8.36254,10.22088 -8.36254,16.95737v65.97114c0,11.61464 9.524,21.13864 21.13864,21.13864c8.59483,0 16.0282,-5.11044 19.2803,-12.31152c3.71668,6.5042 10.45317,10.91776 18.58342,10.91776c7.66566,0 14.40215,-4.18127 18.11883,-10.22088c6.5042,5.11044 12.7761,7.66566 19.2803,7.66566c2.09063,0 4.18127,-0.23229 6.5042,-0.69688c11.61464,-2.78751 21.37093,-10.45317 25.7845,-20.20947c1.16146,-2.78751 2.09063,-5.80732 2.55522,-8.82712c24.15845,-10.22088 25.31991,-28.33972 23.69386,-38.5606zM14.69078,54.58474c-2.09063,-17.88654 5.57503,-33.21786 21.13864,-42.97416c14.47091,-8.90511 37.47625,-6.92862 39.56991,-6.74873c0.09106,0.00781 0.1424,0.01224 0.15215,0.01224h0.69688c0.06388,0.03194 0.58027,0.00678 1.46275,-0.03624c5.53461,-0.26972 25.46904,-1.24119 38.49161,6.77273c15.56361,9.7563 23.22928,24.85532 21.13864,42.97416c-1.39376,13.00839 -11.38234,15.56361 -15.79591,16.0282c3.48439,-17.42196 0.23229,-34.61162 0,-35.54079c-0.23229,-1.16146 -1.39376,-2.09063 -2.78751,-1.85834c-1.16146,0.23229 -2.09063,1.39376 -1.85834,2.78751c0,0.02718 0.023,0.17213 0.06342,0.42486c0.64717,4.06628 5.73484,36.02582 -9.35513,54.39623c-7.20108,8.59483 -17.65425,13.00839 -31.82411,13.00839c-13.93757,0 -24.62303,-4.64586 -31.82411,-13.47298c-15.79591,-19.51259 -9.29171,-53.89192 -9.05942,-54.3565l-2.32293,-0.46459l-0.23229,-2.32293c-1.62605,0.23229 -2.09063,0.23229 -3.01981,9.29171c-0.46459,4.18127 -0.69688,10.68547 -0.23229,17.65425c0.23229,3.71668 0.69688,6.96878 1.39376,10.22088c-4.64586,-0.46459 -14.16986,-3.01981 -15.79591,-15.79591zM55.80659,60.85664c3.48439,0 6.2719,-3.48439 6.2719,-7.66566v-0.69688c-0.23229,0 -0.46459,0.23229 -0.92917,0.23229c-1.62605,0 -3.01981,-1.39376 -3.01981,-3.01981c0,-1.16146 0.69688,-2.09063 1.62605,-2.55522c-1.16146,-0.92917 -2.32293,-1.62605 -3.71668,-1.62605c-3.48439,0 -6.2719,3.48439 -6.2719,7.66566c-0.23229,4.18127 2.55522,7.66566 6.03961,7.66566zM96.45783,60.85664c3.48439,0 6.2719,-3.48439 6.2719,-7.66566v-0.69688c-0.23229,0 -0.46459,0.23229 -0.92917,0.23229c-1.62605,0 -3.01981,-1.39376 -3.01981,-3.01981c0,-1.16146 0.69688,-2.09063 1.62605,-2.55522c-1.16146,-0.92917 -2.32293,-1.62605 -3.71668,-1.62605c-3.48439,0 -6.2719,3.48439 -6.2719,7.66566c-0.23229,4.18127 2.55522,7.66566 6.03961,7.66566zM76.01606,86.40885c4.87815,-1.16146 10.68547,-3.01981 10.22088,-8.82712c0,-0.69688 -0.23229,-1.16146 -0.46459,-1.62605c-1.62605,-2.55522 -6.96878,-2.55522 -9.524,-2.78751h-0.23229c-2.55522,0.23229 -7.89795,0.23229 -9.524,2.78751c-0.23229,0.46459 -0.46459,1.16146 -0.46459,1.62605c-0.46459,5.57503 5.34273,7.43337 9.98859,8.82712zM49.53469,76.65255c0,0.1067 -0.01038,0.21247 -0.03113,0.31731c-0.02091,0.10469 -0.0518,0.20635 -0.09268,0.305c-0.04088,0.09865 -0.09098,0.19234 -0.15029,0.28107c-0.05931,0.08874 -0.12668,0.17089 -0.20209,0.24646c-0.07557,0.07542 -0.15773,0.14278 -0.24646,0.20209c-0.08874,0.05931 -0.18243,0.10941 -0.28107,0.15029c-0.09865,0.04088 -0.20031,0.07178 -0.305,0.09268c-0.10484,0.02075 -0.21061,0.03113 -0.31731,0.03113c-0.1067,0 -0.21247,-0.01038 -0.31731,-0.03113c-0.10469,-0.02091 -0.20635,-0.0518 -0.305,-0.09268c-0.09865,-0.04088 -0.19234,-0.09098 -0.28107,-0.15029c-0.08874,-0.05931 -0.17089,-0.12668 -0.24646,-0.20209c-0.07542,-0.07557 -0.14278,-0.15773 -0.20209,-0.24646c-0.05931,-0.08874 -0.10941,-0.18243 -0.15029,-0.28107c-0.04088,-0.09865 -0.0717,-0.20031 -0.09245,-0.305c-0.02091,-0.10484 -0.03136,-0.21061 -0.03136,-0.31731c0,-0.1067 0.01045,-0.21247 0.03136,-0.31731c0.02075,-0.10469 0.05157,-0.20635 0.09245,-0.305c0.04088,-0.09865 0.09098,-0.19234 0.15029,-0.28107c0.05931,-0.08874 0.12668,-0.17089 0.20209,-0.24646c0.07557,-0.07542 0.15773,-0.14278 0.24646,-0.20209c0.08874,-0.05931 0.18243,-0.10941 0.28107,-0.15029c0.09865,-0.04088 0.20031,-0.07178 0.305,-0.09268c0.10484,-0.02075 0.21061,-0.03113 0.31731,-0.03113c0.1067,0 0.21247,0.01038 0.31731,0.03113c0.10469,0.02091 0.20635,0.0518 0.305,0.09268c0.09865,0.04088 0.19234,0.09098 0.28107,0.15029c0.08874,0.05931 0.17089,0.12668 0.24646,0.20209c0.07542,0.07557 0.14278,0.15773 0.20209,0.24646c0.05931,0.08874 0.10941,0.18243 0.15029,0.28107c0.04088,0.09865 0.07178,0.20031 0.09268,0.305c0.02075,0.10484 0.03113,0.21061 0.03113,0.31731zM104.82037,76.65255c0,0.1067 -0.01038,0.21247 -0.03113,0.31731c-0.02091,0.10469 -0.0518,0.20635 -0.09268,0.305c-0.04088,0.09865 -0.09098,0.19234 -0.15029,0.28107c-0.05931,0.08874 -0.12668,0.17089 -0.20209,0.24646c-0.07557,0.07542 -0.15773,0.14278 -0.24646,0.20209c-0.08874,0.05931 -0.18243,0.10941 -0.28107,0.15029c-0.09865,0.04088 -0.20031,0.07178 -0.305,0.09268c-0.10484,0.02075 -0.21061,0.03113 -0.31731,0.03113c-0.1067,0 -0.21247,-0.01038 -0.31731,-0.03113c-0.10469,-0.02091 -0.20635,-0.0518 -0.305,-0.09268c-0.09865,-0.04088 -0.19234,-0.09098 -0.28107,-0.15029c-0.08874,-0.05931 -0.17089,-0.12668 -0.24646,-0.20209c-0.07542,-0.07557 -0.14278,-0.15773 -0.20209,-0.24646c-0.05931,-0.08874 -0.10941,-0.18243 -0.15029,-0.28107c-0.04088,-0.09865 -0.0717,-0.20031 -0.09245,-0.305c-0.02091,-0.10484 -0.03136,-0.21061 -0.03136,-0.31731c0,-0.1067 0.01045,-0.21247 0.03136,-0.31731c0.02075,-0.10469 0.05157,-0.20635 0.09245,-0.305c0.04088,-0.09865 0.09098,-0.19234 0.15029,-0.28107c0.05931,-0.08874 0.12668,-0.17089 0.20209,-0.24646c0.07557,-0.07542 0.15773,-0.14278 0.24646,-0.20209c0.08874,-0.05931 0.18243,-0.10941 0.28107,-0.15029c0.09865,-0.04088 0.20031,-0.07178 0.305,-0.09268c0.10484,-0.02075 0.21061,-0.03113 0.31731,-0.03113c0.1067,0 0.21247,0.01038 0.31731,0.03113c0.10469,0.02091 0.20635,0.0518 0.305,0.09268c0.09865,0.04088 0.19234,0.09098 0.28107,0.15029c0.08874,0.05931 0.17089,0.12668 0.24646,0.20209c0.07542,0.07557 0.14278,0.15773 0.20209,0.24646c0.05931,0.08874 0.10941,0.18243 0.15029,0.28107c0.04088,0.09865 0.07178,0.20031 0.09268,0.305c0.02075,0.10484 0.03113,0.21061 0.03113,0.31731zM58.12952,78.2786c0,0.1067 -0.01045,0.21247 -0.03136,0.31731c-0.02075,0.10469 -0.05157,0.20635 -0.09245,0.305c-0.04088,0.09865 -0.09098,0.19234 -0.15029,0.28107c-0.05931,0.08874 -0.12668,0.17089 -0.20209,0.24646c-0.07557,0.07542 -0.15773,0.14278 -0.24646,0.20209c-0.08874,0.05931 -0.18243,0.10941 -0.28107,0.15029c-0.09865,0.04088 -0.20031,0.07178 -0.305,0.09268c-0.10484,0.02075 -0.21061,0.03113 -0.31731,0.03113c-0.1067,0 -0.21247,-0.01038 -0.31731,-0.03113c-0.10469,-0.02091 -0.20635,-0.0518 -0.305,-0.09268c-0.09865,-0.04088 -0.19234,-0.09098 -0.28107,-0.15029c-0.08874,-0.05931 -0.17089,-0.12668 -0.24646,-0.20209c-0.07542,-0.07557 -0.14278,-0.15773 -0.20209,-0.24646c-0.05931,-0.08874 -0.10941,-0.18243 -0.15029,-0.28107c-0.04088,-0.09865 -0.07178,-0.20031 -0.09268,-0.305c-0.02075,-0.10484 -0.03113,-0.21061 -0.03113,-0.31731c0,-0.1067 0.01038,-0.21247 0.03113,-0.31731c0.02091,-0.10469 0.0518,-0.20635 0.09268,-0.305c0.04088,-0.09865 0.09098,-0.19234 0.15029,-0.28107c0.05931,-0.08874 0.12668,-0.17089 0.20209,-0.24646c0.07557,-0.07542 0.15773,-0.14278 0.24646,-0.20209c0.08874,-0.05931 0.18243,-0.10941 0.28107,-0.15029c0.09865,-0.04088 0.20031,-0.0717 0.305,-0.09245c0.10484,-0.02091 0.21061,-0.03136 0.31731,-0.03136c0.1067,0 0.21247,0.01045 0.31731,0.03136c0.10469,0.02075 0.20635,0.05157 0.305,0.09245c0.09865,0.04088 0.19234,0.09098 0.28107,0.15029c0.08874,0.05931 0.17089,0.12668 0.24646,0.20209c0.07542,0.07557 0.14278,0.15773 0.20209,0.24646c0.05931,0.08874 0.10941,0.18243 0.15029,0.28107c0.04088,0.09865 0.0717,0.20031 0.09245,0.305c0.02091,0.10484 0.03136,0.21061 0.03136,0.31731zM96.45783,78.2786c0,0.1067 -0.01045,0.21247 -0.03136,0.31731c-0.02075,0.10469 -0.05157,0.20635 -0.09245,0.305c-0.04088,0.09865 -0.09098,0.19234 -0.15029,0.28107c-0.05931,0.08874 -0.12668,0.17089 -0.20209,0.24646c-0.07557,0.07542 -0.15773,0.14278 -0.24646,0.20209c-0.08874,0.05931 -0.18243,0.10941 -0.28107,0.15029c-0.09865,0.04088 -0.20031,0.07178 -0.305,0.09268c-0.10484,0.02075 -0.21061,0.03113 -0.31731,0.03113c-0.1067,0 -0.21247,-0.01038 -0.31731,-0.03113c-0.10469,-0.02091 -0.20635,-0.0518 -0.305,-0.09268c-0.09865,-0.04088 -0.19234,-0.09098 -0.28107,-0.15029c-0.08874,-0.05931 -0.17089,-0.12668 -0.24646,-0.20209c-0.07542,-0.07557 -0.14278,-0.15773 -0.20209,-0.24646c-0.05931,-0.08874 -0.10941,-0.18243 -0.15029,-0.28107c-0.04088,-0.09865 -0.07178,-0.20031 -0.09268,-0.305c-0.02075,-0.10484 -0.03113,-0.21061 -0.03113,-0.31731c0,-0.1067 0.01038,-0.21247 0.03113,-0.31731c0.02091,-0.10469 0.0518,-0.20635 0.09268,-0.305c0.04088,-0.09865 0.09098,-0.19234 0.15029,-0.28107c0.05931,-0.08874 0.12668,-0.17089 0.20209,-0.24646c0.07557,-0.07542 0.15773,-0.14278 0.24646,-0.20209c0.08874,-0.05931 0.18243,-0.10941 0.28107,-0.15029c0.09865,-0.04088 0.20031,-0.0717 0.305,-0.09245c0.10484,-0.02091 0.21061,-0.03136 0.31731,-0.03136c0.1067,0 0.21247,0.01045 0.31731,0.03136c0.10469,0.02075 0.20635,0.05157 0.305,0.09245c0.09865,0.04088 0.19234,0.09098 0.28107,0.15029c0.08874,0.05931 0.17089,0.12668 0.24646,0.20209c0.07542,0.07557 0.14278,0.15773 0.20209,0.24646c0.05931,0.08874 0.10941,0.18243 0.15029,0.28107c0.04088,0.09865 0.0717,0.20031 0.09245,0.305c0.02091,0.10484 0.03136,0.21061 0.03136,0.31731zM54.18055,84.08592c0,0.1067 -0.01038,0.21247 -0.03113,0.31731c-0.02091,0.10469 -0.0518,0.20635 -0.09268,0.305c-0.04088,0.09865 -0.09098,0.19234 -0.15029,0.28107c-0.05931,0.08874 -0.12668,0.17089 -0.20209,0.24646c-0.07557,0.07542 -0.15773,0.14278 -0.24646,0.20209c-0.08874,0.05931 -0.18243,0.10941 -0.28107,0.15029c-0.09865,0.04088 -0.20031,0.07178 -0.305,0.09268c-0.10484,0.02075 -0.21061,0.03113 -0.31731,0.03113c-0.1067,0 -0.21247,-0.01038 -0.31731,-0.03113c-0.10469,-0.02091 -0.20635,-0.0518 -0.305,-0.09268c-0.09865,-0.04088 -0.19234,-0.09098 -0.28107,-0.15029c-0.08874,-0.05931 -0.17089,-0.12668 -0.24646,-0.20209c-0.07542,-0.07557 -0.14278,-0.15773 -0.20209,-0.24646c-0.05931,-0.08874 -0.10941,-0.18243 -0.15029,-0.28107c-0.04088,-0.09865 -0.0717,-0.20031 -0.09245,-0.305c-0.02091,-0.10484 -0.03136,-0.21061 -0.03136,-0.31731c0,-0.1067 0.01045,-0.21247 0.03136,-0.31731c0.02075,-0.10469 0.05157,-0.20635 0.09245,-0.305c0.04088,-0.09865 0.09098,-0.19234 0.15029,-0.28107c0.05931,-0.08874 0.12668,-0.17089 0.20209,-0.24646c0.07557,-0.07542 0.15773,-0.14278 0.24646,-0.20209c0.08874,-0.05931 0.18243,-0.10941 0.28107,-0.15029c0.09865,-0.04088 0.20031,-0.0717 0.305,-0.09245c0.10484,-0.02091 0.21061,-0.03136 0.31731,-0.03136c0.1067,0 0.21247,0.01045 0.31731,0.03136c0.10469,0.02075 0.20635,0.05157 0.305,0.09245c0.09865,0.04088 0.19234,0.09098 0.28107,0.15029c0.08874,0.05931 0.17089,0.12668 0.24646,0.20209c0.07542,0.07557 0.14278,0.15773 0.20209,0.24646c0.05931,0.08874 0.10941,0.18243 0.15029,0.28107c0.04088,0.09865 0.07178,0.20031 0.09268,0.305c0.02075,0.10484 0.03113,0.21061 0.03113,0.31731zM100.17451,84.08592c0,0.1067 -0.01038,0.21247 -0.03113,0.31731c-0.02091,0.10469 -0.0518,0.20635 -0.09268,0.305c-0.04088,0.09865 -0.09098,0.19234 -0.15029,0.28107c-0.05931,0.08874 -0.12668,0.17089 -0.20209,0.24646c-0.07557,0.07542 -0.15773,0.14278 -0.24646,0.20209c-0.08874,0.05931 -0.18243,0.10941 -0.28107,0.15029c-0.09865,0.04088 -0.20031,0.07178 -0.305,0.09268c-0.10484,0.02075 -0.21061,0.03113 -0.31731,0.03113c-0.1067,0 -0.21247,-0.01038 -0.31731,-0.03113c-0.10469,-0.02091 -0.20635,-0.0518 -0.305,-0.09268c-0.09865,-0.04088 -0.19234,-0.09098 -0.28107,-0.15029c-0.08874,-0.05931 -0.17089,-0.12668 -0.24646,-0.20209c-0.07542,-0.07557 -0.14278,-0.15773 -0.20209,-0.24646c-0.05931,-0.08874 -0.10941,-0.18243 -0.15029,-0.28107c-0.04088,-0.09865 -0.0717,-0.20031 -0.09245,-0.305c-0.02091,-0.10484 -0.03136,-0.21061 -0.03136,-0.31731c0,-0.1067 0.01045,-0.21247 0.03136,-0.31731c0.02075,-0.10469 0.05157,-0.20635 0.09245,-0.305c0.04088,-0.09865 0.09098,-0.19234 0.15029,-0.28107c0.05931,-0.08874 0.12668,-0.17089 0.20209,-0.24646c0.07557,-0.07542 0.15773,-0.14278 0.24646,-0.20209c0.08874,-0.05931 0.18243,-0.10941 0.28107,-0.15029c0.09865,-0.04088 0.20031,-0.0717 0.305,-0.09245c0.10484,-0.02091 0.21061,-0.03136 0.31731,-0.03136c0.1067,0 0.21247,0.01045 0.31731,0.03136c0.10469,0.02075 0.20635,0.05157 0.305,0.09245c0.09865,0.04088 0.19234,0.09098 0.28107,0.15029c0.08874,0.05931 0.17089,0.12668 0.24646,0.20209c0.07542,0.07557 0.14278,0.15773 0.20209,0.24646c0.05931,0.08874 0.10941,0.18243 0.15029,0.28107c0.04088,0.09865 0.07178,0.20031 0.09268,0.305c0.02075,0.10484 0.03113,0.21061 0.03113,0.31731zM158.94458,172.82175c-3.71668,8.36254 -12.31152,15.09903 -22.5324,17.42196c-7.89795,1.85834 -14.86674,-0.23229 -22.76469,-6.73649c0.69688,-2.09063 1.16146,-4.41356 1.16146,-6.73649v-41.11582c0,-1.39376 -0.92917,-2.32293 -2.32293,-2.32293c-1.39376,0 -2.32293,0.92917 -2.32293,2.32293v41.34811c0,9.05942 -7.43337,16.49279 -16.49279,16.49279c-9.05942,0 -16.49279,-7.43337 -16.49279,-16.49279v-25.08762c1.62605,-1.62605 3.48439,-3.2521 5.11044,-4.87815c2.09063,-1.85834 4.41356,-3.71668 6.2719,-5.80732c3.48439,-3.48439 7.89795,-6.5042 8.13025,-11.84693c0.23229,-5.57503 -4.18127,-10.68547 -9.7563,-11.38234c-4.41356,-0.46459 -9.524,2.78751 -12.07922,6.2719c-2.55522,-3.48439 -7.43337,-6.96878 -12.07922,-6.5042c-5.57503,0.69688 -9.98859,5.57503 -9.7563,11.38234c0.23229,5.34273 4.41356,8.36254 8.13025,11.84693c3.71668,3.71668 7.66566,6.96878 11.38234,10.45317v26.71367c0,9.05942 -7.43337,16.49279 -16.49279,16.49279c-9.05942,0 -16.49279,-7.43337 -16.49279,-16.49279v-65.50656c0,-5.57503 2.78751,-10.68547 7.43337,-13.70527c7.66566,6.03961 17.65425,9.29171 29.73347,9.29171c13.24069,0 23.92615,-3.71668 31.82411,-11.15005c6.96878,1.62605 44.8325,12.07922 52.49816,50.17523c0.92917,6.73649 1.85834,16.72508 -2.09063,25.5522zM166.37794,160.51023c0.23229,-4.41356 -0.23229,-9.29171 -1.16146,-14.16986c0,-0.23229 -0.23229,-0.69688 -0.23229,-0.92917c4.18127,-1.62605 13.93757,-6.5042 19.2803,-16.95737c0,0 0.23229,-0.23229 0.46459,-0.23229c0.23229,0 0.23229,0.23229 0.23229,0.23229c1.62605,10.22088 -0.46459,23.92615 -18.58342,32.0564z" fill-rule="evenodd"></path></svg>