<svg width="100%" viewBox="0 0 200 200" version="1.1" xmlns="http://www.w3.org/2000/svg" xmlns:xlink="http://www.w3.org/1999/xlink"><path d="M168.06723,150.42017l4.48179,-1.12045l-5.04202,-1.96078c-4.48179,-1.96078 -9.2437,-4.7619 -14.28571,-7.84314c5.60224,-4.20168 12.60504,-7.0028 12.60504,-7.0028l4.20168,-1.68067l-4.48179,-1.12045c-10.08403,-3.08123 -22.12885,-8.96359 -34.17367,-15.68627v-59.66387c0,-3.92157 -3.08123,-7.0028 -7.0028,-7.0028h-13.44538c0.84034,-6.72269 0.28011,-13.44538 -1.96078,-19.88796c-3.64146,-10.08403 -11.20448,-18.48739 -21.0084,-23.2493c-5.60224,-2.80112 -11.76471,-4.20168 -18.20728,-4.20168c-15.68627,0 -29.41176,8.40336 -36.13445,22.12885c-4.7619,9.80392 -5.32213,20.72829 -1.68067,30.81232c3.36134,9.2437 9.80392,16.80672 18.48739,21.84874c-3.08123,4.7619 -4.7619,10.08403 -4.7619,15.96639v80.67227h-0.28011c-9.52381,0 -17.64706,7.84314 -17.92717,17.64706v10.92437h75.07003v-33.61345c3.92157,2.80112 7.0028,5.60224 8.68347,7.28291c1.40056,1.40056 1.68067,1.68067 2.2409,1.96078l1.40056,0.56022l0.56022,-1.40056c1.12045,-2.80112 3.08123,-4.7619 5.60224,-5.88235c8.96359,-3.36134 22.68908,5.88235 22.68908,5.88235l3.92157,2.52101l-1.68067,-4.20168c-0.84034,-2.80112 -0.56022,-5.04202 0.56022,-7.28291c4.48179,-8.12325 21.28852,-15.40616 21.56863,-15.40616zM70.86835,76.47059c-5.60224,0 -11.20448,-1.40056 -16.52661,-3.92157c-5.88235,-2.80112 -10.92437,-7.0028 -14.56583,-12.32493c14.56583,3.08123 29.97199,-3.92157 36.97479,-18.20728c3.92157,-7.84314 3.36134,-12.60504 2.80112,-14.56583c0,0 0,-0.28011 -0.28011,-0.84034v-0.28011c-1.12045,-3.08123 -5.60224,-11.48459 -22.12885,-19.60784c0,0 -0.56022,-0.28011 -1.40056,-0.56022c4.20168,-1.68067 8.96359,-2.52101 13.72549,-2.52101c5.60224,0 11.20448,1.40056 16.52661,3.92157c8.96359,4.20168 15.68627,11.76471 19.04762,21.0084c3.36134,9.2437 2.80112,19.04762 -1.40056,27.73109c-6.16246,12.32493 -18.76751,20.16807 -32.77311,20.16807zM53.5014,35.29412c-4.48179,3.36134 -10.36415,5.60224 -14.28571,5.60224c-0.56022,0 -2.80112,-0.28011 -3.08123,-1.12045c-3.92157,-11.20448 5.88235,-23.52941 8.96359,-26.61064c1.96078,0.56022 7.84314,1.96078 11.48459,6.16246c0.28011,2.52101 0.28011,6.44258 -7.56303,8.68347c-4.7619,1.40056 -0.84034,4.7619 4.48179,7.28291zM107.28291,58.26331c1.12045,-2.52101 1.96078,-4.7619 2.52101,-7.28291h14.56583c1.68067,0 3.08123,1.40056 3.08123,3.08123v66.94678c-8.96359,-7.0028 -17.64706,-14.28571 -24.64986,-20.44818v-35.01401c1.68067,-2.2409 3.36134,-4.7619 4.48179,-7.28291zM122.12885,66.66667h-14.56583c-1.12045,0 -1.96078,0.84034 -1.96078,1.96078c0,1.12045 0.84034,1.96078 1.96078,1.96078h14.56583c1.12045,0 1.96078,-0.84034 1.96078,-1.96078c0,-1.12045 -0.84034,-1.96078 -1.96078,-1.96078zM96.07843,71.70868c0.84034,-0.84034 1.96078,-1.68067 2.80112,-2.52101v7.0028c-0.84034,-1.68067 -1.68067,-3.08123 -2.80112,-4.48179zM107.56303,72.54902h14.56583c0.84034,0 1.96078,0.84034 1.96078,1.96078c0,1.12045 -0.84034,1.96078 -1.96078,1.96078h-14.56583c-1.12045,0 -1.96078,-0.84034 -1.96078,-1.96078c0,-1.12045 0.84034,-1.96078 1.96078,-1.96078zM98.87955,90.7563v6.16246c-7.84314,-7.0028 -13.44538,-12.32493 -14.84594,-13.72549c-1.40056,-1.68067 -3.36134,-2.80112 -5.32213,-3.64146c5.04202,-0.84034 10.08403,-2.80112 14.28571,-5.60224c3.64146,4.7619 5.88235,10.64426 5.88235,16.80672zM95.79832,162.46499c1.12045,0.56022 1.96078,1.12045 3.08123,1.68067v24.08964h-22.68908c-0.56022,-7.56303 -5.88235,-13.72549 -12.60504,-15.96639v-30.81232h-5.32213v29.97199c-2.2409,0 -4.20168,0.28011 -6.16246,1.12045l-2.52101,-0.84034v-81.23249c0,-5.04202 1.40056,-10.08403 4.20168,-14.28571c4.7619,2.2409 9.80392,3.36134 15.12605,3.64146c-0.28011,0.28011 -0.28011,0.28011 -0.56022,0.28011c-4.7619,2.52101 -7.0028,7.56303 -6.44258,12.60504v1.12045c0,0.28011 0.28011,0.56022 0.28011,0.84034c0.28011,0.28011 0.28011,0.84034 0.56022,1.12045c5.88235,16.2465 12.60504,62.46499 12.60504,63.02521l0.28011,1.68067l1.68067,-0.28011c5.88235,-1.40056 12.04482,-0.56022 18.48739,2.2409zM107.56303,78.15126h14.56583c0.84034,0 1.68067,0.84034 1.96078,1.96078c0,1.12045 -0.84034,1.96078 -1.96078,1.96078h-14.56583c-1.12045,0 -1.96078,-0.84034 -1.96078,-1.96078c0,-1.12045 0.84034,-1.96078 1.96078,-1.96078zM82.07283,87.11485l16.80672,30.53221l-15.40616,8.40336l-16.80672,-30.53221c-2.52101,-4.20168 -0.84034,-9.80392 3.36134,-12.04482c0.56022,-0.28011 0.84034,-0.28011 1.40056,-0.56022c2.2409,-0.28011 5.04202,0 8.12325,1.40056c1.12045,0.84034 1.96078,1.68067 2.52101,2.80112zM89.35574,92.15686c14.84594,14.0056 48.7395,43.41737 74.22969,56.30252c-5.60224,1.96078 -15.96639,8.96359 -19.60784,15.68627c-1.12045,1.96078 -1.40056,4.20168 -1.40056,6.16246c-5.04202,-2.52101 -14.84594,-7.28291 -22.40896,-4.20168c-2.80112,1.12045 -4.7619,3.08123 -6.44258,5.88235l-0.28011,-0.28011c-2.80112,-2.80112 -8.68347,-8.40336 -16.52661,-12.04482c-6.44258,-3.08123 -12.88515,-3.92157 -19.04762,-2.80112c-0.84034,-6.44258 -4.48179,-31.09244 -8.68347,-48.7395l13.16527,23.2493l1.96078,-1.12045c4.7619,6.72269 14.0056,9.2437 21.84874,5.32213l2.2409,-1.12045l-7.28291,-13.44538l3.36134,-1.68067zM130.81232,123.52941v-6.44258c10.64426,5.88235 21.0084,10.92437 30.2521,14.0056c-2.80112,1.40056 -6.72269,3.64146 -10.36415,6.44258c-6.72269,-4.20168 -13.44538,-8.96359 -19.88796,-14.0056zM101.40056,132.493c-4.48179,1.40056 -9.2437,0 -12.32493,-3.64146l7.84314,-4.48179zM44.2577,188.23529c0,-1.96078 0.56022,-3.64146 1.40056,-5.04202c0.84034,-1.96078 2.2409,-3.36134 3.36134,-4.7619l2.52101,-1.68067c1.40056,-0.56022 2.80112,-1.12045 4.48179,-1.40056c0.56022,-0.28011 1.12045,-0.28011 1.68067,-0.28011h0.28011c0.84034,0 1.68067,0 2.52101,0.28011c1.12045,0.28011 1.96078,0.56022 2.80112,0.84034c4.7619,1.96078 8.40336,6.72269 8.96359,12.04482zM45.65826,177.03081c-3.08123,2.80112 -4.7619,6.72269 -5.32213,11.20448h-8.96359c0.84034,-7.28291 6.72269,-12.88515 14.0056,-12.88515h0.28011c0.56022,0 1.12045,0.28011 1.68067,0.28011c-0.56022,0.28011 -1.12045,0.84034 -1.68067,1.40056zM31.93277,191.87675h7.84314v4.7619h-7.84314zM43.97759,196.63866v-4.7619h54.90196v4.7619z" fill-rule="evenodd"></path></svg>