<svg width="100%" viewBox="0 0 200 200" version="1.1" xmlns="http://www.w3.org/2000/svg" xmlns:xlink="http://www.w3.org/1999/xlink"><path d="M175.04957,80.39878l0.09083,1.46885c0.08862,1.45777 1.90972,35.94572 -18.81584,56.66464c-16.83966,16.83966 -42.68513,18.65633 -53.01579,18.65633c-0.64248,0 -1.17641,-0.00665 -1.6483,-0.01772v21.89532c0.19496,4.36001 0.03323,7.24675 0,7.76516v13.16865h-3.32318v-11.50263c-0.47189,0.00886 -1.0036,0.01772 -1.64387,0.01772h-0.00222c-10.32844,0 -36.17613,-1.81667 -53.01579,-18.66076c-20.72556,-20.71891 -18.90446,-55.20687 -18.81584,-56.66464l0.08862,-1.46885l1.47106,-0.09083c0,0 1.05456,-0.06425 2.91332,-0.06425c8.18167,0 36.23816,1.3625 53.75796,18.8823c8.01772,8.01994 12.617,18.0648 15.24675,27.45168v-2.3949c-0.03323,-0.52063 -0.19496,-3.40737 0,-7.76516v-40.86403c-3.95015,-3.61783 -26.20659,-25.22736 -26.20438,-52.52839c-0.00222,-29.31266 25.67488,-52.4021 26.7671,-53.37247l1.1033,-0.9748l1.1033,0.97701c1.09222,0.96815 26.76489,24.06203 26.76489,53.37469c0,27.29881 -22.25865,48.90834 -26.20881,52.52617v19.69759c2.62974,-9.38687 7.22902,-19.43174 15.24675,-27.45168c17.52202,-17.51759 45.58294,-18.88009 53.76461,-18.88009c1.85433,0 2.90667,0.06425 2.90667,0.06425zM100.00332,4.50845c-4.91387,4.77652 -24.54722,25.40238 -24.545,49.84326c-0.00222,22.30961 16.28136,41.1476 22.8812,47.8715v-76.874h3.32318v76.86957c6.60205,-6.73055 22.88563,-25.58405 22.88563,-47.86264c0,-24.44309 -19.63113,-45.06896 -24.545,-49.84769zM103.31099,153.86984c9.91415,0 34.70285,-1.72141 50.66519,-17.68374c17.30712,-17.3049 17.99169,-45.76682 17.89643,-52.61036c-0.34561,-0.00443 -0.74439,-0.00886 -1.19413,-0.00886c-7.86043,0 -34.79812,1.29161 -51.41623,17.9075c-14.43589,14.44032 -17.16976,36.55719 -17.59734,47.40626v0.50734c4.83412,-7.69427 15.19136,-22.51565 30.5378,-35.8416c7.38632,-6.41152 15.73636,-12.32899 24.8175,-17.5907l1.66602,2.87566c-8.90169,5.15536 -17.07893,10.95098 -24.30573,17.22515c-17.18305,14.91886 -27.96345,31.73415 -31.56134,37.81113c0.16394,0 0.31459,0.00222 0.49183,0.00222zM46.02603,167.50817c15.96234,15.96455 40.75104,17.68818 50.66741,17.68818c0.17724,0 0.32789,-0.00222 0.49183,-0.00443c-3.5979,-6.07699 -14.37829,-22.89227 -31.56134,-37.80892c-7.22902,-6.27638 -15.40626,-12.06979 -24.30573,-17.22515l1.66602,-2.87566c9.07893,5.25948 17.42897,11.17696 24.8175,17.5907c15.34644,13.32373 25.70368,28.14511 30.5378,35.83938v-0.50734c-0.42758,-10.84907 -3.16145,-32.96594 -17.59734,-47.40404c-16.6159,-16.6159 -43.55137,-17.9075 -51.40958,-17.9075c-0.45195,0 -0.85295,0.00443 -1.19856,0.00886c-0.09526,6.84575 0.60482,35.32539 17.892,52.60593z" fill-rule="evenodd"></path></svg>