<svg width="100%" viewBox="0 0 200 200" version="1.1" xmlns="http://www.w3.org/2000/svg" xmlns:xlink="http://www.w3.org/1999/xlink"><path d="M179.30948,96.55172h-100c-15.23552,0 -27.58621,-12.35069 -27.58621,-27.58621c0,-15.23552 12.35069,-27.58621 27.58621,-27.58621h100c1.90448,0 3.44828,-1.54379 3.44828,-3.44828c0,-1.90448 -1.54379,-3.44828 -3.44828,-3.44828h-34.79655c-12.23793,-21.61724 -35.14138,-34.48276 -61.75517,-34.48276c-62.73448,0 -79.31034,45.11034 -79.31034,68.96552c0,34.77241 11.15517,49.03448 20.12069,60.4931c6.08621,7.78276 10.91379,13.95517 10.91379,24.92069v38.72414c0,3.80897 3.08759,6.89655 6.89655,6.89655h75.86207c3.80897,0 6.89655,-3.08759 6.89655,-6.89655v-27.58621h10.34483c9.51759,-0.01138 17.23,-7.72379 17.24138,-17.24138l0.15517,-17.89655l11.55862,-2.92759c3.2169,-0.65138 5.52897,-3.48 5.52759,-6.76207c-0.00517,-1.03655 -0.24103,-2.05897 -0.68966,-2.9931l-7.34483,-14.24828h18.37931c1.90448,0 3.44828,-1.54379 3.44828,-3.44828c0,-1.90448 -1.54379,-3.44828 -3.44828,-3.44828zM150.37155,123.64828c-3.22483,0.64448 -5.54621,3.47655 -5.54483,6.76552v17.86207c0,5.71345 -4.63138,10.34483 -10.34483,10.34483h-31.03448c-11.55034,-0.01172 -22.21517,-6.19138 -27.96897,-16.2069l-3.51724,-6.17241c-0.94276,-1.65483 -3.04862,-2.23241 -4.70345,-1.28966c-1.65483,0.94276 -2.23241,3.04862 -1.28966,4.70345l3.51724,6.17586c6.98345,12.16552 19.93483,19.67276 33.96207,19.68621h13.7931v27.58621h-75.86207v-38.72414c0,-13.34483 -6.01379,-21.03448 -12.37931,-29.16897c-8.74483,-11.17931 -18.65517,-23.83103 -18.65517,-56.24483c0,-21.46897 15.13448,-62.06897 72.41379,-62.06897c21.4431,-0.57093 41.69828,9.82824 53.73103,27.58621h-23.5c-8.95966,-8.87241 -21.07034,-13.8321 -33.67931,-13.7931c-26.66207,0 -48.27586,21.61379 -48.27586,48.27586c0,26.66207 21.61379,48.27586 48.27586,48.27586c12.60897,0.03897 24.71966,-4.92069 33.67931,-13.7931h40.18621l8.8931,17.24138zM79.30948,34.48276c-19.04414,0 -34.48276,15.43862 -34.48276,34.48276c0,19.04414 15.43862,34.48276 34.48276,34.48276h22.89655c-6.77552,4.5269 -14.74793,6.92793 -22.89655,6.89655c-22.8531,0 -41.37931,-18.52621 -41.37931,-41.37931c0,-22.8531 18.52621,-41.37931 41.37931,-41.37931c8.14862,-0.03138 16.12103,2.36966 22.89655,6.89655zM32.49224,39.75862c-5.47034,8.75897 -8.36566,18.88 -8.35517,29.2069c-0.01048,10.3269 2.88483,20.44793 8.35517,29.2069c1.00931,1.61862 0.51517,3.74931 -1.10345,4.75862c-1.61862,1.00931 -3.74931,0.51517 -4.75862,-1.10345c-12.54259,-20.11276 -12.54259,-45.61138 0,-65.72414c1.00931,-1.61862 3.14,-2.11276 4.75862,-1.10345c1.61862,1.00931 2.11276,3.14 1.10345,4.75862zM117.24052,48.27586c0,1.90448 -1.54379,3.44828 -3.44828,3.44828h-24.13793c-1.90448,0 -3.44828,-1.54379 -3.44828,-3.44828c0,-1.90448 1.54379,-3.44828 3.44828,-3.44828h24.13793c1.90448,0 3.44828,1.54379 3.44828,3.44828zM170.075,72.31379l-32.22414,19.33793c-0.31724,0.18966 -0.66552,0.39655 -1.0069,0.62069l-0.03793,0.02759l-0.32759,0.1931l-0.04828,0.03103l-0.17241,0.10345c-0.57724,0.3631 -1.25414,0.53448 -1.93448,0.48966h-0.2c-1.11414,-0.02034 -2.12207,-0.66552 -2.6069,-1.66897c-0.14241,-0.23724 -0.25276,-0.49241 -0.32759,-0.75862c-0.10345,-0.33517 -0.15586,-0.68379 -0.15517,-1.03448v-6.89655h-51.72414c-7.61759,0 -13.7931,-6.17552 -13.7931,-13.7931c0,-7.61759 6.17552,-13.7931 13.7931,-13.7931h51.72414v-6.89655c0.00138,-1.24552 0.67448,-2.39345 1.76069,-3.0031c1.08621,-0.60966 2.4169,-0.58586 3.48069,0.06172l34.31034,20.58276l0.08621,0.05172l0.06897,0.04138c1.03759,0.62345 1.67207,1.74483 1.67241,2.95517c-0.00379,0.34759 -0.05966,0.69276 -0.16552,1.02414c-0.07483,0.26621 -0.18517,0.52138 -0.32759,0.75862c-0.38724,0.74241 -1.04931,1.30414 -1.84483,1.56552zM163.84397,48.07931l31.03448,18.62069v-0.00345c1.03862,0.6231 1.67414,1.74552 1.67414,2.9569c0,1.21138 -0.63552,2.33379 -1.67414,2.9569l-31.03448,18.62069c-1.6331,0.98069 -3.75207,0.45207 -4.73276,-1.18103c-0.98069,-1.6331 -0.45207,-3.75207 1.18103,-4.73276l26.11034,-15.66207l-26.11034,-15.66207c-1.6331,-0.98069 -2.16172,-3.09966 -1.18103,-4.73276c0.98069,-1.6331 3.09966,-2.16172 4.73276,-1.18103zM79.30948,75.86207h55.17241c1.90448,0 3.44828,1.54379 3.44828,3.44828v4.25517l24.32414,-14.6l-24.32414,-14.59655v4.25172c0,1.90448 -1.54379,3.44828 -3.44828,3.44828h-55.17241c-3.80897,0 -6.89655,3.08759 -6.89655,6.89655c0,3.80897 3.08759,6.89655 6.89655,6.89655zM103.44741,89.65517c0,-1.90448 1.54379,-3.44828 3.44828,-3.44828h13.7931c1.90448,0 3.44828,1.54379 3.44828,3.44828c0,1.90448 -1.54379,3.44828 -3.44828,3.44828h-13.7931c-1.90448,0 -3.44828,-1.54379 -3.44828,-3.44828z" fill-rule="evenodd"></path></svg>