<svg width="100%" viewBox="0 0 200 200" version="1.1" xmlns="http://www.w3.org/2000/svg" xmlns:xlink="http://www.w3.org/1999/xlink"><path d="M200,93.08007c0,-9.58633 -19.17926,-15.70891 -43.0956,-19.22324c-0.25731,-2.09364 -0.51241,-4.16529 -0.76972,-6.22815c-0.93246,-7.57626 -1.86712,-15.15691 -2.96673,-24.22643l-0.2639,-2.16622l-2.09804,-0.60478c-32.8737,-9.47417 -66.64028,-9.47637 -100.35627,-0.0088l-2.07825,0.58499l-0.29689,2.13983c-1.29973,9.36861 -2.29157,16.79972 -3.28341,24.21983c-0.2727,2.04086 -0.5454,4.07952 -0.8225,6.15997c-24.32539,3.49014 -43.96868,9.64791 -43.96868,19.35299c0,7.35854 11.29071,12.67841 27.3515,16.34448v32.18975c0,6.10279 3.21304,11.47105 8.59449,14.3542c8.41855,4.51057 20.9936,10.5078 32.94188,10.5078c9.36421,0 15.7551,-2.89855 20.89024,-5.22971c3.81782,-1.73297 6.83293,-3.10088 10.2219,-3.10088c3.0415,0 6.25454,1.41409 9.97119,3.0481c5.35286,2.35315 12.01205,5.28249 21.13875,5.28249c11.94827,0 24.52112,-5.99943 32.94188,-10.5078c5.37925,-2.88536 8.59229,-8.25141 8.59229,-14.3542v-32.18975c16.06299,-3.66607 27.3559,-8.98595 27.3559,-16.34448zM100,109.5719c-60.43412,0 -93.40239,-10.89486 -93.40239,-16.49183c0,-3.45715 12.62123,-8.92437 36.4584,-12.60584c-0.48382,3.5781 -0.99844,7.35634 -1.57903,11.53263l6.53383,0.90607c1.31512,-9.47637 2.31576,-16.96906 3.3186,-24.47274c0.91267,-6.83293 1.82754,-13.67685 2.97992,-22.03602c30.70528,-8.25801 61.42157,-8.35917 91.39232,-0.32988c-4.21587,2.32236 -19.38158,5.76631 -44.81098,5.76631c-14.29483,0 -27.72097,-1.16558 -36.83886,-3.19764l-1.43388,6.43927c9.56654,2.13323 23.51609,3.35599 38.27275,3.35599c6.74056,0 34.66165,-0.36507 46.71769,-6.11159c0.69495,5.69154 1.33712,10.90145 1.97928,16.10917c0.93246,7.57626 1.86712,15.15691 2.96673,24.22643l6.55143,-0.79391c-0.48602,-4.00915 -0.93906,-7.71701 -1.3745,-11.27312c23.33355,3.68147 35.67109,9.06732 35.67109,12.48708c0,5.59477 -32.96827,16.48963 -93.40239,16.48963zM166.04869,141.6143c0,3.68587 -1.86492,6.79774 -5.11095,8.53951c-7.79398,4.17409 -19.36619,9.72708 -29.8278,9.72708c-7.7434,0 -13.44813,-2.51149 -18.48211,-4.72389c-4.21587,-1.85393 -8.20083,-3.60669 -12.62783,-3.60669c-4.81406,0 -8.76603,1.79235 -12.95111,3.69246c-5.02738,2.28057 -10.2241,4.63812 -18.16322,4.63812c-10.46381,0 -22.03382,-5.55079 -29.8234,-9.72708c-3.25262,-1.74177 -5.11535,-4.85364 -5.11535,-8.53951v-29.86739c26.7995,3.8794 46.71769,5.54419 66.0179,5.54419c19.28922,0 39.225,-1.667 66.08388,-5.54639zM68.93625,122.88368c-9.45878,-0.52781 -17.97189,3.24822 -21.47303,9.30043l-0.8379,1.44708l0.67516,1.53065c2.86996,6.52504 10.84647,11.07739 20.32064,11.6008c0.59159,0.03299 1.17437,0.04618 1.75496,0.04618c8.69565,0 16.43905,-3.67047 19.72246,-9.34882l0.8379,-1.44928l-0.67516,-1.53065c-2.86996,-6.51844 -10.84867,-11.07079 -20.32504,-11.5964zM128.94812,146.78683l0.53001,-0.0044c9.48737,-0.15834 17.63542,-4.40501 20.75169,-10.81349l0.73233,-1.50645l-0.78072,-1.48006c-3.25042,-6.14677 -11.3215,-10.12074 -20.56695,-10.12074l-0.53661,0.0044c-9.48737,0.15834 -17.63542,4.40501 -20.75169,10.81349l-0.73233,1.50865l0.78072,1.47787c3.24602,6.14897 11.3215,10.12074 20.57355,10.12074zM67.98619,140.17822c-5.92905,-0.32548 -11.26432,-2.7622 -13.74283,-6.12258c2.81938,-3.05469 8.36357,-4.92182 14.33001,-4.58094c5.92685,0.32548 11.26432,2.7622 13.74502,6.12258c-2.81938,3.05249 -8.38117,4.91962 -14.33221,4.58094zM129.18783,129.4659l0.42445,-0.0044c5.74432,0 11.07079,2.04746 13.71863,5.13294c-2.60826,3.26142 -8.02929,5.49141 -13.96494,5.59038l-0.42005,0.0044c-5.75092,0 -11.07959,-2.04746 -13.72523,-5.13074c2.60606,-3.26362 8.03149,-5.49361 13.96714,-5.59258z" fill-rule="evenodd"></path></svg>