<svg width="100%" viewBox="0 0 200 200" version="1.1" xmlns="http://www.w3.org/2000/svg" xmlns:xlink="http://www.w3.org/1999/xlink"><path d="M98.9766,28.81166l4.50696,0.54782l3.4936,-28.81366l-4.50496,-0.54581zM28.22571,7.65542l23.57226,34.92194l3.7645,-2.53843l-23.57226,-34.92395zM55.05278,10.6935l8.73299,22.69936l4.23807,-1.62941l-8.73299,-22.70137zM111.17711,28.69728l4.33439,1.36252l4.79592,-15.28475l-4.33038,-1.35851zM128.64711,38.27106l3.7344,2.58659l15.71417,-22.70337l-3.73038,-2.58257zM27.41703,36.00955l13.39848,12.15034l3.05013,-3.36116l-13.39848,-12.15235zM93.26845,48.95072c-0.29097,0.0008 -0.58053,0.00181 -0.86768,0.00181c-9.53566,0 -18.39708,2.83341 -25.83577,7.66144l-7.26211,-10.89417c9.56375,-6.04005 20.86728,-9.80054 32.58217,-9.80054c2.98792,0 5.90159,0.29097 8.77313,0.70635l-1.86419,12.54364c-1.76345,-0.23057 -3.6752,-0.22455 -5.52554,-0.21853zM142.06365,49.25152l3.09227,3.32103l13.09748,-12.22258l-3.09427,-3.31902zM137.30184,56.4153l-9.638,8.32363c-6.01196,-6.65409 -12.39114,-11.97777 -21.30874,-14.40382l3.74644,-11.63061c10.64735,3.33507 19.97431,9.56977 27.2003,17.7108zM150.33511,56.80259l2.26753,3.93506l28.80965,-16.58707l-2.26351,-3.93506zM145.25224,128.54076c4.74375,-9.90689 7.46278,-21.21042 7.46278,-31.7775c0,-12.03797 -3.50363,-23.25119 -9.53566,-32.69254l-10.62528,6.63402c3.35715,5.07686 5.54842,10.70354 6.63001,16.80379l-30.19826,-3.48557l4.66148,-26.7769l-16.30012,17.46197l-17.46398,-19.7897l6.98519,29.10463l-26.7769,-11.64466l18.62784,18.62985l-25.61304,9.31091h27.94076l-22.46659,29.68255c-8.50825,-8.59453 -13.7637,-20.41377 -13.7637,-33.4651c0,-13.29414 5.46414,-25.302 14.25533,-33.93466l-9.70823,-9.16643c-7.88819,7.43067 -13.61922,16.54493 -15.81651,26.04447c-1.1759,5.07284 -2.50431,18.33086 -2.50431,18.33086l-16.50078,34.70923c-0.25284,0.56789 -0.37525,1.22808 -0.37525,1.8983c0,2.70699 2.17924,4.89826 4.89425,4.89826h11.97977v14.28944c0,18.30878 10.72561,24.0057 23.9756,24.0057h8.133v22.38833h66.30413v-50.7846c3.73038,-2.93775 7.09957,-6.63603 10.05538,-10.82594l-11.27744,-10.61123c-8.72296,9.99117 -21.52346,16.33824 -35.83096,16.33824c-12.36706,0 -23.63246,-4.71967 -32.09255,-12.45535l33.54738,-24.35887v31.42834l11.64065,-33.75607l23.28129,10.47879l-12.80652,-17.46197l23.22109,-10.4507c0.50769,2.89561 0.79464,5.88755 0.79464,8.99185c0,9.05005 -2.57455,17.47201 -6.9571,24.67191zM160.64534,98.85018h25.18762v-4.53907h-25.18762zM156.28085,121.75021l20.95557,6.98318l1.43677,-4.30228l-20.95357,-6.9872zM145.79203,135.70855l14.84328,10.4808l2.6207,-3.70831l-14.84529,-10.47879z" fill-rule="evenodd"></path></svg>